{"glyphs":{"0":{"ha":911,"x_min":111,"x_max":800,"o":"m 414 0 q 185 74 258 0 q 111 303 111 147 l 111 622 q 185 852 111 779 q 414 924 258 925 l 497 924 q 727 851 654 924 q 800 621 800 778 l 800 303 q 727 74 800 147 q 497 0 654 0 l 414 0 m 497 100 q 619 119 575 100 q 681 181 663 138 q 700 303 700 225 l 700 621 q 681 742 700 699 q 619 805 663 786 q 497 824 575 824 l 414 824 q 292 806 336 825 q 230 744 249 788 q 211 622 211 700 l 211 303 q 230 181 211 225 q 292 119 249 138 q 414 100 336 100 l 497 100 m 443 399 q 406 412 419 399 q 393 449 393 425 l 393 481 q 443 529 393 529 l 474 529 q 521 481 521 529 l 521 449 q 508 412 521 425 q 474 399 496 399 l 443 399 z "},"1":{"ha":522,"x_min":83,"x_max":383,"o":"m 340 924 q 372 910 361 924 q 383 874 383 897 l 383 50 q 370 13 383 26 q 333 0 357 0 q 283 50 283 0 l 283 772 l 164 658 q 128 642 147 642 q 99 656 113 642 q 83 688 83 671 q 101 724 83 707 l 278 899 q 307 918 293 913 q 340 924 321 924 z "},"2":{"ha":794,"x_min":68,"x_max":713,"o":"m 132 0 q 94 13 107 0 q 81 50 81 25 q 123 233 81 160 q 225 351 165 307 q 389 453 285 394 q 524 534 483 507 q 589 594 565 561 q 613 675 613 628 q 581 792 613 761 q 464 824 550 824 l 315 824 q 211 801 244 824 q 169 725 178 779 q 118 676 163 676 q 81 690 93 676 q 69 728 68 703 q 142 876 82 828 q 315 924 203 924 l 464 924 q 652 863 592 924 q 713 675 713 803 q 677 548 713 601 q 590 459 642 494 q 438 367 539 424 q 303 285 347 315 q 226 209 258 254 q 185 100 193 164 l 658 100 q 708 50 708 100 q 658 0 708 0 l 132 0 z "},"3":{"ha":875,"x_min":82,"x_max":764,"o":"m 343 0 q 158 51 222 0 q 83 210 94 103 q 94 248 82 235 q 132 261 107 261 q 183 211 178 261 q 228 124 192 149 q 343 100 264 100 l 501 100 q 600 115 565 100 q 649 164 635 129 q 664 261 664 199 q 649 358 664 324 q 600 408 635 393 q 501 422 565 422 l 386 422 q 349 435 363 422 q 336 472 336 449 q 349 509 336 496 q 386 522 363 522 l 542 522 q 619 560 596 522 q 642 675 642 599 q 610 792 642 761 q 493 824 579 824 l 358 824 q 253 801 286 824 q 214 725 221 779 q 161 676 206 676 q 124 690 136 676 q 113 728 111 703 q 185 876 125 828 q 358 924 246 924 l 493 924 q 681 863 621 924 q 742 675 742 803 q 660 489 742 542 q 764 261 764 432 q 700 63 764 126 q 501 0 636 0 l 343 0 z "},"4":{"ha":824,"x_min":56,"x_max":768,"o":"m 718 296 q 755 282 742 296 q 768 246 768 268 q 755 209 768 222 q 718 196 742 196 l 642 196 l 642 50 q 592 0 642 0 q 555 13 568 0 q 542 50 542 26 l 542 196 l 106 196 q 69 209 82 196 q 56 246 56 222 q 76 299 56 272 l 524 893 q 553 917 538 911 q 592 924 568 924 q 644 874 644 924 l 643 296 l 718 296 m 185 294 l 543 296 l 544 775 l 185 294 z "},"5":{"ha":889,"x_min":110,"x_max":778,"o":"m 371 0 q 186 51 250 0 q 111 210 122 103 q 122 248 110 235 q 160 261 135 261 q 211 211 206 261 q 256 124 219 149 q 371 100 292 100 l 515 100 q 614 115 579 100 q 663 165 649 131 q 678 263 678 200 l 678 358 q 663 456 678 421 q 613 506 647 490 q 515 521 578 521 l 413 521 q 253 489 301 521 q 206 469 226 469 q 186 472 193 469 l 175 475 q 132 531 132 488 l 132 874 q 145 910 132 897 q 182 924 158 924 l 725 924 q 775 874 775 924 q 725 824 775 824 l 232 824 l 232 592 q 413 621 303 621 l 515 621 q 714 557 650 621 q 778 358 778 493 l 778 263 q 714 64 778 128 q 515 0 650 0 l 371 0 z "},"6":{"ha":892,"x_min":111,"x_max":781,"o":"m 374 0 q 175 63 239 0 q 111 261 111 126 l 111 675 q 172 863 111 803 q 360 924 233 924 l 532 924 q 706 876 644 924 q 778 728 767 828 q 767 690 781 703 q 729 676 754 676 q 678 725 685 676 q 637 802 669 781 q 532 824 604 824 l 360 824 q 243 792 275 824 q 211 675 211 761 l 211 544 q 374 618 261 618 l 518 618 q 717 554 653 618 q 781 356 781 490 l 781 263 q 717 64 781 128 q 518 0 653 0 l 374 0 m 518 100 q 615 115 581 100 q 665 165 650 131 q 681 263 681 200 l 681 356 q 665 453 681 418 q 615 503 650 488 q 518 518 581 518 l 374 518 q 275 503 310 518 q 226 454 240 489 q 211 357 211 419 l 211 261 q 226 164 211 199 q 275 115 240 129 q 374 100 310 100 l 518 100 z "},"7":{"ha":708,"x_min":56,"x_max":653,"o":"m 257 0 q 220 13 233 0 q 207 51 207 26 q 229 281 210 193 q 292 428 249 368 q 414 544 335 489 q 514 660 482 596 q 551 824 546 725 l 106 824 q 69 837 82 824 q 56 874 56 850 q 69 910 56 897 q 106 924 82 924 l 603 924 q 640 910 626 924 q 653 874 653 897 q 610 631 653 728 q 472 464 568 535 q 373 371 407 418 q 324 250 339 324 q 307 51 310 176 q 294 13 307 26 q 257 0 281 0 z "},"8":{"ha":906,"x_min":111,"x_max":794,"o":"m 678 479 q 794 261 794 419 q 731 63 794 126 q 532 0 667 0 l 374 0 q 175 63 239 0 q 111 261 111 126 q 232 482 111 422 q 140 678 140 547 q 201 863 140 803 q 389 924 263 924 l 524 924 q 711 863 650 924 q 772 678 772 803 q 678 479 772 543 m 389 824 q 272 792 304 824 q 240 678 240 761 q 270 556 240 590 q 374 522 300 522 l 532 522 q 643 559 614 522 q 672 678 672 596 q 640 792 672 761 q 524 824 608 824 l 389 824 m 532 100 q 631 115 596 100 q 680 164 665 129 q 694 261 694 199 q 680 358 694 324 q 631 408 665 393 q 532 422 596 422 l 374 422 q 275 408 310 422 q 226 358 240 393 q 211 261 211 324 q 226 164 211 199 q 275 115 240 129 q 374 100 310 100 l 532 100 z "},"9":{"ha":892,"x_min":111,"x_max":781,"o":"m 518 924 q 717 860 653 924 q 781 663 781 797 l 781 249 q 720 61 781 122 q 532 0 660 0 l 360 0 q 186 48 247 0 q 114 196 125 96 q 124 234 111 221 q 163 247 138 247 q 214 199 207 247 q 255 122 222 143 q 360 100 288 100 l 532 100 q 649 132 618 100 q 681 249 681 164 l 681 379 q 518 306 631 306 l 374 306 q 175 369 239 306 q 111 568 111 433 l 111 661 q 175 860 111 796 q 374 924 239 924 l 518 924 m 374 824 q 276 808 311 824 q 226 758 242 793 q 211 661 211 724 l 211 568 q 226 471 211 506 q 276 421 242 436 q 374 406 311 406 l 518 406 q 617 420 582 406 q 666 469 651 435 q 681 567 681 504 l 681 663 q 666 760 681 725 q 617 809 651 794 q 518 824 582 824 l 374 824 z "},"\u0000":{"ha":0,"x_min":0,"x_max":0,"o":""},"\r":{"ha":403,"x_min":0,"x_max":0,"o":""}," ":{"ha":403,"x_min":0,"x_max":0,"o":""},"A":{"ha":897,"x_min":51,"x_max":849,"o":"m 843 71 q 849 47 849 60 q 817 6 849 18 q 792 0 804 0 q 751 32 764 0 l 669 228 l 229 228 l 150 32 q 108 0 138 0 q 85 6 96 0 q 51 47 51 18 q 57 71 51 60 l 392 885 q 449 924 408 924 l 451 924 q 506 885 489 924 l 843 71 m 269 328 l 628 328 l 446 765 l 269 328 z "},"Á":{"ha":897,"x_min":51,"x_max":849,"o":"m 843 71 q 849 47 849 60 q 817 6 849 18 q 792 0 804 0 q 751 32 764 0 l 669 228 l 229 228 l 150 32 q 108 0 138 0 q 85 6 96 0 q 51 47 51 18 q 57 71 51 60 l 392 885 q 449 924 408 924 l 451 924 q 506 885 489 924 l 843 71 m 269 328 l 628 328 l 446 765 l 269 328 m 439 992 q 421 1024 421 1006 q 433 1054 421 1040 l 542 1183 q 574 1201 556 1201 q 604 1189 589 1201 q 622 1157 622 1175 q 610 1126 622 1142 l 501 997 q 469 979 488 979 q 439 992 453 979 z "},"Ă":{"ha":897,"x_min":51,"x_max":849,"o":"m 843 71 q 849 47 849 60 q 817 6 849 18 q 792 0 804 0 q 751 32 764 0 l 669 228 l 229 228 l 150 32 q 108 0 138 0 q 85 6 96 0 q 51 47 51 18 q 57 71 51 60 l 392 885 q 449 924 408 924 l 451 924 q 506 885 489 924 l 843 71 m 269 328 l 628 328 l 446 765 l 269 328 m 465 993 q 328 1030 376 993 q 281 1136 281 1067 l 281 1158 q 325 1203 281 1203 q 369 1158 369 1203 l 369 1136 q 390 1090 369 1104 q 465 1076 411 1076 q 540 1090 519 1076 q 561 1136 561 1104 l 561 1169 q 606 1203 561 1203 q 650 1158 650 1203 l 650 1136 q 602 1030 650 1067 q 465 993 554 993 z "},"Ắ":{"ha":897,"x_min":51,"x_max":849,"o":"m 843 71 q 849 47 849 60 q 817 6 849 18 q 792 0 804 0 q 751 32 764 0 l 669 228 l 229 228 l 150 32 q 108 0 138 0 q 85 6 96 0 q 51 47 51 18 q 57 71 51 60 l 392 885 q 449 924 408 924 l 451 924 q 506 885 489 924 l 843 71 m 269 328 l 628 328 l 446 765 l 269 328 m 450 993 q 313 1030 361 993 q 265 1136 265 1067 l 265 1158 q 310 1203 265 1203 q 354 1158 354 1203 l 354 1136 q 375 1090 354 1104 q 450 1076 396 1076 q 525 1090 504 1076 q 546 1136 546 1104 l 546 1169 q 590 1203 546 1203 q 635 1158 635 1203 l 635 1136 q 587 1030 635 1067 q 450 993 539 993 m 397 1201 q 379 1233 379 1215 q 392 1264 379 1250 l 500 1393 q 532 1411 514 1411 q 563 1399 547 1411 q 581 1367 581 1385 q 568 1336 581 1351 l 460 1207 q 428 1189 446 1189 q 397 1201 411 1189 z "},"Ặ":{"ha":897,"x_min":51,"x_max":849,"o":"m 843 71 q 849 47 849 60 q 817 6 849 18 q 792 0 804 0 q 751 32 764 0 l 669 228 l 229 228 l 150 32 q 108 0 138 0 q 85 6 96 0 q 51 47 51 18 q 57 71 51 60 l 392 885 q 449 924 408 924 l 451 924 q 506 885 489 924 l 843 71 m 269 328 l 628 328 l 446 765 l 269 328 m 435 -215 q 398 -202 411 -215 q 385 -165 385 -189 l 385 -133 q 435 -85 385 -85 l 465 -85 q 513 -133 513 -85 l 513 -165 q 500 -202 513 -189 q 465 -215 488 -215 l 435 -215 m 465 993 q 328 1030 376 993 q 281 1136 281 1067 l 281 1158 q 325 1203 281 1203 q 369 1158 369 1203 l 369 1136 q 390 1090 369 1104 q 465 1076 411 1076 q 540 1090 519 1076 q 561 1136 561 1104 l 561 1169 q 606 1203 561 1203 q 650 1158 650 1203 l 650 1136 q 602 1030 650 1067 q 465 993 554 993 z "},"Ằ":{"ha":897,"x_min":51,"x_max":849,"o":"m 843 71 q 849 47 849 60 q 817 6 849 18 q 792 0 804 0 q 751 32 764 0 l 669 228 l 229 228 l 150 32 q 108 0 138 0 q 85 6 96 0 q 51 47 51 18 q 57 71 51 60 l 392 885 q 449 924 408 924 l 451 924 q 506 885 489 924 l 843 71 m 269 328 l 628 328 l 446 765 l 269 328 m 450 993 q 313 1030 361 993 q 265 1136 265 1067 l 265 1158 q 310 1203 265 1203 q 354 1158 354 1203 l 354 1136 q 375 1090 354 1104 q 450 1076 396 1076 q 525 1090 504 1076 q 546 1136 546 1104 l 546 1169 q 590 1203 546 1203 q 635 1158 635 1203 l 635 1136 q 587 1030 635 1067 q 450 993 539 993 m 458 1201 q 428 1189 443 1189 q 396 1207 410 1189 l 288 1336 q 275 1367 275 1351 q 293 1399 275 1385 q 324 1411 307 1411 q 356 1393 342 1411 l 464 1264 q 476 1233 476 1250 q 458 1201 476 1215 z "},"Ẳ":{"ha":897,"x_min":51,"x_max":849,"o":"m 843 71 q 849 47 849 60 q 817 6 849 18 q 792 0 804 0 q 751 32 764 0 l 669 228 l 229 228 l 150 32 q 108 0 138 0 q 85 6 96 0 q 51 47 51 18 q 57 71 51 60 l 392 885 q 449 924 408 924 l 451 924 q 506 885 489 924 l 843 71 m 269 328 l 628 328 l 446 765 l 269 328 m 450 993 q 313 1030 361 993 q 265 1136 265 1067 l 265 1158 q 310 1203 265 1203 q 354 1158 354 1203 l 354 1136 q 375 1090 354 1104 q 450 1076 396 1076 q 525 1090 504 1076 q 546 1136 546 1104 l 546 1169 q 590 1203 546 1203 q 635 1158 635 1203 l 635 1136 q 587 1030 635 1067 q 450 993 539 993 m 450 1161 q 422 1169 431 1161 q 414 1196 414 1176 q 433 1256 414 1235 q 481 1296 451 1278 q 505 1313 500 1307 q 510 1328 510 1318 q 500 1369 510 1358 q 460 1379 490 1379 q 419 1369 429 1379 q 410 1328 410 1358 q 401 1300 410 1308 q 374 1292 393 1292 q 346 1300 354 1292 q 338 1328 338 1308 q 460 1450 338 1450 q 582 1328 582 1450 q 564 1271 582 1292 q 518 1233 546 1250 q 492 1214 497 1221 q 486 1196 486 1207 q 478 1169 486 1176 q 450 1161 469 1161 z "},"Ẵ":{"ha":897,"x_min":51,"x_max":849,"o":"m 843 71 q 849 47 849 60 q 817 6 849 18 q 792 0 804 0 q 751 32 764 0 l 669 228 l 229 228 l 150 32 q 108 0 138 0 q 85 6 96 0 q 51 47 51 18 q 57 71 51 60 l 392 885 q 449 924 408 924 l 451 924 q 506 885 489 924 l 843 71 m 269 328 l 628 328 l 446 765 l 269 328 m 450 993 q 313 1030 361 993 q 265 1136 265 1067 l 265 1158 q 310 1203 265 1203 q 354 1158 354 1203 l 354 1136 q 375 1090 354 1104 q 450 1076 396 1076 q 525 1090 504 1076 q 546 1136 546 1104 l 546 1169 q 590 1203 546 1203 q 635 1158 635 1203 l 635 1136 q 587 1030 635 1067 q 450 993 539 993 m 519 1239 q 480 1251 497 1239 q 438 1285 463 1263 q 392 1315 407 1315 q 368 1306 378 1315 q 349 1272 358 1297 q 311 1242 336 1242 q 296 1244 307 1242 q 265 1278 265 1253 q 269 1297 265 1288 q 317 1373 290 1350 q 386 1396 344 1396 q 426 1384 407 1396 q 474 1347 444 1372 q 499 1327 486 1336 q 518 1318 511 1318 q 533 1325 528 1318 q 549 1351 539 1332 q 586 1383 561 1383 q 600 1382 594 1383 q 632 1349 632 1374 q 629 1331 632 1338 q 519 1239 593 1239 z "},"Â":{"ha":897,"x_min":51,"x_max":849,"o":"m 843 71 q 849 47 849 60 q 817 6 849 18 q 792 0 804 0 q 751 32 764 0 l 669 228 l 229 228 l 150 32 q 108 0 138 0 q 85 6 96 0 q 51 47 51 18 q 57 71 51 60 l 392 885 q 449 924 408 924 l 451 924 q 506 885 489 924 l 843 71 m 269 328 l 628 328 l 446 765 l 269 328 m 281 990 q 248 1004 261 990 q 235 1036 235 1018 q 240 1058 235 1047 q 256 1075 246 1068 l 388 1185 q 444 1206 413 1206 l 453 1206 q 510 1185 485 1206 l 642 1075 q 657 1058 651 1068 q 663 1036 663 1047 q 649 1004 663 1018 q 617 990 635 990 q 583 1004 597 990 l 451 1114 l 446 1114 l 314 1004 q 281 990 300 990 z "},"Ấ":{"ha":897,"x_min":51,"x_max":849,"o":"m 843 71 q 849 47 849 60 q 817 6 849 18 q 792 0 804 0 q 751 32 764 0 l 669 228 l 229 228 l 150 32 q 108 0 138 0 q 85 6 96 0 q 51 47 51 18 q 57 71 51 60 l 392 885 q 449 924 408 924 l 451 924 q 506 885 489 924 l 843 71 m 269 328 l 628 328 l 446 765 l 269 328 m 618 1133 q 585 1149 601 1133 q 569 1181 569 1164 q 583 1213 569 1197 l 656 1297 q 690 1315 672 1315 q 723 1300 707 1315 q 739 1268 739 1285 q 725 1236 739 1254 l 653 1151 q 618 1133 636 1133 m 282 990 q 249 1004 263 990 q 236 1036 236 1018 q 242 1058 236 1047 q 257 1075 247 1068 l 389 1185 q 446 1206 414 1206 l 454 1206 q 511 1185 486 1206 l 643 1075 q 658 1058 653 1068 q 664 1036 664 1047 q 650 1004 664 1018 q 618 990 636 990 q 585 1004 599 990 l 453 1114 l 447 1114 l 315 1004 q 282 990 301 990 z "},"Ậ":{"ha":897,"x_min":51,"x_max":849,"o":"m 843 71 q 849 47 849 60 q 817 6 849 18 q 792 0 804 0 q 751 32 764 0 l 669 228 l 229 228 l 150 32 q 108 0 138 0 q 85 6 96 0 q 51 47 51 18 q 57 71 51 60 l 392 885 q 449 924 408 924 l 451 924 q 506 885 489 924 l 843 71 m 269 328 l 628 328 l 446 765 l 269 328 m 435 -215 q 398 -202 411 -215 q 385 -165 385 -189 l 385 -133 q 435 -85 385 -85 l 465 -85 q 513 -133 513 -85 l 513 -165 q 500 -202 513 -189 q 465 -215 488 -215 l 435 -215 m 281 990 q 248 1004 261 990 q 235 1036 235 1018 q 240 1058 235 1047 q 256 1075 246 1068 l 388 1185 q 444 1206 413 1206 l 453 1206 q 510 1185 485 1206 l 642 1075 q 657 1058 651 1068 q 663 1036 663 1047 q 649 1004 663 1018 q 617 990 635 990 q 583 1004 597 990 l 451 1114 l 446 1114 l 314 1004 q 281 990 300 990 z "},"Ầ":{"ha":897,"x_min":51,"x_max":849,"o":"m 843 71 q 849 47 849 60 q 817 6 849 18 q 792 0 804 0 q 751 32 764 0 l 669 228 l 229 228 l 150 32 q 108 0 138 0 q 85 6 96 0 q 51 47 51 18 q 57 71 51 60 l 392 885 q 449 924 408 924 l 451 924 q 506 885 489 924 l 843 71 m 269 328 l 628 328 l 446 765 l 269 328 m 253 1133 q 218 1151 235 1133 l 146 1236 q 132 1268 132 1250 q 148 1300 132 1285 q 181 1315 164 1315 q 215 1297 199 1315 l 288 1213 q 301 1181 301 1197 q 285 1149 301 1164 q 253 1133 269 1133 m 283 990 q 251 1004 264 990 q 238 1036 238 1018 q 243 1058 238 1047 q 258 1075 249 1068 l 390 1185 q 447 1206 415 1206 l 456 1206 q 513 1185 488 1206 l 644 1075 q 660 1058 654 1068 q 665 1036 665 1047 q 651 1004 665 1018 q 619 990 638 990 q 586 1004 600 990 l 454 1114 l 449 1114 l 317 1004 q 283 990 303 990 z "},"Ẩ":{"ha":897,"x_min":51,"x_max":849,"o":"m 843 71 q 849 47 849 60 q 817 6 849 18 q 792 0 804 0 q 751 32 764 0 l 669 228 l 229 228 l 150 32 q 108 0 138 0 q 85 6 96 0 q 51 47 51 18 q 57 71 51 60 l 392 885 q 449 924 408 924 l 451 924 q 506 885 489 924 l 843 71 m 269 328 l 628 328 l 446 765 l 269 328 m 282 990 q 249 1004 263 990 q 236 1036 236 1018 q 242 1058 236 1047 q 257 1075 247 1068 l 389 1185 q 446 1206 414 1206 l 454 1206 q 511 1185 486 1206 l 643 1075 q 658 1058 653 1068 q 664 1036 664 1047 q 650 1004 664 1018 q 618 990 636 990 q 585 1004 599 990 l 453 1114 l 447 1114 l 315 1004 q 282 990 301 990 m 575 1183 q 547 1191 556 1183 q 539 1218 539 1199 q 558 1278 539 1257 q 606 1318 576 1300 q 630 1335 625 1329 q 635 1350 635 1340 q 625 1391 635 1381 q 585 1401 615 1401 q 544 1391 554 1401 q 535 1350 535 1381 q 526 1322 535 1331 q 499 1314 518 1314 q 471 1322 479 1314 q 463 1350 463 1331 q 585 1472 463 1472 q 707 1350 707 1472 q 689 1293 707 1314 q 643 1256 671 1272 q 617 1236 622 1243 q 611 1218 611 1229 q 603 1191 611 1199 q 575 1183 594 1183 z "},"Ẫ":{"ha":897,"x_min":51,"x_max":849,"o":"m 843 71 q 849 47 849 60 q 817 6 849 18 q 792 0 804 0 q 751 32 764 0 l 669 228 l 229 228 l 150 32 q 108 0 138 0 q 85 6 96 0 q 51 47 51 18 q 57 71 51 60 l 392 885 q 449 924 408 924 l 451 924 q 506 885 489 924 l 843 71 m 269 328 l 628 328 l 446 765 l 269 328 m 281 990 q 248 1004 261 990 q 235 1036 235 1018 q 240 1058 235 1047 q 256 1075 246 1068 l 388 1185 q 444 1206 413 1206 l 453 1206 q 510 1185 485 1206 l 642 1075 q 657 1058 651 1068 q 663 1036 663 1047 q 649 1004 663 1018 q 617 990 635 990 q 583 1004 597 990 l 451 1114 l 446 1114 l 314 1004 q 281 990 300 990 m 546 1244 q 484 1259 508 1244 q 435 1299 460 1274 q 406 1324 417 1318 q 379 1331 394 1331 q 347 1320 360 1331 q 322 1282 333 1310 q 286 1250 311 1250 q 269 1253 281 1250 q 239 1286 239 1261 q 243 1306 239 1296 q 298 1388 265 1363 q 379 1414 331 1414 q 443 1399 418 1414 q 494 1357 468 1383 q 522 1333 513 1339 q 546 1328 532 1328 q 573 1338 563 1328 q 593 1371 583 1347 q 631 1404 606 1404 q 644 1403 640 1404 q 676 1368 676 1396 q 674 1351 676 1357 q 624 1271 654 1297 q 546 1244 593 1244 z "},"Ȁ":{"ha":897,"x_min":51,"x_max":849,"o":"m 261 1154 q 250 1182 250 1165 q 265 1210 250 1199 q 293 1221 278 1221 q 322 1206 311 1221 l 419 1089 q 431 1061 431 1078 q 415 1033 431 1044 q 388 1022 403 1022 q 358 1038 369 1022 l 261 1154 m 419 1154 q 408 1182 408 1165 q 424 1210 408 1199 q 451 1221 436 1221 q 481 1206 469 1221 l 578 1089 q 589 1061 589 1078 q 574 1033 589 1044 q 546 1022 561 1022 q 517 1038 528 1022 l 419 1154 m 843 71 q 849 47 849 60 q 817 6 849 18 q 792 0 804 0 q 751 32 764 0 l 669 228 l 229 228 l 150 32 q 108 0 138 0 q 85 6 96 0 q 51 47 51 18 q 57 71 51 60 l 392 885 q 449 924 408 924 l 451 924 q 506 885 489 924 l 843 71 m 269 328 l 628 328 l 446 765 l 269 328 z "},"Ä":{"ha":897,"x_min":51,"x_max":849,"o":"m 843 71 q 849 47 849 60 q 817 6 849 18 q 792 0 804 0 q 751 32 764 0 l 669 228 l 229 228 l 150 32 q 108 0 138 0 q 85 6 96 0 q 51 47 51 18 q 57 71 51 60 l 392 885 q 449 924 408 924 l 451 924 q 506 885 489 924 l 843 71 m 269 328 l 628 328 l 446 765 l 269 328 m 325 1032 q 288 1045 301 1032 q 275 1082 275 1058 l 275 1114 q 325 1163 275 1163 l 356 1163 q 403 1114 403 1163 l 403 1082 q 390 1045 403 1058 q 356 1032 378 1032 l 325 1032 m 547 1032 q 510 1045 524 1032 q 497 1082 497 1058 l 497 1114 q 547 1163 497 1163 l 578 1163 q 625 1114 625 1163 l 625 1082 q 613 1045 625 1058 q 578 1032 600 1032 l 547 1032 z "},"Ạ":{"ha":897,"x_min":51,"x_max":849,"o":"m 843 71 q 849 47 849 60 q 817 6 849 18 q 792 0 804 0 q 751 32 764 0 l 669 228 l 229 228 l 150 32 q 108 0 138 0 q 85 6 96 0 q 51 47 51 18 q 57 71 51 60 l 392 885 q 449 924 408 924 l 451 924 q 506 885 489 924 l 843 71 m 269 328 l 628 328 l 446 765 l 269 328 m 435 -215 q 398 -202 411 -215 q 385 -165 385 -189 l 385 -133 q 435 -85 385 -85 l 465 -85 q 513 -133 513 -85 l 513 -165 q 500 -202 513 -189 q 465 -215 488 -215 l 435 -215 z "},"À":{"ha":897,"x_min":51,"x_max":849,"o":"m 843 71 q 849 47 849 60 q 817 6 849 18 q 792 0 804 0 q 751 32 764 0 l 669 228 l 229 228 l 150 32 q 108 0 138 0 q 85 6 96 0 q 51 47 51 18 q 57 71 51 60 l 392 885 q 449 924 408 924 l 451 924 q 506 885 489 924 l 843 71 m 269 328 l 628 328 l 446 765 l 269 328 m 504 992 q 474 979 489 979 q 442 997 456 979 l 333 1126 q 321 1157 321 1142 q 339 1189 321 1175 q 369 1201 353 1201 q 401 1183 388 1201 l 510 1054 q 522 1024 522 1040 q 504 992 522 1006 z "},"Ả":{"ha":897,"x_min":51,"x_max":849,"o":"m 843 71 q 849 47 849 60 q 817 6 849 18 q 792 0 804 0 q 751 32 764 0 l 669 228 l 229 228 l 150 32 q 108 0 138 0 q 85 6 96 0 q 51 47 51 18 q 57 71 51 60 l 392 885 q 449 924 408 924 l 451 924 q 506 885 489 924 l 843 71 m 269 328 l 628 328 l 446 765 l 269 328 m 450 999 q 422 1006 431 999 q 414 1033 414 1014 q 433 1094 414 1072 q 481 1133 451 1115 q 505 1150 500 1144 q 510 1165 510 1156 q 500 1206 510 1196 q 460 1217 490 1217 q 419 1206 429 1217 q 410 1165 410 1196 q 401 1138 410 1146 q 374 1129 393 1129 q 346 1138 354 1129 q 338 1165 338 1146 q 460 1288 338 1288 q 582 1165 582 1288 q 564 1108 582 1129 q 518 1071 546 1088 q 492 1051 497 1058 q 486 1033 486 1044 q 478 1006 486 1014 q 450 999 469 999 z "},"Ȃ":{"ha":897,"x_min":51,"x_max":849,"o":"m 843 71 q 849 47 849 60 q 817 6 849 18 q 792 0 804 0 q 751 32 764 0 l 669 228 l 229 228 l 150 32 q 108 0 138 0 q 85 6 96 0 q 51 47 51 18 q 57 71 51 60 l 392 885 q 449 924 408 924 l 451 924 q 506 885 489 924 l 843 71 m 269 328 l 628 328 l 446 765 l 269 328 m 450 1247 q 587 1210 539 1247 q 635 1104 635 1174 l 635 1082 q 590 1038 635 1038 q 546 1071 546 1038 l 546 1104 q 525 1150 546 1136 q 450 1164 504 1164 q 375 1150 396 1164 q 354 1104 354 1136 l 354 1082 q 310 1038 354 1038 q 265 1082 265 1038 l 265 1104 q 313 1210 265 1174 q 450 1247 361 1247 z "},"Ā":{"ha":897,"x_min":51,"x_max":849,"o":"m 843 71 q 849 47 849 60 q 817 6 849 18 q 792 0 804 0 q 751 32 764 0 l 669 228 l 229 228 l 150 32 q 108 0 138 0 q 85 6 96 0 q 51 47 51 18 q 57 71 51 60 l 392 885 q 449 924 408 924 l 451 924 q 506 885 489 924 l 843 71 m 269 328 l 628 328 l 446 765 l 269 328 m 269 1056 q 219 1106 219 1056 q 269 1156 219 1156 l 621 1156 q 671 1106 671 1156 q 621 1056 671 1056 l 269 1056 z "},"Ą":{"ha":897,"x_min":51,"x_max":949,"o":"m 904 -124 q 936 -137 924 -124 q 949 -168 949 -150 q 936 -200 949 -187 q 872 -244 907 -228 q 801 -260 836 -260 q 703 -224 743 -260 q 664 -135 664 -187 q 697 -44 664 -89 l 751 32 l 669 228 l 229 228 l 150 32 q 108 0 138 0 q 85 6 96 0 q 51 47 51 18 q 57 71 51 60 l 392 885 q 449 924 408 924 l 451 924 q 506 885 489 924 l 843 71 q 849 43 849 58 q 850 31 850 39 q 842 4 850 15 l 769 -97 q 753 -135 753 -118 q 766 -160 753 -150 q 801 -171 779 -171 q 872 -136 839 -171 q 904 -124 888 -124 m 269 328 l 628 328 l 446 765 l 269 328 z "},"Å":{"ha":897,"x_min":51,"x_max":849,"o":"m 843 71 q 849 47 849 60 q 817 6 849 18 q 792 0 804 0 q 751 32 764 0 l 669 228 l 229 228 l 150 32 q 108 0 138 0 q 85 6 96 0 q 51 47 51 18 q 57 71 51 60 l 392 885 q 449 924 408 924 l 451 924 q 506 885 489 924 l 843 71 m 269 328 l 628 328 l 446 765 l 269 328 m 450 999 q 372 1027 400 999 q 343 1106 343 1056 q 372 1184 343 1156 q 450 1213 400 1213 q 528 1184 500 1213 q 557 1106 557 1156 q 528 1027 557 1056 q 450 999 500 999 m 450 1072 q 478 1078 474 1072 q 483 1106 483 1083 q 478 1134 483 1129 q 450 1139 472 1139 q 422 1133 426 1139 q 417 1106 417 1128 q 422 1077 417 1082 q 450 1072 428 1072 z "},"Ǻ":{"ha":897,"x_min":51,"x_max":849,"o":"m 843 71 q 849 47 849 60 q 817 6 849 18 q 792 0 804 0 q 751 32 764 0 l 669 228 l 229 228 l 150 32 q 108 0 138 0 q 85 6 96 0 q 51 47 51 18 q 57 71 51 60 l 392 885 q 449 924 408 924 l 451 924 q 506 885 489 924 l 843 71 m 269 328 l 628 328 l 446 765 l 269 328 m 450 999 q 372 1027 400 999 q 343 1106 343 1056 q 372 1184 343 1156 q 450 1213 400 1213 q 528 1184 500 1213 q 557 1106 557 1156 q 528 1027 557 1056 q 450 999 500 999 m 450 1072 q 478 1078 474 1072 q 483 1106 483 1083 q 478 1134 483 1129 q 450 1139 472 1139 q 422 1133 426 1139 q 417 1106 417 1128 q 422 1077 417 1082 q 450 1072 428 1072 m 418 1290 q 400 1322 400 1304 q 413 1353 400 1339 l 521 1482 q 553 1500 535 1500 q 583 1488 568 1500 q 601 1456 601 1474 q 589 1425 601 1440 l 481 1296 q 449 1278 467 1278 q 418 1290 432 1278 z "},"Ã":{"ha":897,"x_min":51,"x_max":849,"o":"m 843 71 q 849 47 849 60 q 817 6 849 18 q 792 0 804 0 q 751 32 764 0 l 669 228 l 229 228 l 150 32 q 108 0 138 0 q 85 6 96 0 q 51 47 51 18 q 57 71 51 60 l 392 885 q 449 924 408 924 l 451 924 q 506 885 489 924 l 843 71 m 269 328 l 628 328 l 446 765 l 269 328 m 546 1014 q 484 1028 508 1014 q 435 1068 460 1043 q 406 1094 417 1088 q 379 1100 394 1100 q 347 1090 360 1100 q 322 1051 333 1079 q 286 1019 311 1019 q 269 1022 281 1019 q 239 1056 239 1031 q 243 1075 239 1065 q 298 1158 265 1132 q 379 1183 331 1183 q 443 1168 418 1183 q 494 1126 468 1153 q 522 1103 513 1108 q 546 1097 532 1097 q 573 1107 563 1097 q 593 1140 583 1117 q 631 1174 606 1174 q 644 1172 640 1174 q 676 1138 676 1165 q 674 1121 676 1126 q 624 1040 654 1067 q 546 1014 593 1014 z "},"Æ":{"ha":1178,"x_min":51,"x_max":1108,"o":"m 635 0 q 585 50 585 0 l 585 228 l 261 228 l 147 28 q 107 0 132 0 q 79 8 94 0 q 51 49 51 25 q 60 76 51 63 l 521 889 q 581 924 542 924 l 1058 924 q 1095 910 1082 924 q 1108 874 1108 897 q 1095 837 1108 850 q 1058 824 1082 824 l 685 824 l 685 517 l 894 517 q 931 503 918 517 q 944 467 944 490 q 931 430 944 443 q 894 417 918 417 l 685 417 l 685 100 l 1058 100 q 1095 87 1082 100 q 1108 50 1108 74 q 1095 13 1108 26 q 1058 0 1082 0 l 635 0 m 318 328 l 585 328 l 585 799 l 579 799 l 318 328 z "},"Ǽ":{"ha":1178,"x_min":51,"x_max":1108,"o":"m 635 0 q 585 50 585 0 l 585 228 l 261 228 l 147 28 q 107 0 132 0 q 79 8 94 0 q 51 49 51 25 q 60 76 51 63 l 521 889 q 581 924 542 924 l 1058 924 q 1095 910 1082 924 q 1108 874 1108 897 q 1095 837 1108 850 q 1058 824 1082 824 l 685 824 l 685 517 l 894 517 q 931 503 918 517 q 944 467 944 490 q 931 430 944 443 q 894 417 918 417 l 685 417 l 685 100 l 1058 100 q 1095 87 1082 100 q 1108 50 1108 74 q 1095 13 1108 26 q 1058 0 1082 0 l 635 0 m 318 328 l 585 328 l 585 799 l 579 799 l 318 328 m 701 1010 q 683 1042 683 1024 q 696 1072 683 1058 l 804 1201 q 836 1219 818 1219 q 867 1207 851 1219 q 885 1175 885 1193 q 872 1144 885 1160 l 764 1015 q 732 997 750 997 q 701 1010 715 997 z "},"B":{"ha":907,"x_min":139,"x_max":824,"o":"m 710 521 q 824 299 824 464 l 824 253 q 758 65 824 129 q 569 0 693 0 l 189 0 q 152 13 165 0 q 139 50 139 26 l 139 874 q 152 910 139 897 q 189 924 165 924 l 551 924 q 715 868 658 924 q 772 707 772 813 l 772 669 q 710 521 772 572 m 239 550 l 569 550 l 578 550 l 581 550 q 650 582 628 550 q 672 669 672 614 l 672 707 q 644 797 672 771 q 551 824 617 824 l 239 824 l 239 550 m 724 299 q 688 415 724 381 q 569 450 653 450 l 239 450 l 239 100 l 569 100 q 688 135 651 100 q 724 253 724 171 l 724 299 z "},"C":{"ha":950,"x_min":111,"x_max":856,"o":"m 414 0 q 185 74 258 0 q 111 303 111 147 l 111 621 q 184 851 111 778 q 413 924 257 925 l 581 924 q 776 870 710 924 q 853 700 843 817 q 842 662 856 675 q 804 649 829 649 q 753 699 760 649 q 708 797 746 769 q 581 824 669 824 l 413 824 q 292 806 336 825 q 230 743 249 788 q 211 621 211 699 l 211 303 q 230 181 211 225 q 292 119 249 138 q 414 100 336 100 l 581 100 q 708 127 669 100 q 753 225 746 154 q 804 275 760 275 q 842 262 829 275 q 853 224 856 249 q 776 53 843 107 q 581 0 710 0 l 414 0 z "},"Ć":{"ha":950,"x_min":111,"x_max":853,"o":"m 414 0 q 185 74 258 0 q 111 303 111 147 l 111 621 q 184 851 111 778 q 413 924 257 925 l 581 924 q 776 870 710 924 q 853 700 843 817 q 842 662 856 675 q 804 649 829 649 q 753 699 760 649 q 708 797 746 769 q 581 824 669 824 l 413 824 q 292 806 336 825 q 230 743 249 788 q 211 621 211 699 l 211 303 q 230 181 211 225 q 292 119 249 138 q 414 100 336 100 l 581 100 q 708 127 669 100 q 753 225 746 154 q 804 275 760 275 q 842 262 829 275 q 853 224 856 249 q 776 53 843 107 q 581 0 710 0 l 414 0 m 468 1010 q 450 1042 450 1024 q 463 1072 450 1058 l 571 1201 q 603 1219 585 1219 q 633 1207 618 1219 q 651 1175 651 1193 q 639 1144 651 1160 l 531 1015 q 499 997 517 997 q 468 1010 482 997 z "},"Č":{"ha":950,"x_min":111,"x_max":853,"o":"m 414 0 q 185 74 258 0 q 111 303 111 147 l 111 621 q 184 851 111 778 q 413 924 257 925 l 581 924 q 776 870 710 924 q 853 700 843 817 q 842 662 856 675 q 804 649 829 649 q 753 699 760 649 q 708 797 746 769 q 581 824 669 824 l 413 824 q 292 806 336 825 q 230 743 249 788 q 211 621 211 699 l 211 303 q 230 181 211 225 q 292 119 249 138 q 414 100 336 100 l 581 100 q 708 127 669 100 q 753 225 746 154 q 804 275 760 275 q 842 262 829 275 q 853 224 856 249 q 776 53 843 107 q 581 0 710 0 l 414 0 m 335 1206 q 368 1192 354 1206 l 500 1082 l 506 1082 l 638 1192 q 671 1206 651 1206 q 703 1192 689 1206 q 717 1160 717 1179 q 711 1138 717 1149 q 696 1121 706 1128 l 564 1011 q 507 990 539 990 l 499 990 q 442 1011 467 990 l 310 1121 q 294 1138 300 1128 q 289 1160 289 1149 q 302 1192 289 1179 q 335 1206 315 1206 z "},"Ç":{"ha":950,"x_min":111,"x_max":856,"o":"m 804 275 q 842 262 829 275 q 853 224 856 249 q 778 55 843 108 q 586 0 713 1 q 615 -25 592 -10 q 664 -69 644 -44 q 683 -135 683 -93 q 526 -292 683 -292 q 430 -259 463 -292 q 397 -162 397 -226 q 440 -119 397 -119 q 483 -162 483 -119 q 492 -198 483 -190 q 526 -206 500 -206 q 583 -192 569 -206 q 597 -135 597 -178 q 592 -117 597 -124 q 567 -96 586 -110 q 521 -56 539 -76 q 497 0 503 -36 l 414 0 q 185 74 258 0 q 111 303 111 147 l 111 621 q 184 851 111 778 q 413 924 257 925 l 581 924 q 776 870 710 924 q 853 700 843 817 q 842 662 856 675 q 804 649 829 649 q 753 699 760 649 q 708 797 746 769 q 581 824 669 824 l 413 824 q 292 806 336 825 q 230 743 249 788 q 211 621 211 699 l 211 303 q 230 181 211 225 q 292 119 249 138 q 414 100 336 100 l 581 100 q 708 127 669 100 q 753 225 746 154 q 804 275 760 275 z "},"Ĉ":{"ha":950,"x_min":111,"x_max":853,"o":"m 414 0 q 185 74 258 0 q 111 303 111 147 l 111 621 q 184 851 111 778 q 413 924 257 925 l 581 924 q 776 870 710 924 q 853 700 843 817 q 842 662 856 675 q 804 649 829 649 q 753 699 760 649 q 708 797 746 769 q 581 824 669 824 l 413 824 q 292 806 336 825 q 230 743 249 788 q 211 621 211 699 l 211 303 q 230 181 211 225 q 292 119 249 138 q 414 100 336 100 l 581 100 q 708 127 669 100 q 753 225 746 154 q 804 275 760 275 q 842 262 829 275 q 853 224 856 249 q 776 53 843 107 q 581 0 710 0 l 414 0 m 371 999 q 340 1011 353 999 q 328 1042 328 1024 q 339 1071 328 1057 l 443 1185 q 496 1208 465 1208 l 510 1208 q 563 1185 540 1208 l 667 1071 q 678 1042 678 1057 q 665 1011 678 1024 q 635 999 653 999 q 603 1013 615 999 l 510 1122 l 496 1122 l 403 1013 q 371 999 389 999 z "},"Ċ":{"ha":950,"x_min":111,"x_max":853,"o":"m 414 0 q 185 74 258 0 q 111 303 111 147 l 111 621 q 184 851 111 778 q 413 924 257 925 l 581 924 q 776 870 710 924 q 853 700 843 817 q 842 662 856 675 q 804 649 829 649 q 753 699 760 649 q 708 797 746 769 q 581 824 669 824 l 413 824 q 292 806 336 825 q 230 743 249 788 q 211 621 211 699 l 211 303 q 230 181 211 225 q 292 119 249 138 q 414 100 336 100 l 581 100 q 708 127 669 100 q 753 225 746 154 q 804 275 760 275 q 842 262 829 275 q 853 224 856 249 q 776 53 843 107 q 581 0 710 0 l 414 0 m 485 1042 q 440 1058 456 1042 q 425 1101 425 1074 l 425 1140 q 485 1197 425 1197 l 521 1197 q 563 1183 549 1197 q 578 1140 578 1168 l 578 1101 q 563 1058 578 1074 q 521 1042 547 1042 l 485 1042 z "},"D":{"ha":979,"x_min":139,"x_max":868,"o":"m 189 0 q 152 13 165 0 q 139 50 139 26 l 139 874 q 152 910 139 897 q 189 924 165 924 l 524 924 q 785 840 701 924 q 868 579 868 757 l 868 344 q 785 83 868 167 q 524 0 701 0 l 189 0 m 524 100 q 668 124 615 100 q 744 200 721 147 q 768 344 768 253 l 768 579 q 744 724 768 671 q 668 800 721 776 q 524 824 615 824 l 239 824 l 239 100 l 524 100 z "},"Ǳ":{"ha":1843,"x_min":139,"x_max":1774,"o":"m 189 0 q 152 13 165 0 q 139 50 139 26 l 139 874 q 152 910 139 897 q 189 924 165 924 l 524 924 q 785 840 701 924 q 868 579 868 757 l 868 344 q 785 83 868 167 q 524 0 701 0 l 189 0 m 524 100 q 668 124 615 100 q 744 200 721 147 q 768 344 768 253 l 768 579 q 744 724 768 671 q 668 800 721 776 q 524 824 615 824 l 239 824 l 239 100 l 524 100 m 1725 219 q 1763 206 1750 219 q 1774 167 1776 192 q 1705 42 1760 85 q 1557 0 1650 0 l 1058 0 q 1022 13 1035 0 q 1008 50 1008 26 q 1029 96 1008 67 l 1582 824 l 1208 824 q 1130 807 1157 824 q 1094 751 1103 790 q 1077 716 1089 728 q 1042 704 1065 704 q 1003 718 1017 704 q 993 757 989 732 q 1061 881 1007 839 q 1208 924 1115 924 l 1671 924 q 1721 874 1721 924 q 1701 825 1721 853 l 1150 100 l 1557 100 q 1637 117 1610 100 q 1672 172 1664 133 q 1690 208 1678 196 q 1725 219 1701 219 z "},"Ǆ":{"ha":1843,"x_min":139,"x_max":1774,"o":"m 189 0 q 152 13 165 0 q 139 50 139 26 l 139 874 q 152 910 139 897 q 189 924 165 924 l 524 924 q 785 840 701 924 q 868 579 868 757 l 868 344 q 785 83 868 167 q 524 0 701 0 l 189 0 m 524 100 q 668 124 615 100 q 744 200 721 147 q 768 344 768 253 l 768 579 q 744 724 768 671 q 668 800 721 776 q 524 824 615 824 l 239 824 l 239 100 l 524 100 m 1725 219 q 1763 206 1750 219 q 1774 167 1776 192 q 1705 42 1760 85 q 1557 0 1650 0 l 1058 0 q 1022 13 1035 0 q 1008 50 1008 26 q 1029 96 1008 67 l 1582 824 l 1208 824 q 1130 807 1157 824 q 1094 751 1103 790 q 1077 716 1089 728 q 1042 704 1065 704 q 1003 718 1017 704 q 993 757 989 732 q 1061 881 1007 839 q 1208 924 1115 924 l 1671 924 q 1721 874 1721 924 q 1701 825 1721 853 l 1150 100 l 1557 100 q 1637 117 1610 100 q 1672 172 1664 133 q 1690 208 1678 196 q 1725 219 1701 219 m 1207 1206 q 1240 1192 1226 1206 l 1372 1082 l 1378 1082 l 1510 1192 q 1543 1206 1524 1206 q 1575 1192 1561 1206 q 1589 1160 1589 1179 q 1583 1138 1589 1149 q 1568 1121 1578 1128 l 1436 1011 q 1379 990 1411 990 l 1371 990 q 1314 1011 1339 990 l 1182 1121 q 1167 1138 1172 1128 q 1161 1160 1161 1149 q 1174 1192 1161 1179 q 1207 1206 1188 1206 z "},"Ð":{"ha":979,"x_min":26,"x_max":868,"o":"m 524 924 q 785 840 701 924 q 868 579 868 757 l 868 344 q 785 83 868 167 q 524 0 701 0 l 189 0 q 152 13 165 0 q 139 50 139 26 l 139 419 l 69 419 q 26 463 26 419 q 69 506 26 506 l 139 506 l 139 874 q 152 910 139 897 q 189 924 165 924 l 524 924 m 768 579 q 744 724 768 671 q 668 800 721 776 q 524 824 615 824 l 239 824 l 239 506 l 432 506 q 475 463 475 506 q 432 419 475 419 l 239 419 l 239 100 l 524 100 q 668 124 615 100 q 744 200 721 147 q 768 344 768 253 l 768 579 z "},"Ď":{"ha":979,"x_min":139,"x_max":868,"o":"m 189 0 q 152 13 165 0 q 139 50 139 26 l 139 874 q 152 910 139 897 q 189 924 165 924 l 524 924 q 785 840 701 924 q 868 579 868 757 l 868 344 q 785 83 868 167 q 524 0 701 0 l 189 0 m 524 100 q 668 124 615 100 q 744 200 721 147 q 768 344 768 253 l 768 579 q 744 724 768 671 q 668 800 721 776 q 524 824 615 824 l 239 824 l 239 100 l 524 100 m 301 1206 q 335 1192 321 1206 l 467 1082 l 472 1082 l 604 1192 q 638 1206 618 1206 q 669 1192 656 1206 q 683 1160 683 1179 q 678 1138 683 1149 q 663 1121 672 1128 l 531 1011 q 474 990 506 990 l 465 990 q 408 1011 433 990 l 276 1121 q 261 1138 267 1128 q 256 1160 256 1149 q 269 1192 256 1179 q 301 1206 282 1206 z "},"Đ":{"ha":979,"x_min":26,"x_max":868,"o":"m 524 924 q 785 840 701 924 q 868 579 868 757 l 868 344 q 785 83 868 167 q 524 0 701 0 l 189 0 q 152 13 165 0 q 139 50 139 26 l 139 419 l 69 419 q 26 463 26 419 q 69 506 26 506 l 139 506 l 139 874 q 152 910 139 897 q 189 924 165 924 l 524 924 m 768 579 q 744 724 768 671 q 668 800 721 776 q 524 824 615 824 l 239 824 l 239 506 l 432 506 q 475 463 475 506 q 432 419 475 419 l 239 419 l 239 100 l 524 100 q 668 124 615 100 q 744 200 721 147 q 768 344 768 253 l 768 579 z "},"ǲ":{"ha":1638,"x_min":139,"x_max":1589,"o":"m 189 0 q 152 13 165 0 q 139 50 139 26 l 139 874 q 152 910 139 897 q 189 924 165 924 l 524 924 q 785 840 701 924 q 868 579 868 757 l 868 344 q 785 83 868 167 q 524 0 701 0 l 189 0 m 524 100 q 668 124 615 100 q 744 200 721 147 q 768 344 768 253 l 768 579 q 744 724 768 671 q 668 800 721 776 q 524 824 615 824 l 239 824 l 239 100 l 524 100 m 1539 192 q 1578 178 1564 192 q 1588 139 1592 164 q 1526 35 1574 71 q 1400 0 1479 0 l 1036 0 q 999 13 1013 0 q 986 50 986 26 q 1007 100 986 74 l 1397 586 l 1147 586 q 1086 577 1106 586 q 1060 543 1067 568 q 1042 506 1053 518 q 1008 494 1031 494 q 969 508 982 494 q 960 547 956 522 q 1017 652 971 618 q 1147 686 1064 686 l 1488 686 q 1538 636 1538 686 q 1515 585 1538 613 l 1128 101 l 1400 100 q 1458 110 1439 100 q 1486 144 1478 119 q 1506 181 1494 169 q 1539 192 1517 192 z "},"ǅ":{"ha":1638,"x_min":139,"x_max":1589,"o":"m 189 0 q 152 13 165 0 q 139 50 139 26 l 139 874 q 152 910 139 897 q 189 924 165 924 l 524 924 q 785 840 701 924 q 868 579 868 757 l 868 344 q 785 83 868 167 q 524 0 701 0 l 189 0 m 524 100 q 668 124 615 100 q 744 200 721 147 q 768 344 768 253 l 768 579 q 744 724 768 671 q 668 800 721 776 q 524 824 615 824 l 239 824 l 239 100 l 524 100 m 1539 192 q 1578 178 1564 192 q 1588 139 1592 164 q 1526 35 1574 71 q 1400 0 1479 0 l 1036 0 q 999 13 1013 0 q 986 50 986 26 q 1007 100 986 74 l 1397 586 l 1147 586 q 1086 577 1106 586 q 1060 543 1067 568 q 1042 506 1053 518 q 1008 494 1031 494 q 969 508 982 494 q 960 547 956 522 q 1017 652 971 618 q 1147 686 1064 686 l 1488 686 q 1538 636 1538 686 q 1515 585 1538 613 l 1128 101 l 1400 100 q 1458 110 1439 100 q 1486 144 1478 119 q 1506 181 1494 169 q 1539 192 1517 192 m 1114 968 q 1147 954 1133 968 l 1279 844 l 1285 844 l 1417 954 q 1450 968 1431 968 q 1482 955 1468 968 q 1496 922 1496 942 q 1490 901 1496 911 q 1475 883 1485 890 l 1343 774 q 1286 753 1318 753 l 1278 753 q 1221 774 1246 753 l 1089 883 q 1074 901 1079 890 q 1068 922 1068 911 q 1081 955 1068 942 q 1114 968 1094 968 z "},"E":{"ha":815,"x_min":139,"x_max":746,"o":"m 696 100 q 733 87 719 100 q 746 50 746 74 q 733 13 746 26 q 696 0 719 0 l 189 0 q 152 13 165 0 q 139 50 139 26 l 139 874 q 152 910 139 897 q 189 924 165 924 l 696 924 q 733 910 719 924 q 746 874 746 897 q 733 837 746 850 q 696 824 719 824 l 239 824 l 239 517 l 532 517 q 569 503 556 517 q 582 467 582 490 q 569 430 582 443 q 532 417 556 417 l 239 417 l 239 100 l 696 100 z "},"É":{"ha":815,"x_min":139,"x_max":746,"o":"m 696 100 q 733 87 719 100 q 746 50 746 74 q 733 13 746 26 q 696 0 719 0 l 189 0 q 152 13 165 0 q 139 50 139 26 l 139 874 q 152 910 139 897 q 189 924 165 924 l 696 924 q 733 910 719 924 q 746 874 746 897 q 733 837 746 850 q 696 824 719 824 l 239 824 l 239 517 l 532 517 q 569 503 556 517 q 582 467 582 490 q 569 430 582 443 q 532 417 556 417 l 239 417 l 239 100 l 696 100 m 431 1010 q 413 1042 413 1024 q 425 1072 413 1058 l 533 1201 q 565 1219 547 1219 q 596 1207 581 1219 q 614 1175 614 1193 q 601 1144 614 1160 l 493 1015 q 461 997 479 997 q 431 1010 444 997 z "},"Ĕ":{"ha":815,"x_min":139,"x_max":746,"o":"m 696 100 q 733 87 719 100 q 746 50 746 74 q 733 13 746 26 q 696 0 719 0 l 189 0 q 152 13 165 0 q 139 50 139 26 l 139 874 q 152 910 139 897 q 189 924 165 924 l 696 924 q 733 910 719 924 q 746 874 746 897 q 733 837 746 850 q 696 824 719 824 l 239 824 l 239 517 l 532 517 q 569 503 556 517 q 582 467 582 490 q 569 430 582 443 q 532 417 556 417 l 239 417 l 239 100 l 696 100 m 479 993 q 342 1030 390 993 q 294 1136 294 1067 l 294 1158 q 339 1203 294 1203 q 383 1158 383 1203 l 383 1136 q 404 1090 383 1104 q 479 1076 425 1076 q 554 1090 533 1076 q 575 1136 575 1104 l 575 1169 q 619 1203 575 1203 q 664 1158 664 1203 l 664 1136 q 616 1030 664 1067 q 479 993 568 993 z "},"Ě":{"ha":815,"x_min":139,"x_max":746,"o":"m 696 100 q 733 87 719 100 q 746 50 746 74 q 733 13 746 26 q 696 0 719 0 l 189 0 q 152 13 165 0 q 139 50 139 26 l 139 874 q 152 910 139 897 q 189 924 165 924 l 696 924 q 733 910 719 924 q 746 874 746 897 q 733 837 746 850 q 696 824 719 824 l 239 824 l 239 517 l 532 517 q 569 503 556 517 q 582 467 582 490 q 569 430 582 443 q 532 417 556 417 l 239 417 l 239 100 l 696 100 m 297 1206 q 331 1192 317 1206 l 463 1082 l 468 1082 l 600 1192 q 633 1206 614 1206 q 665 1192 651 1206 q 679 1160 679 1179 q 674 1138 679 1149 q 658 1121 668 1128 l 526 1011 q 469 990 501 990 l 461 990 q 404 1011 429 990 l 272 1121 q 257 1138 263 1128 q 251 1160 251 1149 q 265 1192 251 1179 q 297 1206 278 1206 z "},"Ê":{"ha":815,"x_min":139,"x_max":746,"o":"m 696 100 q 733 87 719 100 q 746 50 746 74 q 733 13 746 26 q 696 0 719 0 l 189 0 q 152 13 165 0 q 139 50 139 26 l 139 874 q 152 910 139 897 q 189 924 165 924 l 696 924 q 733 910 719 924 q 746 874 746 897 q 733 837 746 850 q 696 824 719 824 l 239 824 l 239 517 l 532 517 q 569 503 556 517 q 582 467 582 490 q 569 430 582 443 q 532 417 556 417 l 239 417 l 239 100 l 696 100 m 294 990 q 262 1004 275 990 q 249 1036 249 1018 q 254 1058 249 1047 q 269 1075 260 1068 l 401 1185 q 458 1206 426 1206 l 467 1206 q 524 1185 499 1206 l 656 1075 q 671 1058 665 1068 q 676 1036 676 1047 q 663 1004 676 1018 q 631 990 649 990 q 597 1004 611 990 l 465 1114 l 460 1114 l 328 1004 q 294 990 314 990 z "},"Ế":{"ha":815,"x_min":139,"x_max":753,"o":"m 696 100 q 733 87 719 100 q 746 50 746 74 q 733 13 746 26 q 696 0 719 0 l 189 0 q 152 13 165 0 q 139 50 139 26 l 139 874 q 152 910 139 897 q 189 924 165 924 l 696 924 q 733 910 719 924 q 746 874 746 897 q 733 837 746 850 q 696 824 719 824 l 239 824 l 239 517 l 532 517 q 569 503 556 517 q 582 467 582 490 q 569 430 582 443 q 532 417 556 417 l 239 417 l 239 100 l 696 100 m 632 1133 q 599 1149 615 1133 q 583 1181 583 1164 q 597 1213 583 1197 l 669 1297 q 704 1315 686 1315 q 737 1300 721 1315 q 753 1268 753 1285 q 739 1236 753 1254 l 667 1151 q 632 1133 650 1133 m 296 990 q 263 1004 276 990 q 250 1036 250 1018 q 256 1058 250 1047 q 271 1075 261 1068 l 403 1185 q 460 1206 428 1206 l 468 1206 q 525 1185 500 1206 l 657 1075 q 672 1058 667 1068 q 678 1036 678 1047 q 664 1004 678 1018 q 632 990 650 990 q 599 1004 613 990 l 467 1114 l 461 1114 l 329 1004 q 296 990 315 990 z "},"Ệ":{"ha":815,"x_min":139,"x_max":746,"o":"m 696 100 q 733 87 719 100 q 746 50 746 74 q 733 13 746 26 q 696 0 719 0 l 189 0 q 152 13 165 0 q 139 50 139 26 l 139 874 q 152 910 139 897 q 189 924 165 924 l 696 924 q 733 910 719 924 q 746 874 746 897 q 733 837 746 850 q 696 824 719 824 l 239 824 l 239 517 l 532 517 q 569 503 556 517 q 582 467 582 490 q 569 430 582 443 q 532 417 556 417 l 239 417 l 239 100 l 696 100 m 450 -215 q 413 -202 426 -215 q 400 -165 400 -189 l 400 -133 q 450 -85 400 -85 l 481 -85 q 528 -133 528 -85 l 528 -165 q 515 -202 528 -189 q 481 -215 503 -215 l 450 -215 m 294 990 q 262 1004 275 990 q 249 1036 249 1018 q 254 1058 249 1047 q 269 1075 260 1068 l 401 1185 q 458 1206 426 1206 l 467 1206 q 524 1185 499 1206 l 656 1075 q 671 1058 665 1068 q 676 1036 676 1047 q 663 1004 676 1018 q 631 990 649 990 q 597 1004 611 990 l 465 1114 l 460 1114 l 328 1004 q 294 990 314 990 z "},"Ề":{"ha":815,"x_min":139,"x_max":746,"o":"m 696 100 q 733 87 719 100 q 746 50 746 74 q 733 13 746 26 q 696 0 719 0 l 189 0 q 152 13 165 0 q 139 50 139 26 l 139 874 q 152 910 139 897 q 189 924 165 924 l 696 924 q 733 910 719 924 q 746 874 746 897 q 733 837 746 850 q 696 824 719 824 l 239 824 l 239 517 l 532 517 q 569 503 556 517 q 582 467 582 490 q 569 430 582 443 q 532 417 556 417 l 239 417 l 239 100 l 696 100 m 267 1133 q 232 1151 249 1133 l 160 1236 q 146 1268 146 1250 q 162 1300 146 1285 q 194 1315 178 1315 q 229 1297 213 1315 l 301 1213 q 315 1181 315 1197 q 299 1149 315 1164 q 267 1133 283 1133 m 297 990 q 265 1004 278 990 q 251 1036 251 1018 q 257 1058 251 1047 q 272 1075 263 1068 l 404 1185 q 461 1206 429 1206 l 469 1206 q 526 1185 501 1206 l 658 1075 q 674 1058 668 1068 q 679 1036 679 1047 q 665 1004 679 1018 q 633 990 651 990 q 600 1004 614 990 l 468 1114 l 463 1114 l 331 1004 q 297 990 317 990 z "},"Ể":{"ha":815,"x_min":139,"x_max":746,"o":"m 696 100 q 733 87 719 100 q 746 50 746 74 q 733 13 746 26 q 696 0 719 0 l 189 0 q 152 13 165 0 q 139 50 139 26 l 139 874 q 152 910 139 897 q 189 924 165 924 l 696 924 q 733 910 719 924 q 746 874 746 897 q 733 837 746 850 q 696 824 719 824 l 239 824 l 239 517 l 532 517 q 569 503 556 517 q 582 467 582 490 q 569 430 582 443 q 532 417 556 417 l 239 417 l 239 100 l 696 100 m 296 990 q 263 1004 276 990 q 250 1036 250 1018 q 256 1058 250 1047 q 271 1075 261 1068 l 403 1185 q 460 1206 428 1206 l 468 1206 q 525 1185 500 1206 l 657 1075 q 672 1058 667 1068 q 678 1036 678 1047 q 664 1004 678 1018 q 632 990 650 990 q 599 1004 613 990 l 467 1114 l 461 1114 l 329 1004 q 296 990 315 990 m 589 1183 q 561 1191 569 1183 q 553 1218 553 1199 q 572 1278 553 1257 q 619 1318 590 1300 q 644 1335 639 1329 q 649 1350 649 1340 q 639 1391 649 1381 q 599 1401 629 1401 q 558 1391 568 1401 q 549 1350 549 1381 q 540 1322 549 1331 q 513 1314 532 1314 q 485 1322 493 1314 q 476 1350 476 1331 q 599 1472 476 1472 q 721 1350 721 1472 q 703 1293 721 1314 q 657 1256 685 1272 q 631 1236 636 1243 q 625 1218 625 1229 q 617 1191 625 1199 q 589 1183 608 1183 z "},"Ễ":{"ha":815,"x_min":139,"x_max":746,"o":"m 696 100 q 733 87 719 100 q 746 50 746 74 q 733 13 746 26 q 696 0 719 0 l 189 0 q 152 13 165 0 q 139 50 139 26 l 139 874 q 152 910 139 897 q 189 924 165 924 l 696 924 q 733 910 719 924 q 746 874 746 897 q 733 837 746 850 q 696 824 719 824 l 239 824 l 239 517 l 532 517 q 569 503 556 517 q 582 467 582 490 q 569 430 582 443 q 532 417 556 417 l 239 417 l 239 100 l 696 100 m 294 990 q 262 1004 275 990 q 249 1036 249 1018 q 254 1058 249 1047 q 269 1075 260 1068 l 401 1185 q 458 1206 426 1206 l 467 1206 q 524 1185 499 1206 l 656 1075 q 671 1058 665 1068 q 676 1036 676 1047 q 663 1004 676 1018 q 631 990 649 990 q 597 1004 611 990 l 465 1114 l 460 1114 l 328 1004 q 294 990 314 990 m 560 1244 q 498 1259 522 1244 q 449 1299 474 1274 q 419 1324 431 1318 q 393 1331 408 1331 q 360 1320 374 1331 q 336 1282 347 1310 q 300 1250 325 1250 q 283 1253 294 1250 q 253 1286 253 1261 q 257 1306 253 1296 q 312 1388 279 1363 q 393 1414 344 1414 q 457 1399 432 1414 q 508 1357 482 1383 q 536 1333 526 1339 q 560 1328 546 1328 q 587 1338 576 1328 q 607 1371 597 1347 q 644 1404 619 1404 q 658 1403 654 1404 q 690 1368 690 1396 q 688 1351 690 1357 q 638 1271 668 1297 q 560 1244 607 1244 z "},"Ȅ":{"ha":815,"x_min":139,"x_max":746,"o":"m 275 1154 q 264 1182 264 1165 q 279 1210 264 1199 q 307 1221 292 1221 q 336 1206 325 1221 l 433 1089 q 444 1061 444 1078 q 429 1033 444 1044 q 401 1022 417 1022 q 372 1038 383 1022 l 275 1154 m 433 1154 q 422 1182 422 1165 q 438 1210 422 1199 q 465 1221 450 1221 q 494 1206 483 1221 l 592 1089 q 603 1061 603 1078 q 588 1033 603 1044 q 560 1022 575 1022 q 531 1038 542 1022 l 433 1154 m 696 100 q 733 87 719 100 q 746 50 746 74 q 733 13 746 26 q 696 0 719 0 l 189 0 q 152 13 165 0 q 139 50 139 26 l 139 874 q 152 910 139 897 q 189 924 165 924 l 696 924 q 733 910 719 924 q 746 874 746 897 q 733 837 746 850 q 696 824 719 824 l 239 824 l 239 517 l 532 517 q 569 503 556 517 q 582 467 582 490 q 569 430 582 443 q 532 417 556 417 l 239 417 l 239 100 l 696 100 z "},"Ë":{"ha":815,"x_min":139,"x_max":746,"o":"m 696 100 q 733 87 719 100 q 746 50 746 74 q 733 13 746 26 q 696 0 719 0 l 189 0 q 152 13 165 0 q 139 50 139 26 l 139 874 q 152 910 139 897 q 189 924 165 924 l 696 924 q 733 910 719 924 q 746 874 746 897 q 733 837 746 850 q 696 824 719 824 l 239 824 l 239 517 l 532 517 q 569 503 556 517 q 582 467 582 490 q 569 430 582 443 q 532 417 556 417 l 239 417 l 239 100 l 696 100 m 339 1032 q 302 1045 315 1032 q 289 1082 289 1058 l 289 1114 q 339 1163 289 1163 l 369 1163 q 417 1114 417 1163 l 417 1082 q 404 1045 417 1058 q 369 1032 392 1032 l 339 1032 m 561 1032 q 524 1045 538 1032 q 511 1082 511 1058 l 511 1114 q 561 1163 511 1163 l 592 1163 q 639 1114 639 1163 l 639 1082 q 626 1045 639 1058 q 592 1032 614 1032 l 561 1032 z "},"Ė":{"ha":815,"x_min":139,"x_max":746,"o":"m 696 100 q 733 87 719 100 q 746 50 746 74 q 733 13 746 26 q 696 0 719 0 l 189 0 q 152 13 165 0 q 139 50 139 26 l 139 874 q 152 910 139 897 q 189 924 165 924 l 696 924 q 733 910 719 924 q 746 874 746 897 q 733 837 746 850 q 696 824 719 824 l 239 824 l 239 517 l 532 517 q 569 503 556 517 q 582 467 582 490 q 569 430 582 443 q 532 417 556 417 l 239 417 l 239 100 l 696 100 m 447 1042 q 403 1058 418 1042 q 388 1101 388 1074 l 388 1140 q 447 1197 388 1197 l 483 1197 q 526 1183 511 1197 q 540 1140 540 1168 l 540 1101 q 525 1058 540 1074 q 483 1042 510 1042 l 447 1042 z "},"Ẹ":{"ha":815,"x_min":139,"x_max":746,"o":"m 696 100 q 733 87 719 100 q 746 50 746 74 q 733 13 746 26 q 696 0 719 0 l 189 0 q 152 13 165 0 q 139 50 139 26 l 139 874 q 152 910 139 897 q 189 924 165 924 l 696 924 q 733 910 719 924 q 746 874 746 897 q 733 837 746 850 q 696 824 719 824 l 239 824 l 239 517 l 532 517 q 569 503 556 517 q 582 467 582 490 q 569 430 582 443 q 532 417 556 417 l 239 417 l 239 100 l 696 100 m 450 -215 q 413 -202 426 -215 q 400 -165 400 -189 l 400 -133 q 450 -85 400 -85 l 481 -85 q 528 -133 528 -85 l 528 -165 q 515 -202 528 -189 q 481 -215 503 -215 l 450 -215 z "},"È":{"ha":815,"x_min":139,"x_max":746,"o":"m 696 100 q 733 87 719 100 q 746 50 746 74 q 733 13 746 26 q 696 0 719 0 l 189 0 q 152 13 165 0 q 139 50 139 26 l 139 874 q 152 910 139 897 q 189 924 165 924 l 696 924 q 733 910 719 924 q 746 874 746 897 q 733 837 746 850 q 696 824 719 824 l 239 824 l 239 517 l 532 517 q 569 503 556 517 q 582 467 582 490 q 569 430 582 443 q 532 417 556 417 l 239 417 l 239 100 l 696 100 m 518 992 q 488 979 503 979 q 456 997 469 979 l 347 1126 q 335 1157 335 1142 q 353 1189 335 1175 q 383 1201 367 1201 q 415 1183 401 1201 l 524 1054 q 536 1024 536 1040 q 518 992 536 1006 z "},"Ẻ":{"ha":815,"x_min":139,"x_max":746,"o":"m 696 100 q 733 87 719 100 q 746 50 746 74 q 733 13 746 26 q 696 0 719 0 l 189 0 q 152 13 165 0 q 139 50 139 26 l 139 874 q 152 910 139 897 q 189 924 165 924 l 696 924 q 733 910 719 924 q 746 874 746 897 q 733 837 746 850 q 696 824 719 824 l 239 824 l 239 517 l 532 517 q 569 503 556 517 q 582 467 582 490 q 569 430 582 443 q 532 417 556 417 l 239 417 l 239 100 l 696 100 m 464 999 q 436 1006 444 999 q 428 1033 428 1014 q 447 1094 428 1072 q 494 1133 465 1115 q 519 1150 514 1144 q 524 1165 524 1156 q 514 1206 524 1196 q 474 1217 504 1217 q 433 1206 443 1217 q 424 1165 424 1196 q 415 1138 424 1146 q 388 1129 407 1129 q 360 1138 368 1129 q 351 1165 351 1146 q 474 1288 351 1288 q 596 1165 596 1288 q 578 1108 596 1129 q 532 1071 560 1088 q 506 1051 511 1058 q 500 1033 500 1044 q 492 1006 500 1014 q 464 999 483 999 z "},"Ȇ":{"ha":815,"x_min":139,"x_max":746,"o":"m 696 100 q 733 87 719 100 q 746 50 746 74 q 733 13 746 26 q 696 0 719 0 l 189 0 q 152 13 165 0 q 139 50 139 26 l 139 874 q 152 910 139 897 q 189 924 165 924 l 696 924 q 733 910 719 924 q 746 874 746 897 q 733 837 746 850 q 696 824 719 824 l 239 824 l 239 517 l 532 517 q 569 503 556 517 q 582 467 582 490 q 569 430 582 443 q 532 417 556 417 l 239 417 l 239 100 l 696 100 m 464 1247 q 601 1210 553 1247 q 649 1104 649 1174 l 649 1082 q 604 1038 649 1038 q 560 1071 560 1038 l 560 1104 q 539 1150 560 1136 q 464 1164 518 1164 q 389 1150 410 1164 q 368 1104 368 1136 l 368 1082 q 324 1038 368 1038 q 279 1082 279 1038 l 279 1104 q 327 1210 279 1174 q 464 1247 375 1247 z "},"Ē":{"ha":815,"x_min":139,"x_max":746,"o":"m 696 100 q 733 87 719 100 q 746 50 746 74 q 733 13 746 26 q 696 0 719 0 l 189 0 q 152 13 165 0 q 139 50 139 26 l 139 874 q 152 910 139 897 q 189 924 165 924 l 696 924 q 733 910 719 924 q 746 874 746 897 q 733 837 746 850 q 696 824 719 824 l 239 824 l 239 517 l 532 517 q 569 503 556 517 q 582 467 582 490 q 569 430 582 443 q 532 417 556 417 l 239 417 l 239 100 l 696 100 m 283 1056 q 233 1106 233 1056 q 283 1156 233 1156 l 635 1156 q 685 1106 685 1156 q 635 1056 685 1056 l 283 1056 z "},"Ę":{"ha":815,"x_min":139,"x_max":867,"o":"m 822 -83 q 854 -97 842 -83 q 867 -128 867 -110 q 854 -160 867 -147 q 790 -203 825 -187 q 719 -219 754 -219 q 622 -183 661 -219 q 582 -94 582 -147 q 615 -4 582 -49 l 618 0 l 189 0 q 152 13 165 0 q 139 50 139 26 l 139 874 q 152 910 139 897 q 189 924 165 924 l 696 924 q 733 910 719 924 q 746 874 746 897 q 733 837 746 850 q 696 824 719 824 l 239 824 l 239 517 l 532 517 q 569 503 556 517 q 582 467 582 490 q 569 430 582 443 q 532 417 556 417 l 239 417 l 239 100 l 690 100 q 724 115 703 115 q 756 103 743 115 q 768 71 768 90 q 760 44 768 56 l 688 -57 q 671 -94 671 -78 q 684 -120 671 -110 q 719 -131 697 -131 q 790 -96 757 -131 q 822 -83 806 -83 z "},"Ẽ":{"ha":815,"x_min":139,"x_max":746,"o":"m 696 100 q 733 87 719 100 q 746 50 746 74 q 733 13 746 26 q 696 0 719 0 l 189 0 q 152 13 165 0 q 139 50 139 26 l 139 874 q 152 910 139 897 q 189 924 165 924 l 696 924 q 733 910 719 924 q 746 874 746 897 q 733 837 746 850 q 696 824 719 824 l 239 824 l 239 517 l 532 517 q 569 503 556 517 q 582 467 582 490 q 569 430 582 443 q 532 417 556 417 l 239 417 l 239 100 l 696 100 m 560 1014 q 498 1028 522 1014 q 449 1068 474 1043 q 419 1094 431 1088 q 393 1100 408 1100 q 360 1090 374 1100 q 336 1051 347 1079 q 300 1019 325 1019 q 283 1022 294 1019 q 253 1056 253 1031 q 257 1075 253 1065 q 312 1158 279 1132 q 393 1183 344 1183 q 457 1168 432 1183 q 508 1126 482 1153 q 536 1103 526 1108 q 560 1097 546 1097 q 587 1107 576 1097 q 607 1140 597 1117 q 644 1174 619 1174 q 658 1172 654 1174 q 690 1138 690 1165 q 688 1121 690 1126 q 638 1040 668 1067 q 560 1014 607 1014 z "},"F":{"ha":746,"x_min":139,"x_max":746,"o":"m 189 0 q 152 13 165 0 q 139 50 139 26 l 139 874 q 152 910 139 897 q 189 924 165 924 l 696 924 q 733 910 719 924 q 746 874 746 897 q 733 837 746 850 q 696 824 719 824 l 239 824 l 239 517 l 532 517 q 569 503 556 517 q 582 467 582 490 q 569 430 582 443 q 532 417 556 417 l 239 417 l 239 50 q 226 13 239 26 q 189 0 213 0 z "},"G":{"ha":953,"x_min":111,"x_max":856,"o":"m 414 0 q 185 74 258 0 q 111 303 111 147 l 111 621 q 184 851 111 778 q 413 924 257 925 l 581 924 q 776 870 710 924 q 853 700 843 817 q 842 662 856 675 q 804 649 829 649 q 753 699 760 649 q 708 797 746 769 q 581 824 669 824 l 413 824 q 292 806 336 825 q 230 743 249 788 q 211 621 211 699 l 211 303 q 230 181 211 225 q 292 119 249 138 q 414 100 336 100 l 581 100 q 687 115 650 100 q 740 168 724 131 q 756 275 756 206 l 756 349 l 631 350 q 581 400 581 350 q 594 437 581 424 q 631 450 607 450 l 806 449 q 842 435 829 449 q 856 399 856 422 l 856 275 q 790 66 856 132 q 581 0 724 0 l 414 0 z "},"Ğ":{"ha":953,"x_min":111,"x_max":856,"o":"m 414 0 q 185 74 258 0 q 111 303 111 147 l 111 621 q 184 851 111 778 q 413 924 257 925 l 581 924 q 776 870 710 924 q 853 700 843 817 q 842 662 856 675 q 804 649 829 649 q 753 699 760 649 q 708 797 746 769 q 581 824 669 824 l 413 824 q 292 806 336 825 q 230 743 249 788 q 211 621 211 699 l 211 303 q 230 181 211 225 q 292 119 249 138 q 414 100 336 100 l 581 100 q 687 115 650 100 q 740 168 724 131 q 756 275 756 206 l 756 349 l 631 350 q 581 400 581 350 q 594 437 581 424 q 631 450 607 450 l 806 449 q 842 435 829 449 q 856 399 856 422 l 856 275 q 790 66 856 132 q 581 0 724 0 l 414 0 m 510 993 q 373 1030 421 993 q 325 1136 325 1067 l 325 1158 q 369 1203 325 1203 q 414 1158 414 1203 l 414 1136 q 435 1090 414 1104 q 510 1076 456 1076 q 585 1090 564 1076 q 606 1136 606 1104 l 606 1169 q 650 1203 606 1203 q 694 1158 694 1203 l 694 1136 q 647 1030 694 1067 q 510 993 599 993 z "},"Ǧ":{"ha":953,"x_min":111,"x_max":856,"o":"m 414 0 q 185 74 258 0 q 111 303 111 147 l 111 621 q 184 851 111 778 q 413 924 257 925 l 581 924 q 776 870 710 924 q 853 700 843 817 q 842 662 856 675 q 804 649 829 649 q 753 699 760 649 q 708 797 746 769 q 581 824 669 824 l 413 824 q 292 806 336 825 q 230 743 249 788 q 211 621 211 699 l 211 303 q 230 181 211 225 q 292 119 249 138 q 414 100 336 100 l 581 100 q 687 115 650 100 q 740 168 724 131 q 756 275 756 206 l 756 349 l 631 350 q 581 400 581 350 q 594 437 581 424 q 631 450 607 450 l 806 449 q 842 435 829 449 q 856 399 856 422 l 856 275 q 790 66 856 132 q 581 0 724 0 l 414 0 m 361 1208 q 393 1194 379 1208 l 486 1085 l 500 1085 l 593 1194 q 625 1208 606 1208 q 656 1196 643 1208 q 668 1165 668 1183 q 657 1136 668 1150 l 553 1022 q 500 999 531 999 l 486 999 q 433 1022 456 999 l 329 1136 q 318 1165 318 1150 q 331 1196 318 1183 q 361 1208 343 1208 z "},"Ĝ":{"ha":953,"x_min":111,"x_max":856,"o":"m 414 0 q 185 74 258 0 q 111 303 111 147 l 111 621 q 184 851 111 778 q 413 924 257 925 l 581 924 q 776 870 710 924 q 853 700 843 817 q 842 662 856 675 q 804 649 829 649 q 753 699 760 649 q 708 797 746 769 q 581 824 669 824 l 413 824 q 292 806 336 825 q 230 743 249 788 q 211 621 211 699 l 211 303 q 230 181 211 225 q 292 119 249 138 q 414 100 336 100 l 581 100 q 687 115 650 100 q 740 168 724 131 q 756 275 756 206 l 756 349 l 631 350 q 581 400 581 350 q 594 437 581 424 q 631 450 607 450 l 806 449 q 842 435 829 449 q 856 399 856 422 l 856 275 q 790 66 856 132 q 581 0 724 0 l 414 0 m 364 999 q 333 1011 346 999 q 321 1042 321 1024 q 332 1071 321 1057 l 436 1185 q 489 1208 458 1208 l 503 1208 q 556 1185 533 1208 l 660 1071 q 671 1042 671 1057 q 658 1011 671 1024 q 628 999 646 999 q 596 1013 608 999 l 503 1122 l 489 1122 l 396 1013 q 364 999 382 999 z "},"Ģ":{"ha":953,"x_min":111,"x_max":856,"o":"m 414 0 q 185 74 258 0 q 111 303 111 147 l 111 621 q 184 851 111 778 q 413 924 257 925 l 581 924 q 776 870 710 924 q 853 700 843 817 q 842 662 856 675 q 804 649 829 649 q 753 699 760 649 q 708 797 746 769 q 581 824 669 824 l 413 824 q 292 806 336 825 q 230 743 249 788 q 211 621 211 699 l 211 303 q 230 181 211 225 q 292 119 249 138 q 414 100 336 100 l 581 100 q 687 115 650 100 q 740 168 724 131 q 756 275 756 206 l 756 349 l 631 350 q 581 400 581 350 q 594 437 581 424 q 631 450 607 450 l 806 449 q 842 435 829 449 q 856 399 856 422 l 856 275 q 790 66 856 132 q 581 0 724 0 l 414 0 m 583 -133 q 576 -158 583 -149 l 518 -282 q 486 -304 506 -304 q 459 -295 469 -304 q 451 -269 449 -286 l 481 -106 q 521 -69 483 -69 l 544 -69 q 583 -108 583 -69 l 583 -133 z "},"Ġ":{"ha":953,"x_min":111,"x_max":856,"o":"m 414 0 q 185 74 258 0 q 111 303 111 147 l 111 621 q 184 851 111 778 q 413 924 257 925 l 581 924 q 776 870 710 924 q 853 700 843 817 q 842 662 856 675 q 804 649 829 649 q 753 699 760 649 q 708 797 746 769 q 581 824 669 824 l 413 824 q 292 806 336 825 q 230 743 249 788 q 211 621 211 699 l 211 303 q 230 181 211 225 q 292 119 249 138 q 414 100 336 100 l 581 100 q 687 115 650 100 q 740 168 724 131 q 756 275 756 206 l 756 349 l 631 350 q 581 400 581 350 q 594 437 581 424 q 631 450 607 450 l 806 449 q 842 435 829 449 q 856 399 856 422 l 856 275 q 790 66 856 132 q 581 0 724 0 l 414 0 m 478 1042 q 433 1058 449 1042 q 418 1101 418 1074 l 418 1140 q 478 1197 418 1197 l 514 1197 q 556 1183 542 1197 q 571 1140 571 1168 l 571 1101 q 556 1058 571 1074 q 514 1042 540 1042 l 478 1042 z "},"H":{"ha":1050,"x_min":139,"x_max":911,"o":"m 189 0 q 153 15 168 0 q 139 50 139 29 l 139 874 q 153 909 139 894 q 189 924 168 924 q 224 909 210 924 q 239 874 239 894 l 239 518 l 811 518 l 811 874 q 826 909 811 894 q 861 924 840 924 q 897 909 882 924 q 911 874 911 894 l 911 50 q 897 15 911 29 q 861 0 882 0 q 826 15 840 0 q 811 50 811 29 l 811 418 l 239 418 l 239 50 q 224 15 239 29 q 189 0 210 0 z "},"Ħ":{"ha":1050,"x_min":56,"x_max":993,"o":"m 953 731 q 993 690 993 731 q 953 650 993 650 l 911 650 l 911 50 q 897 15 911 29 q 861 0 882 0 q 826 15 840 0 q 811 50 811 29 l 811 418 l 239 418 l 239 50 q 224 15 239 29 q 189 0 210 0 q 153 15 168 0 q 139 50 139 29 l 139 650 l 96 650 q 56 690 56 650 q 96 731 56 731 l 139 731 l 139 874 q 153 909 139 894 q 189 924 168 924 q 224 909 210 924 q 239 874 239 894 l 239 731 l 811 731 l 811 874 q 826 909 811 894 q 861 924 840 924 q 897 909 882 924 q 911 874 911 894 l 911 731 l 953 731 m 811 518 l 811 650 l 239 650 l 239 518 l 811 518 z "},"Ĥ":{"ha":1050,"x_min":139,"x_max":911,"o":"m 189 0 q 153 15 168 0 q 139 50 139 29 l 139 874 q 153 909 139 894 q 189 924 168 924 q 224 909 210 924 q 239 874 239 894 l 239 518 l 811 518 l 811 874 q 826 909 811 894 q 861 924 840 924 q 897 909 882 924 q 911 874 911 894 l 911 50 q 897 15 911 29 q 861 0 882 0 q 826 15 840 0 q 811 50 811 29 l 811 418 l 239 418 l 239 50 q 224 15 239 29 q 189 0 210 0 m 394 999 q 364 1011 376 999 q 351 1042 351 1024 q 363 1071 351 1057 l 467 1185 q 519 1208 489 1208 l 533 1208 q 586 1185 564 1208 l 690 1071 q 701 1042 701 1057 q 689 1011 701 1024 q 658 999 676 999 q 626 1013 639 999 l 533 1122 l 519 1122 l 426 1013 q 394 999 413 999 z "},"I":{"ha":378,"x_min":139,"x_max":239,"o":"m 189 0 q 139 50 139 0 l 139 874 q 189 924 139 924 q 239 874 239 924 l 239 50 q 189 0 239 0 z "},"Í":{"ha":378,"x_min":138,"x_max":339,"o":"m 189 0 q 139 50 139 0 l 139 874 q 189 924 139 924 q 239 874 239 924 l 239 50 q 189 0 239 0 m 156 1010 q 138 1042 138 1024 q 150 1072 138 1058 l 258 1201 q 290 1219 272 1219 q 321 1207 306 1219 q 339 1175 339 1193 q 326 1144 339 1160 l 218 1015 q 186 997 204 997 q 156 1010 169 997 z "},"Ĭ":{"ha":378,"x_min":19,"x_max":389,"o":"m 189 0 q 139 50 139 0 l 139 874 q 189 924 139 924 q 239 874 239 924 l 239 50 q 189 0 239 0 m 204 993 q 67 1030 115 993 q 19 1136 19 1067 l 19 1158 q 64 1203 19 1203 q 108 1158 108 1203 l 108 1136 q 129 1090 108 1104 q 204 1076 150 1076 q 279 1090 258 1076 q 300 1136 300 1104 l 300 1169 q 344 1203 300 1203 q 389 1158 389 1203 l 389 1136 q 341 1030 389 1067 q 204 993 293 993 z "},"Î":{"ha":378,"x_min":15,"x_max":365,"o":"m 189 0 q 139 50 139 0 l 139 874 q 189 924 139 924 q 239 874 239 924 l 239 50 q 189 0 239 0 m 58 999 q 28 1011 40 999 q 15 1042 15 1024 q 26 1071 15 1057 l 131 1185 q 183 1208 153 1208 l 197 1208 q 250 1185 228 1208 l 354 1071 q 365 1042 365 1057 q 353 1011 365 1024 q 322 999 340 999 q 290 1013 303 999 l 197 1122 l 183 1122 l 90 1013 q 58 999 76 999 z "},"Ȉ":{"ha":378,"x_min":-11,"x_max":328,"o":"m 154 1033 q 126 1022 142 1022 q 97 1038 108 1022 l 0 1154 q -11 1182 -11 1165 q 4 1210 -11 1199 q 32 1221 17 1221 q 61 1206 50 1221 l 158 1089 q 169 1061 169 1078 q 154 1033 169 1044 m 313 1033 q 285 1022 300 1022 q 256 1038 267 1022 l 158 1154 q 147 1182 147 1165 q 163 1210 147 1199 q 190 1221 175 1221 q 219 1206 208 1221 l 317 1089 q 328 1061 328 1078 q 313 1033 328 1044 m 189 0 q 139 50 139 0 l 139 874 q 189 924 139 924 q 239 874 239 924 l 239 50 q 189 0 239 0 z "},"Ï":{"ha":378,"x_min":14,"x_max":364,"o":"m 189 0 q 139 50 139 0 l 139 874 q 189 924 139 924 q 239 874 239 924 l 239 50 q 189 0 239 0 m 64 1032 q 27 1045 40 1032 q 14 1082 14 1058 l 14 1114 q 64 1163 14 1163 l 94 1163 q 142 1114 142 1163 l 142 1082 q 129 1045 142 1058 q 94 1032 117 1032 l 64 1032 m 286 1032 q 249 1045 263 1032 q 236 1082 236 1058 l 236 1114 q 286 1163 236 1163 l 317 1163 q 364 1114 364 1163 l 364 1082 q 351 1045 364 1058 q 317 1032 339 1032 l 286 1032 z "},"İ":{"ha":378,"x_min":113,"x_max":265,"o":"m 189 0 q 139 50 139 0 l 139 874 q 189 924 139 924 q 239 874 239 924 l 239 50 q 189 0 239 0 m 172 1042 q 128 1058 143 1042 q 113 1101 113 1074 l 113 1140 q 172 1197 113 1197 l 208 1197 q 251 1183 236 1197 q 265 1140 265 1168 l 265 1101 q 250 1058 265 1074 q 208 1042 235 1042 l 172 1042 z "},"Ị":{"ha":378,"x_min":125,"x_max":253,"o":"m 189 0 q 139 50 139 0 l 139 874 q 189 924 139 924 q 239 874 239 924 l 239 50 q 189 0 239 0 m 175 -215 q 138 -202 151 -215 q 125 -165 125 -189 l 125 -133 q 175 -85 125 -85 l 206 -85 q 253 -133 253 -85 l 253 -165 q 240 -202 253 -189 q 206 -215 228 -215 l 175 -215 z "},"Ì":{"ha":378,"x_min":60,"x_max":261,"o":"m 189 0 q 139 50 139 0 l 139 874 q 189 924 139 924 q 239 874 239 924 l 239 50 q 189 0 239 0 m 243 992 q 213 979 228 979 q 181 997 194 979 l 72 1126 q 60 1157 60 1142 q 78 1189 60 1175 q 108 1201 92 1201 q 140 1183 126 1201 l 249 1054 q 261 1024 261 1040 q 243 992 261 1006 z "},"Ỉ":{"ha":378,"x_min":76,"x_max":321,"o":"m 189 0 q 139 50 139 0 l 139 874 q 189 924 139 924 q 239 874 239 924 l 239 50 q 189 0 239 0 m 189 999 q 161 1006 169 999 q 153 1033 153 1014 q 172 1094 153 1072 q 219 1133 190 1115 q 244 1150 239 1144 q 249 1165 249 1156 q 239 1206 249 1196 q 199 1217 229 1217 q 158 1206 168 1217 q 149 1165 149 1196 q 140 1138 149 1146 q 113 1129 132 1129 q 85 1138 93 1129 q 76 1165 76 1146 q 199 1288 76 1288 q 321 1165 321 1288 q 303 1108 321 1129 q 257 1071 285 1088 q 231 1051 236 1058 q 225 1033 225 1044 q 217 1006 225 1014 q 189 999 208 999 z "},"Ȋ":{"ha":378,"x_min":4,"x_max":374,"o":"m 189 0 q 139 50 139 0 l 139 874 q 189 924 139 924 q 239 874 239 924 l 239 50 q 189 0 239 0 m 189 1247 q 326 1210 278 1247 q 374 1104 374 1174 l 374 1082 q 329 1038 374 1038 q 285 1071 285 1038 l 285 1104 q 264 1150 285 1136 q 189 1164 243 1164 q 114 1150 135 1164 q 93 1104 93 1136 l 93 1082 q 49 1038 93 1038 q 4 1082 4 1038 l 4 1104 q 52 1210 4 1174 q 189 1247 100 1247 z "},"Ī":{"ha":378,"x_min":39,"x_max":340,"o":"m 189 0 q 139 50 139 0 l 139 874 q 189 924 139 924 q 239 874 239 924 l 239 50 q 189 0 239 0 m 88 1057 q 39 1106 39 1057 q 88 1154 39 1154 l 292 1154 q 340 1106 340 1154 q 292 1057 340 1057 l 88 1057 z "},"Į":{"ha":378,"x_min":47,"x_max":332,"o":"m 288 -117 q 319 -130 307 -117 q 332 -161 332 -143 q 319 -193 332 -181 q 255 -237 290 -221 q 185 -253 219 -253 q 87 -217 126 -253 q 47 -128 47 -181 q 81 -37 47 -82 l 139 44 l 139 50 l 139 874 q 189 924 139 924 q 239 874 239 924 l 239 50 q 225 11 239 24 l 153 -90 q 136 -128 136 -111 q 149 -153 136 -143 q 185 -164 163 -164 q 256 -129 222 -164 q 288 -117 271 -117 z "},"Ĩ":{"ha":378,"x_min":7,"x_max":374,"o":"m 189 0 q 139 50 139 0 l 139 874 q 189 924 139 924 q 239 874 239 924 l 239 50 q 189 0 239 0 m 261 1018 q 222 1030 239 1018 q 179 1064 204 1042 q 133 1094 149 1094 q 110 1085 119 1094 q 90 1051 100 1076 q 53 1021 78 1021 q 38 1024 49 1021 q 7 1057 7 1032 q 11 1076 7 1067 q 59 1152 32 1129 q 128 1175 86 1175 q 167 1163 149 1175 q 215 1126 186 1151 q 240 1106 228 1115 q 260 1097 253 1097 q 275 1104 269 1097 q 290 1131 281 1111 q 328 1163 303 1163 q 342 1161 336 1163 q 374 1128 374 1153 q 371 1110 374 1117 q 261 1018 335 1018 z "},"J":{"ha":808,"x_min":40,"x_max":683,"o":"m 315 0 q 119 53 185 0 q 42 224 53 107 q 53 262 40 249 q 90 275 65 275 q 142 225 138 275 q 188 127 150 154 q 315 100 226 100 l 408 100 q 515 115 478 100 q 567 168 551 131 q 583 275 583 206 l 583 874 q 633 924 583 924 q 670 910 657 924 q 683 874 683 897 l 683 275 q 617 66 683 132 q 408 0 551 0 l 315 0 z "},"Ĵ":{"ha":808,"x_min":42,"x_max":810,"o":"m 315 0 q 119 53 185 0 q 42 224 53 107 q 53 262 40 249 q 90 275 65 275 q 142 225 138 275 q 188 127 150 154 q 315 100 226 100 l 408 100 q 515 115 478 100 q 567 168 551 131 q 583 275 583 206 l 583 874 q 633 924 583 924 q 670 910 657 924 q 683 874 683 897 l 683 275 q 617 66 683 132 q 408 0 551 0 l 315 0 m 503 999 q 472 1011 485 999 q 460 1042 460 1024 q 471 1071 460 1057 l 575 1185 q 628 1208 597 1208 l 642 1208 q 694 1185 672 1208 l 799 1071 q 810 1042 810 1057 q 797 1011 810 1024 q 767 999 785 999 q 735 1013 747 999 l 642 1122 l 628 1122 l 535 1013 q 503 999 521 999 z "},"K":{"ha":796,"x_min":139,"x_max":754,"o":"m 740 85 q 754 51 754 69 q 733 14 754 31 q 700 0 718 0 q 663 22 679 0 l 315 453 l 239 374 l 239 50 q 226 13 239 26 q 189 0 213 0 q 152 13 165 0 q 139 50 139 26 l 139 874 q 152 910 139 897 q 189 924 165 924 q 226 910 213 924 q 239 874 239 897 l 239 518 l 615 906 q 651 924 632 924 q 686 907 669 924 q 703 871 703 890 q 686 836 703 853 l 386 525 l 740 85 z "},"Ķ":{"ha":796,"x_min":139,"x_max":754,"o":"m 740 85 q 754 51 754 69 q 733 14 754 31 q 700 0 718 0 q 663 22 679 0 l 315 453 l 239 374 l 239 50 q 226 13 239 26 q 189 0 213 0 q 152 13 165 0 q 139 50 139 26 l 139 874 q 152 910 139 897 q 189 924 165 924 q 226 910 213 924 q 239 874 239 897 l 239 518 l 615 906 q 651 924 632 924 q 686 907 669 924 q 703 871 703 890 q 686 836 703 853 l 386 525 l 740 85 m 481 -133 q 474 -158 481 -149 l 415 -282 q 383 -304 403 -304 q 356 -295 367 -304 q 349 -269 346 -286 l 378 -106 q 418 -69 381 -69 l 442 -69 q 481 -108 481 -69 l 481 -133 z "},"L":{"ha":729,"x_min":139,"x_max":688,"o":"m 189 0 q 139 50 139 0 l 139 874 q 189 924 139 924 q 239 874 239 924 l 239 100 l 638 100 q 688 50 688 100 q 638 0 688 0 l 189 0 z "},"Ǉ":{"ha":1538,"x_min":139,"x_max":1413,"o":"m 189 0 q 139 50 139 0 l 139 874 q 189 924 139 924 q 239 874 239 924 l 239 100 l 638 100 q 688 50 688 100 q 638 0 688 0 l 189 0 m 1044 0 q 848 53 914 0 q 771 224 782 107 q 782 262 769 249 q 819 275 794 275 q 871 225 867 275 q 917 127 879 154 q 1044 100 956 100 l 1138 100 q 1244 115 1207 100 q 1297 168 1281 131 q 1313 275 1313 206 l 1313 874 q 1363 924 1313 924 q 1399 910 1386 924 q 1413 874 1413 897 l 1413 275 q 1347 66 1413 132 q 1138 0 1281 0 l 1044 0 z "},"Ĺ":{"ha":729,"x_min":138,"x_max":688,"o":"m 189 0 q 139 50 139 0 l 139 874 q 189 924 139 924 q 239 874 239 924 l 239 100 l 638 100 q 688 50 688 100 q 638 0 688 0 l 189 0 m 156 1010 q 138 1042 138 1024 q 150 1072 138 1058 l 258 1201 q 290 1219 272 1219 q 321 1207 306 1219 q 339 1175 339 1193 q 326 1144 339 1160 l 218 1015 q 186 997 204 997 q 156 1010 169 997 z "},"Ľ":{"ha":729,"x_min":139,"x_max":688,"o":"m 189 0 q 139 50 139 0 l 139 874 q 189 924 139 924 q 239 874 239 924 l 239 100 l 638 100 q 688 50 688 100 q 638 0 688 0 l 189 0 m 507 847 q 503 828 507 836 l 504 828 l 444 703 q 413 681 432 681 q 386 690 396 681 q 379 715 376 699 l 407 874 q 446 911 408 911 l 469 911 q 497 901 488 911 q 507 872 507 890 l 507 847 z "},"Ļ":{"ha":729,"x_min":139,"x_max":688,"o":"m 189 0 q 139 50 139 0 l 139 874 q 189 924 139 924 q 239 874 239 924 l 239 100 l 638 100 q 688 50 688 100 q 638 0 688 0 l 189 0 m 510 -133 q 503 -158 510 -149 l 444 -282 q 413 -304 432 -304 q 385 -295 396 -304 q 378 -269 375 -286 l 407 -106 q 447 -69 410 -69 l 471 -69 q 510 -108 510 -69 l 510 -133 z "},"Ŀ":{"ha":729,"x_min":139,"x_max":688,"o":"m 189 0 q 139 50 139 0 l 139 874 q 189 924 139 924 q 239 874 239 924 l 239 100 l 638 100 q 688 50 688 100 q 638 0 688 0 l 189 0 m 481 425 q 444 438 457 425 q 431 475 431 451 l 431 507 q 481 556 431 556 l 511 556 q 558 507 558 556 l 558 475 q 546 438 558 451 q 511 425 533 425 l 481 425 z "},"ǈ":{"ha":997,"x_min":139,"x_max":885,"o":"m 189 0 q 139 50 139 0 l 139 874 q 189 924 139 924 q 239 874 239 924 l 239 100 l 638 100 q 688 50 688 100 q 638 0 688 0 l 189 0 m 606 -228 q 619 -191 606 -204 q 656 -178 632 -178 q 738 -157 717 -178 q 758 -75 758 -136 l 758 636 q 772 673 758 660 q 808 686 785 686 q 845 673 832 686 q 858 636 858 660 l 858 -75 q 808 -228 858 -178 q 656 -278 758 -278 q 606 -228 606 -278 m 792 804 q 747 820 763 804 q 732 864 732 836 l 732 903 q 792 960 732 960 l 828 960 q 870 945 856 960 q 885 903 885 931 l 885 864 q 869 820 885 836 q 828 804 854 804 l 792 804 z "},"Ł":{"ha":729,"x_min":13,"x_max":688,"o":"m 638 100 q 688 50 688 100 q 638 0 688 0 l 189 0 q 139 50 139 0 l 139 326 l 90 289 q 60 278 75 278 q 24 299 40 278 q 13 329 13 314 q 33 365 13 349 l 139 446 l 139 874 q 189 924 139 924 q 239 874 239 924 l 239 521 l 357 611 q 386 622 369 622 q 422 601 407 622 q 435 571 435 585 q 414 535 435 551 l 239 401 l 239 100 l 638 100 z "},"M":{"ha":1135,"x_min":139,"x_max":996,"o":"m 954 924 q 996 874 996 924 l 996 50 q 983 13 996 26 q 946 0 969 0 q 909 13 922 0 q 896 50 896 26 l 896 717 l 624 311 q 563 279 601 279 q 513 311 535 279 l 239 719 l 239 50 q 226 13 239 26 q 189 0 213 0 q 152 13 165 0 q 139 50 139 26 l 139 874 q 152 910 139 897 q 189 924 165 924 q 244 892 222 924 l 569 400 l 893 892 q 954 924 915 924 z "},"N":{"ha":1024,"x_min":139,"x_max":885,"o":"m 835 924 q 872 910 858 924 q 885 874 885 897 l 885 50 q 872 13 885 26 q 835 0 858 0 q 809 7 821 0 q 785 29 797 14 l 239 732 l 239 50 q 226 13 239 26 q 189 0 213 0 q 152 13 165 0 q 139 50 139 26 l 139 874 q 152 910 139 897 q 189 924 165 924 q 239 894 218 924 l 785 193 l 785 874 q 798 910 785 897 q 835 924 811 924 z "},"Ǌ":{"ha":1832,"x_min":139,"x_max":1707,"o":"m 835 924 q 872 910 858 924 q 885 874 885 897 l 885 50 q 872 13 885 26 q 835 0 858 0 q 809 7 821 0 q 785 29 797 14 l 239 732 l 239 50 q 226 13 239 26 q 189 0 213 0 q 152 13 165 0 q 139 50 139 26 l 139 874 q 152 910 139 897 q 189 924 165 924 q 239 894 218 924 l 785 193 l 785 874 q 798 910 785 897 q 835 924 811 924 m 1339 0 q 1142 53 1208 0 q 1065 224 1076 107 q 1076 262 1064 249 q 1114 275 1089 275 q 1165 225 1161 275 q 1212 127 1174 154 q 1339 100 1250 100 l 1432 100 q 1538 115 1501 100 q 1591 168 1575 131 q 1607 275 1607 206 l 1607 874 q 1657 924 1607 924 q 1694 910 1681 924 q 1707 874 1707 897 l 1707 275 q 1641 66 1707 132 q 1432 0 1575 0 l 1339 0 z "},"Ń":{"ha":1024,"x_min":139,"x_max":885,"o":"m 835 924 q 872 910 858 924 q 885 874 885 897 l 885 50 q 872 13 885 26 q 835 0 858 0 q 809 7 821 0 q 785 29 797 14 l 239 732 l 239 50 q 226 13 239 26 q 189 0 213 0 q 152 13 165 0 q 139 50 139 26 l 139 874 q 152 910 139 897 q 189 924 165 924 q 239 894 218 924 l 785 193 l 785 874 q 798 910 785 897 q 835 924 811 924 m 479 1010 q 461 1042 461 1024 q 474 1072 461 1058 l 582 1201 q 614 1219 596 1219 q 644 1207 629 1219 q 663 1175 663 1193 q 650 1144 663 1160 l 542 1015 q 510 997 528 997 q 479 1010 493 997 z "},"Ň":{"ha":1024,"x_min":139,"x_max":885,"o":"m 835 924 q 872 910 858 924 q 885 874 885 897 l 885 50 q 872 13 885 26 q 835 0 858 0 q 809 7 821 0 q 785 29 797 14 l 239 732 l 239 50 q 226 13 239 26 q 189 0 213 0 q 152 13 165 0 q 139 50 139 26 l 139 874 q 152 910 139 897 q 189 924 165 924 q 239 894 218 924 l 785 193 l 785 874 q 798 910 785 897 q 835 924 811 924 m 346 1206 q 379 1192 365 1206 l 511 1082 l 517 1082 l 649 1192 q 682 1206 663 1206 q 714 1192 700 1206 q 728 1160 728 1179 q 722 1138 728 1149 q 707 1121 717 1128 l 575 1011 q 518 990 550 990 l 510 990 q 453 1011 478 990 l 321 1121 q 306 1138 311 1128 q 300 1160 300 1149 q 313 1192 300 1179 q 346 1206 326 1206 z "},"Ņ":{"ha":1024,"x_min":139,"x_max":885,"o":"m 835 924 q 872 910 858 924 q 885 874 885 897 l 885 50 q 872 13 885 26 q 835 0 858 0 q 809 7 821 0 q 785 29 797 14 l 239 732 l 239 50 q 226 13 239 26 q 189 0 213 0 q 152 13 165 0 q 139 50 139 26 l 139 874 q 152 910 139 897 q 189 924 165 924 q 239 894 218 924 l 785 193 l 785 874 q 798 910 785 897 q 835 924 811 924 m 594 -133 q 588 -158 594 -149 l 529 -282 q 497 -304 517 -304 q 470 -295 481 -304 q 463 -269 460 -286 l 492 -106 q 532 -69 494 -69 l 556 -69 q 594 -108 594 -69 l 594 -133 z "},"Ŋ":{"ha":1024,"x_min":139,"x_max":885,"o":"m 835 924 q 872 910 858 924 q 885 874 885 897 l 885 -86 q 838 -231 885 -185 q 693 -278 792 -278 l 532 -278 q 402 -244 449 -278 q 344 -139 356 -210 q 353 -100 340 -114 q 393 -86 367 -86 q 426 -97 415 -86 q 444 -135 436 -108 q 471 -169 451 -160 q 532 -178 490 -178 l 693 -178 q 767 -160 749 -178 q 785 -86 785 -142 l 785 29 l 239 732 l 239 50 q 226 13 239 26 q 189 0 213 0 q 152 13 165 0 q 139 50 139 26 l 139 874 q 152 910 139 897 q 189 924 165 924 q 239 894 218 924 l 785 193 l 785 874 q 798 910 785 897 q 835 924 811 924 z "},"ǋ":{"ha":1401,"x_min":139,"x_max":1289,"o":"m 835 924 q 872 910 858 924 q 885 874 885 897 l 885 50 q 872 13 885 26 q 835 0 858 0 q 809 7 821 0 q 785 29 797 14 l 239 732 l 239 50 q 226 13 239 26 q 189 0 213 0 q 152 13 165 0 q 139 50 139 26 l 139 874 q 152 910 139 897 q 189 924 165 924 q 239 894 218 924 l 785 193 l 785 874 q 798 910 785 897 q 835 924 811 924 m 1010 -228 q 1023 -191 1010 -204 q 1060 -178 1036 -178 q 1142 -157 1121 -178 q 1163 -75 1163 -136 l 1163 636 q 1176 673 1163 660 q 1213 686 1189 686 q 1249 673 1236 686 q 1263 636 1263 660 l 1263 -75 q 1213 -228 1263 -178 q 1060 -278 1163 -278 q 1010 -228 1010 -278 m 1196 804 q 1151 820 1167 804 q 1136 864 1136 836 l 1136 903 q 1196 960 1136 960 l 1232 960 q 1274 945 1260 960 q 1289 903 1289 931 l 1289 864 q 1274 820 1289 836 q 1232 804 1258 804 l 1196 804 z "},"Ñ":{"ha":1024,"x_min":139,"x_max":885,"o":"m 835 924 q 872 910 858 924 q 885 874 885 897 l 885 50 q 872 13 885 26 q 835 0 858 0 q 809 7 821 0 q 785 29 797 14 l 239 732 l 239 50 q 226 13 239 26 q 189 0 213 0 q 152 13 165 0 q 139 50 139 26 l 139 874 q 152 910 139 897 q 189 924 165 924 q 239 894 218 924 l 785 193 l 785 874 q 798 910 785 897 q 835 924 811 924 m 608 1014 q 547 1028 571 1014 q 497 1068 522 1043 q 468 1094 479 1088 q 442 1100 457 1100 q 409 1090 422 1100 q 385 1051 396 1079 q 349 1019 374 1019 q 332 1022 343 1019 q 301 1056 301 1031 q 306 1075 301 1065 q 360 1158 328 1132 q 442 1183 393 1183 q 506 1168 481 1183 q 557 1126 531 1153 q 585 1103 575 1108 q 608 1097 594 1097 q 635 1107 625 1097 q 656 1140 646 1117 q 693 1174 668 1174 q 707 1172 703 1174 q 739 1138 739 1165 q 736 1121 739 1126 q 686 1040 717 1067 q 608 1014 656 1014 z "},"O":{"ha":994,"x_min":111,"x_max":883,"o":"m 414 0 q 185 74 258 0 q 111 303 111 147 l 111 622 q 185 852 111 779 q 414 924 258 925 l 581 924 q 810 851 738 924 q 883 621 883 778 l 883 303 q 810 74 883 147 q 581 0 738 0 l 414 0 m 581 100 q 702 119 658 100 q 765 181 746 138 q 783 303 783 225 l 783 621 q 765 742 783 699 q 702 805 746 786 q 581 824 658 824 l 414 824 q 292 806 336 825 q 230 744 249 788 q 211 622 211 700 l 211 303 q 230 181 211 225 q 292 119 249 138 q 414 100 336 100 l 581 100 z "},"Ó":{"ha":994,"x_min":111,"x_max":883,"o":"m 414 0 q 185 74 258 0 q 111 303 111 147 l 111 622 q 185 852 111 779 q 414 924 258 925 l 581 924 q 810 851 738 924 q 883 621 883 778 l 883 303 q 810 74 883 147 q 581 0 738 0 l 414 0 m 581 100 q 702 119 658 100 q 765 181 746 138 q 783 303 783 225 l 783 621 q 765 742 783 699 q 702 805 746 786 q 581 824 658 824 l 414 824 q 292 806 336 825 q 230 744 249 788 q 211 622 211 700 l 211 303 q 230 181 211 225 q 292 119 249 138 q 414 100 336 100 l 581 100 m 464 1010 q 446 1042 446 1024 q 458 1072 446 1058 l 567 1201 q 599 1219 581 1219 q 629 1207 614 1219 q 647 1175 647 1193 q 635 1144 647 1160 l 526 1015 q 494 997 513 997 q 464 1010 478 997 z "},"Ŏ":{"ha":994,"x_min":111,"x_max":883,"o":"m 414 0 q 185 74 258 0 q 111 303 111 147 l 111 622 q 185 852 111 779 q 414 924 258 925 l 581 924 q 810 851 738 924 q 883 621 883 778 l 883 303 q 810 74 883 147 q 581 0 738 0 l 414 0 m 581 100 q 702 119 658 100 q 765 181 746 138 q 783 303 783 225 l 783 621 q 765 742 783 699 q 702 805 746 786 q 581 824 658 824 l 414 824 q 292 806 336 825 q 230 744 249 788 q 211 622 211 700 l 211 303 q 230 181 211 225 q 292 119 249 138 q 414 100 336 100 l 581 100 m 513 993 q 376 1030 424 993 q 328 1136 328 1067 l 328 1158 q 372 1203 328 1203 q 417 1158 417 1203 l 417 1136 q 438 1090 417 1104 q 513 1076 458 1076 q 588 1090 567 1076 q 608 1136 608 1104 l 608 1169 q 653 1203 608 1203 q 697 1158 697 1203 l 697 1136 q 649 1030 697 1067 q 513 993 601 993 z "},"Ô":{"ha":994,"x_min":111,"x_max":883,"o":"m 414 0 q 185 74 258 0 q 111 303 111 147 l 111 622 q 185 852 111 779 q 414 924 258 925 l 581 924 q 810 851 738 924 q 883 621 883 778 l 883 303 q 810 74 883 147 q 581 0 738 0 l 414 0 m 581 100 q 702 119 658 100 q 765 181 746 138 q 783 303 783 225 l 783 621 q 765 742 783 699 q 702 805 746 786 q 581 824 658 824 l 414 824 q 292 806 336 825 q 230 744 249 788 q 211 622 211 700 l 211 303 q 230 181 211 225 q 292 119 249 138 q 414 100 336 100 l 581 100 m 328 990 q 295 1004 308 990 q 282 1036 282 1018 q 288 1058 282 1047 q 303 1075 293 1068 l 435 1185 q 492 1206 460 1206 l 500 1206 q 557 1185 532 1206 l 689 1075 q 704 1058 699 1068 q 710 1036 710 1047 q 696 1004 710 1018 q 664 990 682 990 q 631 1004 644 990 l 499 1114 l 493 1114 l 361 1004 q 328 990 347 990 z "},"Ố":{"ha":994,"x_min":111,"x_max":883,"o":"m 414 0 q 185 74 258 0 q 111 303 111 147 l 111 622 q 185 852 111 779 q 414 924 258 925 l 581 924 q 810 851 738 924 q 883 621 883 778 l 883 303 q 810 74 883 147 q 581 0 738 0 l 414 0 m 581 100 q 702 119 658 100 q 765 181 746 138 q 783 303 783 225 l 783 621 q 765 742 783 699 q 702 805 746 786 q 581 824 658 824 l 414 824 q 292 806 336 825 q 230 744 249 788 q 211 622 211 700 l 211 303 q 230 181 211 225 q 292 119 249 138 q 414 100 336 100 l 581 100 m 665 1133 q 633 1149 649 1133 q 617 1181 617 1164 q 631 1213 617 1197 l 703 1297 q 738 1315 719 1315 q 770 1300 754 1315 q 786 1268 786 1285 q 772 1236 786 1254 l 700 1151 q 665 1133 683 1133 m 329 990 q 297 1004 310 990 q 283 1036 283 1018 q 289 1058 283 1047 q 304 1075 294 1068 l 436 1185 q 493 1206 461 1206 l 501 1206 q 558 1185 533 1206 l 690 1075 q 706 1058 700 1068 q 711 1036 711 1047 q 697 1004 711 1018 q 665 990 683 990 q 632 1004 646 990 l 500 1114 l 494 1114 l 363 1004 q 329 990 349 990 z "},"Ộ":{"ha":994,"x_min":111,"x_max":883,"o":"m 414 0 q 185 74 258 0 q 111 303 111 147 l 111 622 q 185 852 111 779 q 414 924 258 925 l 581 924 q 810 851 738 924 q 883 621 883 778 l 883 303 q 810 74 883 147 q 581 0 738 0 l 414 0 m 581 100 q 702 119 658 100 q 765 181 746 138 q 783 303 783 225 l 783 621 q 765 742 783 699 q 702 805 746 786 q 581 824 658 824 l 414 824 q 292 806 336 825 q 230 744 249 788 q 211 622 211 700 l 211 303 q 230 181 211 225 q 292 119 249 138 q 414 100 336 100 l 581 100 m 472 -215 q 435 -202 449 -215 q 422 -165 422 -189 l 422 -133 q 472 -85 422 -85 l 503 -85 q 550 -133 550 -85 l 550 -165 q 538 -202 550 -189 q 503 -215 525 -215 l 472 -215 m 328 990 q 295 1004 308 990 q 282 1036 282 1018 q 288 1058 282 1047 q 303 1075 293 1068 l 435 1185 q 492 1206 460 1206 l 500 1206 q 557 1185 532 1206 l 689 1075 q 704 1058 699 1068 q 710 1036 710 1047 q 696 1004 710 1018 q 664 990 682 990 q 631 1004 644 990 l 499 1114 l 493 1114 l 361 1004 q 328 990 347 990 z "},"Ồ":{"ha":994,"x_min":111,"x_max":883,"o":"m 414 0 q 185 74 258 0 q 111 303 111 147 l 111 622 q 185 852 111 779 q 414 924 258 925 l 581 924 q 810 851 738 924 q 883 621 883 778 l 883 303 q 810 74 883 147 q 581 0 738 0 l 414 0 m 581 100 q 702 119 658 100 q 765 181 746 138 q 783 303 783 225 l 783 621 q 765 742 783 699 q 702 805 746 786 q 581 824 658 824 l 414 824 q 292 806 336 825 q 230 744 249 788 q 211 622 211 700 l 211 303 q 230 181 211 225 q 292 119 249 138 q 414 100 336 100 l 581 100 m 300 1133 q 265 1151 282 1133 l 193 1236 q 179 1268 179 1250 q 195 1300 179 1285 q 228 1315 211 1315 q 263 1297 246 1315 l 335 1213 q 349 1181 349 1197 q 333 1149 349 1164 q 300 1133 317 1133 m 331 990 q 298 1004 311 990 q 285 1036 285 1018 q 290 1058 285 1047 q 306 1075 296 1068 l 438 1185 q 494 1206 463 1206 l 503 1206 q 560 1185 535 1206 l 692 1075 q 707 1058 701 1068 q 713 1036 713 1047 q 699 1004 713 1018 q 667 990 685 990 q 633 1004 647 990 l 501 1114 l 496 1114 l 364 1004 q 331 990 350 990 z "},"Ổ":{"ha":994,"x_min":111,"x_max":883,"o":"m 414 0 q 185 74 258 0 q 111 303 111 147 l 111 622 q 185 852 111 779 q 414 924 258 925 l 581 924 q 810 851 738 924 q 883 621 883 778 l 883 303 q 810 74 883 147 q 581 0 738 0 l 414 0 m 581 100 q 702 119 658 100 q 765 181 746 138 q 783 303 783 225 l 783 621 q 765 742 783 699 q 702 805 746 786 q 581 824 658 824 l 414 824 q 292 806 336 825 q 230 744 249 788 q 211 622 211 700 l 211 303 q 230 181 211 225 q 292 119 249 138 q 414 100 336 100 l 581 100 m 329 990 q 297 1004 310 990 q 283 1036 283 1018 q 289 1058 283 1047 q 304 1075 294 1068 l 436 1185 q 493 1206 461 1206 l 501 1206 q 558 1185 533 1206 l 690 1075 q 706 1058 700 1068 q 711 1036 711 1047 q 697 1004 711 1018 q 665 990 683 990 q 632 1004 646 990 l 500 1114 l 494 1114 l 363 1004 q 329 990 349 990 m 622 1183 q 594 1191 603 1183 q 586 1218 586 1199 q 605 1278 586 1257 q 653 1318 624 1300 q 677 1335 672 1329 q 682 1350 682 1340 q 672 1391 682 1381 q 632 1401 663 1401 q 592 1391 601 1401 q 582 1350 582 1381 q 574 1322 582 1331 q 546 1314 565 1314 q 518 1322 526 1314 q 510 1350 510 1331 q 632 1472 510 1472 q 754 1350 754 1472 q 736 1293 754 1314 q 690 1256 718 1272 q 664 1236 669 1243 q 658 1218 658 1229 q 650 1191 658 1199 q 622 1183 642 1183 z "},"Ỗ":{"ha":994,"x_min":111,"x_max":883,"o":"m 414 0 q 185 74 258 0 q 111 303 111 147 l 111 622 q 185 852 111 779 q 414 924 258 925 l 581 924 q 810 851 738 924 q 883 621 883 778 l 883 303 q 810 74 883 147 q 581 0 738 0 l 414 0 m 581 100 q 702 119 658 100 q 765 181 746 138 q 783 303 783 225 l 783 621 q 765 742 783 699 q 702 805 746 786 q 581 824 658 824 l 414 824 q 292 806 336 825 q 230 744 249 788 q 211 622 211 700 l 211 303 q 230 181 211 225 q 292 119 249 138 q 414 100 336 100 l 581 100 m 328 990 q 295 1004 308 990 q 282 1036 282 1018 q 288 1058 282 1047 q 303 1075 293 1068 l 435 1185 q 492 1206 460 1206 l 500 1206 q 557 1185 532 1206 l 689 1075 q 704 1058 699 1068 q 710 1036 710 1047 q 696 1004 710 1018 q 664 990 682 990 q 631 1004 644 990 l 499 1114 l 493 1114 l 361 1004 q 328 990 347 990 m 593 1244 q 531 1259 556 1244 q 482 1299 507 1274 q 453 1324 464 1318 q 426 1331 442 1331 q 394 1320 407 1331 q 369 1282 381 1310 q 333 1250 358 1250 q 317 1253 328 1250 q 286 1286 286 1261 q 290 1306 286 1296 q 345 1388 313 1363 q 426 1414 378 1414 q 490 1399 465 1414 q 542 1357 515 1383 q 569 1333 560 1339 q 593 1328 579 1328 q 620 1338 610 1328 q 640 1371 631 1347 q 678 1404 653 1404 q 692 1403 688 1404 q 724 1368 724 1396 q 721 1351 724 1357 q 671 1271 701 1297 q 593 1244 640 1244 z "},"Ȍ":{"ha":994,"x_min":111,"x_max":883,"o":"m 463 1033 q 435 1022 450 1022 q 406 1038 417 1022 l 308 1154 q 297 1182 297 1165 q 313 1210 297 1199 q 340 1221 325 1221 q 369 1206 358 1221 l 467 1089 q 478 1061 478 1078 q 463 1033 478 1044 m 621 1033 q 593 1022 608 1022 q 564 1038 575 1022 l 467 1154 q 456 1182 456 1165 q 471 1210 456 1199 q 499 1221 483 1221 q 528 1206 517 1221 l 625 1089 q 636 1061 636 1078 q 621 1033 636 1044 m 414 0 q 185 74 258 0 q 111 303 111 147 l 111 622 q 185 852 111 779 q 414 924 258 925 l 581 924 q 810 851 738 924 q 883 621 883 778 l 883 303 q 810 74 883 147 q 581 0 738 0 l 414 0 m 581 100 q 702 119 658 100 q 765 181 746 138 q 783 303 783 225 l 783 621 q 765 742 783 699 q 702 805 746 786 q 581 824 658 824 l 414 824 q 292 806 336 825 q 230 744 249 788 q 211 622 211 700 l 211 303 q 230 181 211 225 q 292 119 249 138 q 414 100 336 100 l 581 100 z "},"Ö":{"ha":994,"x_min":111,"x_max":883,"o":"m 414 0 q 185 74 258 0 q 111 303 111 147 l 111 622 q 185 852 111 779 q 414 924 258 925 l 581 924 q 810 851 738 924 q 883 621 883 778 l 883 303 q 810 74 883 147 q 581 0 738 0 l 414 0 m 581 100 q 702 119 658 100 q 765 181 746 138 q 783 303 783 225 l 783 621 q 765 742 783 699 q 702 805 746 786 q 581 824 658 824 l 414 824 q 292 806 336 825 q 230 744 249 788 q 211 622 211 700 l 211 303 q 230 181 211 225 q 292 119 249 138 q 414 100 336 100 l 581 100 m 372 1032 q 335 1045 349 1032 q 322 1082 322 1058 l 322 1114 q 372 1163 322 1163 l 403 1163 q 450 1114 450 1163 l 450 1082 q 438 1045 450 1058 q 403 1032 425 1032 l 372 1032 m 594 1032 q 558 1045 571 1032 q 544 1082 544 1058 l 544 1114 q 594 1163 544 1163 l 625 1163 q 672 1114 672 1163 l 672 1082 q 660 1045 672 1058 q 625 1032 647 1032 l 594 1032 z "},"Ȫ":{"ha":994,"x_min":111,"x_max":883,"o":"m 414 0 q 185 74 258 0 q 111 303 111 147 l 111 622 q 185 852 111 779 q 414 924 258 925 l 581 924 q 810 851 738 924 q 883 621 883 778 l 883 303 q 810 74 883 147 q 581 0 738 0 l 414 0 m 581 100 q 702 119 658 100 q 765 181 746 138 q 783 303 783 225 l 783 621 q 765 742 783 699 q 702 805 746 786 q 581 824 658 824 l 414 824 q 292 806 336 825 q 230 744 249 788 q 211 622 211 700 l 211 303 q 230 181 211 225 q 292 119 249 138 q 414 100 336 100 l 581 100 m 372 1032 q 335 1045 349 1032 q 322 1082 322 1058 l 322 1114 q 372 1163 322 1163 l 403 1163 q 450 1114 450 1163 l 450 1082 q 438 1045 450 1058 q 403 1032 425 1032 l 372 1032 m 594 1032 q 558 1045 571 1032 q 544 1082 544 1058 l 544 1114 q 594 1163 544 1163 l 625 1163 q 672 1114 672 1163 l 672 1082 q 660 1045 672 1058 q 625 1032 647 1032 l 594 1032 m 317 1214 q 267 1264 267 1214 q 317 1314 267 1314 l 668 1314 q 718 1264 718 1314 q 668 1214 718 1214 l 317 1214 z "},"Ȱ":{"ha":994,"x_min":111,"x_max":883,"o":"m 414 0 q 185 74 258 0 q 111 303 111 147 l 111 622 q 185 852 111 779 q 414 924 258 925 l 581 924 q 810 851 738 924 q 883 621 883 778 l 883 303 q 810 74 883 147 q 581 0 738 0 l 414 0 m 581 100 q 702 119 658 100 q 765 181 746 138 q 783 303 783 225 l 783 621 q 765 742 783 699 q 702 805 746 786 q 581 824 658 824 l 414 824 q 292 806 336 825 q 230 744 249 788 q 211 622 211 700 l 211 303 q 230 181 211 225 q 292 119 249 138 q 414 100 336 100 l 581 100 m 481 1042 q 436 1058 451 1042 q 421 1101 421 1074 l 421 1140 q 481 1197 421 1197 l 517 1197 q 559 1183 544 1197 q 574 1140 574 1168 l 574 1101 q 558 1058 574 1074 q 517 1042 543 1042 l 481 1042 m 317 1256 q 267 1306 267 1256 q 317 1356 267 1356 l 668 1356 q 718 1306 718 1356 q 668 1256 718 1256 l 317 1256 z "},"Ọ":{"ha":994,"x_min":111,"x_max":883,"o":"m 414 0 q 185 74 258 0 q 111 303 111 147 l 111 622 q 185 852 111 779 q 414 924 258 925 l 581 924 q 810 851 738 924 q 883 621 883 778 l 883 303 q 810 74 883 147 q 581 0 738 0 l 414 0 m 581 100 q 702 119 658 100 q 765 181 746 138 q 783 303 783 225 l 783 621 q 765 742 783 699 q 702 805 746 786 q 581 824 658 824 l 414 824 q 292 806 336 825 q 230 744 249 788 q 211 622 211 700 l 211 303 q 230 181 211 225 q 292 119 249 138 q 414 100 336 100 l 581 100 m 472 -215 q 435 -202 449 -215 q 422 -165 422 -189 l 422 -133 q 472 -85 422 -85 l 503 -85 q 550 -133 550 -85 l 550 -165 q 538 -202 550 -189 q 503 -215 525 -215 l 472 -215 z "},"Ò":{"ha":994,"x_min":111,"x_max":883,"o":"m 414 0 q 185 74 258 0 q 111 303 111 147 l 111 622 q 185 852 111 779 q 414 924 258 925 l 581 924 q 810 851 738 924 q 883 621 883 778 l 883 303 q 810 74 883 147 q 581 0 738 0 l 414 0 m 581 100 q 702 119 658 100 q 765 181 746 138 q 783 303 783 225 l 783 621 q 765 742 783 699 q 702 805 746 786 q 581 824 658 824 l 414 824 q 292 806 336 825 q 230 744 249 788 q 211 622 211 700 l 211 303 q 230 181 211 225 q 292 119 249 138 q 414 100 336 100 l 581 100 m 551 992 q 521 979 536 979 q 489 997 503 979 l 381 1126 q 368 1157 368 1142 q 386 1189 368 1175 q 417 1201 400 1201 q 449 1183 435 1201 l 557 1054 q 569 1024 569 1040 q 551 992 569 1006 z "},"Ỏ":{"ha":994,"x_min":111,"x_max":883,"o":"m 414 0 q 185 74 258 0 q 111 303 111 147 l 111 622 q 185 852 111 779 q 414 924 258 925 l 581 924 q 810 851 738 924 q 883 621 883 778 l 883 303 q 810 74 883 147 q 581 0 738 0 l 414 0 m 581 100 q 702 119 658 100 q 765 181 746 138 q 783 303 783 225 l 783 621 q 765 742 783 699 q 702 805 746 786 q 581 824 658 824 l 414 824 q 292 806 336 825 q 230 744 249 788 q 211 622 211 700 l 211 303 q 230 181 211 225 q 292 119 249 138 q 414 100 336 100 l 581 100 m 497 999 q 469 1006 478 999 q 461 1033 461 1014 q 480 1094 461 1072 q 528 1133 499 1115 q 552 1150 547 1144 q 557 1165 557 1156 q 547 1206 557 1196 q 507 1217 538 1217 q 467 1206 476 1217 q 457 1165 457 1196 q 449 1138 457 1146 q 421 1129 440 1129 q 393 1138 401 1129 q 385 1165 385 1146 q 507 1288 385 1288 q 629 1165 629 1288 q 611 1108 629 1129 q 565 1071 593 1088 q 539 1051 544 1058 q 533 1033 533 1044 q 525 1006 533 1014 q 497 999 517 999 z "},"Ơ":{"ha":994,"x_min":111,"x_max":953,"o":"m 906 967 q 953 919 953 967 l 953 897 q 858 776 953 804 q 883 621 883 714 l 883 303 q 810 74 883 147 q 581 0 738 0 l 414 0 q 185 74 258 0 q 111 303 111 147 l 111 622 q 185 852 111 779 q 414 924 258 925 l 581 924 q 813 847 740 924 q 848 861 838 850 q 858 897 858 872 l 858 932 q 906 967 858 967 m 783 621 q 765 742 783 699 q 702 805 746 786 q 581 824 658 824 l 414 824 q 292 806 336 825 q 230 744 249 788 q 211 622 211 700 l 211 303 q 230 181 211 225 q 292 119 249 138 q 414 100 336 100 l 581 100 q 702 119 658 100 q 765 181 746 138 q 783 303 783 225 l 783 621 z "},"Ớ":{"ha":994,"x_min":111,"x_max":953,"o":"m 906 967 q 953 919 953 967 l 953 897 q 858 776 953 804 q 883 621 883 714 l 883 303 q 810 74 883 147 q 581 0 738 0 l 414 0 q 185 74 258 0 q 111 303 111 147 l 111 622 q 185 852 111 779 q 414 924 258 925 l 581 924 q 813 847 740 924 q 848 861 838 850 q 858 897 858 872 l 858 932 q 906 967 858 967 m 783 621 q 765 742 783 699 q 702 805 746 786 q 581 824 658 824 l 414 824 q 292 806 336 825 q 230 744 249 788 q 211 622 211 700 l 211 303 q 230 181 211 225 q 292 119 249 138 q 414 100 336 100 l 581 100 q 702 119 658 100 q 765 181 746 138 q 783 303 783 225 l 783 621 m 464 1010 q 446 1042 446 1024 q 458 1072 446 1058 l 567 1201 q 599 1219 581 1219 q 629 1207 614 1219 q 647 1175 647 1193 q 635 1144 647 1160 l 526 1015 q 494 997 513 997 q 464 1010 478 997 z "},"Ợ":{"ha":994,"x_min":111,"x_max":953,"o":"m 906 967 q 953 919 953 967 l 953 897 q 858 776 953 804 q 883 621 883 714 l 883 303 q 810 74 883 147 q 581 0 738 0 l 414 0 q 185 74 258 0 q 111 303 111 147 l 111 622 q 185 852 111 779 q 414 924 258 925 l 581 924 q 813 847 740 924 q 848 861 838 850 q 858 897 858 872 l 858 932 q 906 967 858 967 m 783 621 q 765 742 783 699 q 702 805 746 786 q 581 824 658 824 l 414 824 q 292 806 336 825 q 230 744 249 788 q 211 622 211 700 l 211 303 q 230 181 211 225 q 292 119 249 138 q 414 100 336 100 l 581 100 q 702 119 658 100 q 765 181 746 138 q 783 303 783 225 l 783 621 m 472 -215 q 435 -202 449 -215 q 422 -165 422 -189 l 422 -133 q 472 -85 422 -85 l 503 -85 q 550 -133 550 -85 l 550 -165 q 538 -202 550 -189 q 503 -215 525 -215 l 472 -215 z "},"Ờ":{"ha":994,"x_min":111,"x_max":953,"o":"m 906 967 q 953 919 953 967 l 953 897 q 858 776 953 804 q 883 621 883 714 l 883 303 q 810 74 883 147 q 581 0 738 0 l 414 0 q 185 74 258 0 q 111 303 111 147 l 111 622 q 185 852 111 779 q 414 924 258 925 l 581 924 q 813 847 740 924 q 848 861 838 850 q 858 897 858 872 l 858 932 q 906 967 858 967 m 783 621 q 765 742 783 699 q 702 805 746 786 q 581 824 658 824 l 414 824 q 292 806 336 825 q 230 744 249 788 q 211 622 211 700 l 211 303 q 230 181 211 225 q 292 119 249 138 q 414 100 336 100 l 581 100 q 702 119 658 100 q 765 181 746 138 q 783 303 783 225 l 783 621 m 551 992 q 521 979 536 979 q 489 997 503 979 l 381 1126 q 368 1157 368 1142 q 386 1189 368 1175 q 417 1201 400 1201 q 449 1183 435 1201 l 557 1054 q 569 1024 569 1040 q 551 992 569 1006 z "},"Ở":{"ha":994,"x_min":111,"x_max":953,"o":"m 906 967 q 953 919 953 967 l 953 897 q 858 776 953 804 q 883 621 883 714 l 883 303 q 810 74 883 147 q 581 0 738 0 l 414 0 q 185 74 258 0 q 111 303 111 147 l 111 622 q 185 852 111 779 q 414 924 258 925 l 581 924 q 813 847 740 924 q 848 861 838 850 q 858 897 858 872 l 858 932 q 906 967 858 967 m 783 621 q 765 742 783 699 q 702 805 746 786 q 581 824 658 824 l 414 824 q 292 806 336 825 q 230 744 249 788 q 211 622 211 700 l 211 303 q 230 181 211 225 q 292 119 249 138 q 414 100 336 100 l 581 100 q 702 119 658 100 q 765 181 746 138 q 783 303 783 225 l 783 621 m 497 999 q 469 1006 478 999 q 461 1033 461 1014 q 480 1094 461 1072 q 528 1133 499 1115 q 552 1150 547 1144 q 557 1165 557 1156 q 547 1206 557 1196 q 507 1217 538 1217 q 467 1206 476 1217 q 457 1165 457 1196 q 449 1138 457 1146 q 421 1129 440 1129 q 393 1138 401 1129 q 385 1165 385 1146 q 507 1288 385 1288 q 629 1165 629 1288 q 611 1108 629 1129 q 565 1071 593 1088 q 539 1051 544 1058 q 533 1033 533 1044 q 525 1006 533 1014 q 497 999 517 999 z "},"Ỡ":{"ha":994,"x_min":111,"x_max":953,"o":"m 906 967 q 953 919 953 967 l 953 897 q 858 776 953 804 q 883 621 883 714 l 883 303 q 810 74 883 147 q 581 0 738 0 l 414 0 q 185 74 258 0 q 111 303 111 147 l 111 622 q 185 852 111 779 q 414 924 258 925 l 581 924 q 813 847 740 924 q 848 861 838 850 q 858 897 858 872 l 858 932 q 906 967 858 967 m 783 621 q 765 742 783 699 q 702 805 746 786 q 581 824 658 824 l 414 824 q 292 806 336 825 q 230 744 249 788 q 211 622 211 700 l 211 303 q 230 181 211 225 q 292 119 249 138 q 414 100 336 100 l 581 100 q 702 119 658 100 q 765 181 746 138 q 783 303 783 225 l 783 621 m 593 1014 q 531 1028 556 1014 q 482 1068 507 1043 q 453 1094 464 1088 q 426 1100 442 1100 q 394 1090 407 1100 q 369 1051 381 1079 q 333 1019 358 1019 q 317 1022 328 1019 q 286 1056 286 1031 q 290 1075 286 1065 q 345 1158 313 1132 q 426 1183 378 1183 q 490 1168 465 1183 q 542 1126 515 1153 q 569 1103 560 1108 q 593 1097 579 1097 q 620 1107 610 1097 q 640 1140 631 1117 q 678 1174 653 1174 q 692 1172 688 1174 q 724 1138 724 1165 q 721 1121 724 1126 q 671 1040 701 1067 q 593 1014 640 1014 z "},"Ő":{"ha":994,"x_min":111,"x_max":883,"o":"m 414 0 q 185 74 258 0 q 111 303 111 147 l 111 622 q 185 852 111 779 q 414 924 258 925 l 581 924 q 810 851 738 924 q 883 621 883 778 l 883 303 q 810 74 883 147 q 581 0 738 0 l 414 0 m 581 100 q 702 119 658 100 q 765 181 746 138 q 783 303 783 225 l 783 621 q 765 742 783 699 q 702 805 746 786 q 581 824 658 824 l 414 824 q 292 806 336 825 q 230 744 249 788 q 211 622 211 700 l 211 303 q 230 181 211 225 q 292 119 249 138 q 414 100 336 100 l 581 100 z "},"Ȏ":{"ha":994,"x_min":111,"x_max":883,"o":"m 414 0 q 185 74 258 0 q 111 303 111 147 l 111 622 q 185 852 111 779 q 414 924 258 925 l 581 924 q 810 851 738 924 q 883 621 883 778 l 883 303 q 810 74 883 147 q 581 0 738 0 l 414 0 m 581 100 q 702 119 658 100 q 765 181 746 138 q 783 303 783 225 l 783 621 q 765 742 783 699 q 702 805 746 786 q 581 824 658 824 l 414 824 q 292 806 336 825 q 230 744 249 788 q 211 622 211 700 l 211 303 q 230 181 211 225 q 292 119 249 138 q 414 100 336 100 l 581 100 m 497 1247 q 634 1210 586 1247 q 682 1104 682 1174 l 682 1082 q 638 1038 682 1038 q 593 1071 593 1038 l 593 1104 q 572 1150 593 1136 q 497 1164 551 1164 q 422 1150 443 1164 q 401 1104 401 1136 l 401 1082 q 357 1038 401 1038 q 313 1082 313 1038 l 313 1104 q 360 1210 313 1174 q 497 1247 408 1247 z "},"Ō":{"ha":994,"x_min":111,"x_max":883,"o":"m 414 0 q 185 74 258 0 q 111 303 111 147 l 111 622 q 185 852 111 779 q 414 924 258 925 l 581 924 q 810 851 738 924 q 883 621 883 778 l 883 303 q 810 74 883 147 q 581 0 738 0 l 414 0 m 581 100 q 702 119 658 100 q 765 181 746 138 q 783 303 783 225 l 783 621 q 765 742 783 699 q 702 805 746 786 q 581 824 658 824 l 414 824 q 292 806 336 825 q 230 744 249 788 q 211 622 211 700 l 211 303 q 230 181 211 225 q 292 119 249 138 q 414 100 336 100 l 581 100 m 317 1056 q 267 1106 267 1056 q 317 1156 267 1156 l 668 1156 q 718 1106 718 1156 q 668 1056 718 1056 l 317 1056 z "},"Ǫ":{"ha":994,"x_min":111,"x_max":883,"o":"m 661 -69 q 644 -107 644 -90 q 658 -133 644 -122 q 693 -143 671 -143 q 764 -108 731 -143 q 796 -96 779 -96 q 828 -109 815 -96 q 840 -140 840 -122 q 828 -172 840 -160 q 763 -216 799 -200 q 693 -232 728 -232 q 595 -196 635 -232 q 556 -107 556 -160 q 589 -17 556 -61 l 601 0 l 581 0 l 414 0 q 185 74 258 0 q 111 303 111 147 l 111 622 q 185 852 111 779 q 414 924 258 925 l 581 924 q 810 851 738 924 q 883 621 883 778 l 883 303 q 845 119 883 189 q 726 21 807 50 l 661 -69 m 581 100 q 702 119 658 100 q 765 181 746 138 q 783 303 783 225 l 783 621 q 765 742 783 699 q 702 805 746 786 q 581 824 658 824 l 414 824 q 292 806 336 825 q 230 744 249 788 q 211 622 211 700 l 211 303 q 230 181 211 225 q 292 119 249 138 q 414 100 336 100 l 581 100 z "},"Ø":{"ha":994,"x_min":111,"x_max":883,"o":"m 786 871 q 883 621 883 800 l 883 303 q 810 74 883 147 q 581 0 738 0 l 414 0 q 268 21 328 0 l 240 -25 q 203 -50 226 -50 q 175 -40 189 -50 q 150 -3 150 -24 q 158 25 150 11 l 186 71 q 111 303 111 144 l 111 622 q 185 852 111 779 q 414 924 258 925 l 581 924 q 699 910 651 924 l 728 957 q 765 982 743 982 q 793 972 779 982 q 818 935 818 958 q 808 907 818 921 l 786 871 m 211 303 q 242 161 211 206 l 644 819 q 581 824 615 824 l 414 824 q 292 806 336 825 q 230 744 249 788 q 211 622 211 700 l 211 303 m 783 621 q 772 723 783 683 q 733 785 760 763 l 322 110 q 414 100 357 100 l 581 100 q 702 119 658 100 q 765 181 746 138 q 783 303 783 225 l 783 621 z "},"Ǿ":{"ha":994,"x_min":111,"x_max":883,"o":"m 786 871 q 883 621 883 800 l 883 303 q 810 74 883 147 q 581 0 738 0 l 414 0 q 268 21 328 0 l 240 -25 q 203 -50 226 -50 q 175 -40 189 -50 q 150 -3 150 -24 q 158 25 150 11 l 186 71 q 111 303 111 144 l 111 622 q 185 852 111 779 q 414 924 258 925 l 581 924 q 699 910 651 924 l 728 957 q 765 982 743 982 q 793 972 779 982 q 818 935 818 958 q 808 907 818 921 l 786 871 m 211 303 q 242 161 211 206 l 644 819 q 581 824 615 824 l 414 824 q 292 806 336 825 q 230 744 249 788 q 211 622 211 700 l 211 303 m 783 621 q 772 723 783 683 q 733 785 760 763 l 322 110 q 414 100 357 100 l 581 100 q 702 119 658 100 q 765 181 746 138 q 783 303 783 225 l 783 621 m 464 1010 q 446 1042 446 1024 q 458 1072 446 1058 l 567 1201 q 599 1219 581 1219 q 629 1207 614 1219 q 647 1175 647 1193 q 635 1144 647 1160 l 526 1015 q 494 997 513 997 q 464 1010 478 997 z "},"Õ":{"ha":994,"x_min":111,"x_max":883,"o":"m 414 0 q 185 74 258 0 q 111 303 111 147 l 111 622 q 185 852 111 779 q 414 924 258 925 l 581 924 q 810 851 738 924 q 883 621 883 778 l 883 303 q 810 74 883 147 q 581 0 738 0 l 414 0 m 581 100 q 702 119 658 100 q 765 181 746 138 q 783 303 783 225 l 783 621 q 765 742 783 699 q 702 805 746 786 q 581 824 658 824 l 414 824 q 292 806 336 825 q 230 744 249 788 q 211 622 211 700 l 211 303 q 230 181 211 225 q 292 119 249 138 q 414 100 336 100 l 581 100 m 593 1014 q 531 1028 556 1014 q 482 1068 507 1043 q 453 1094 464 1088 q 426 1100 442 1100 q 394 1090 407 1100 q 369 1051 381 1079 q 333 1019 358 1019 q 317 1022 328 1019 q 286 1056 286 1031 q 290 1075 286 1065 q 345 1158 313 1132 q 426 1183 378 1183 q 490 1168 465 1183 q 542 1126 515 1153 q 569 1103 560 1108 q 593 1097 579 1097 q 620 1107 610 1097 q 640 1140 631 1117 q 678 1174 653 1174 q 692 1172 688 1174 q 724 1138 724 1165 q 721 1121 724 1126 q 671 1040 701 1067 q 593 1014 640 1014 z "},"Ȭ":{"ha":994,"x_min":111,"x_max":883,"o":"m 414 0 q 185 74 258 0 q 111 303 111 147 l 111 622 q 185 852 111 779 q 414 924 258 925 l 581 924 q 810 851 738 924 q 883 621 883 778 l 883 303 q 810 74 883 147 q 581 0 738 0 l 414 0 m 581 100 q 702 119 658 100 q 765 181 746 138 q 783 303 783 225 l 783 621 q 765 742 783 699 q 702 805 746 786 q 581 824 658 824 l 414 824 q 292 806 336 825 q 230 744 249 788 q 211 622 211 700 l 211 303 q 230 181 211 225 q 292 119 249 138 q 414 100 336 100 l 581 100 m 593 1014 q 531 1028 556 1014 q 482 1068 507 1043 q 453 1094 464 1088 q 426 1100 442 1100 q 394 1090 407 1100 q 369 1051 381 1079 q 333 1019 358 1019 q 317 1022 328 1019 q 286 1056 286 1031 q 290 1075 286 1065 q 345 1158 313 1132 q 426 1183 378 1183 q 490 1168 465 1183 q 542 1126 515 1153 q 569 1103 560 1108 q 593 1097 579 1097 q 620 1107 610 1097 q 640 1140 631 1117 q 678 1174 653 1174 q 692 1172 688 1174 q 724 1138 724 1165 q 721 1121 724 1126 q 671 1040 701 1067 q 593 1014 640 1014 m 317 1288 q 267 1338 267 1288 q 317 1388 267 1388 l 668 1388 q 718 1338 718 1388 q 668 1288 718 1288 l 317 1288 z "},"Œ":{"ha":1204,"x_min":111,"x_max":1135,"o":"m 1085 100 q 1122 87 1108 100 q 1135 50 1135 74 q 1122 13 1135 26 q 1085 0 1108 0 l 414 0 q 185 74 258 0 q 111 303 111 147 l 111 622 q 185 851 111 779 q 414 924 258 924 l 1085 924 q 1122 910 1108 924 q 1135 874 1135 897 q 1122 837 1135 850 q 1085 824 1108 824 l 683 824 l 683 517 l 921 517 q 958 503 944 517 q 971 467 971 490 q 958 430 971 443 q 921 417 944 417 l 683 417 l 683 100 l 1085 100 m 211 303 q 230 181 211 225 q 292 119 249 138 q 414 100 336 100 l 583 100 l 583 824 l 414 824 q 292 805 336 824 q 230 743 249 786 q 211 622 211 700 l 211 303 z "},"P":{"ha":824,"x_min":139,"x_max":768,"o":"m 514 924 q 703 858 638 924 q 768 669 768 793 l 768 628 q 703 439 768 504 q 514 374 638 374 l 239 374 l 239 50 q 226 13 239 26 q 189 0 213 0 q 152 13 165 0 q 139 50 139 26 l 139 874 q 152 910 139 897 q 189 924 165 924 l 514 924 m 668 669 q 632 788 668 751 q 514 824 596 824 l 239 824 l 239 474 l 514 474 q 632 510 596 474 q 668 628 668 546 l 668 669 z "},"Þ":{"ha":757,"x_min":139,"x_max":701,"o":"m 447 786 q 636 721 571 786 q 701 532 701 656 l 701 490 q 636 301 701 367 q 447 236 571 236 l 239 236 l 239 50 q 226 13 239 26 q 189 0 213 0 q 152 13 165 0 q 139 50 139 26 l 139 874 q 152 910 139 897 q 189 924 165 924 q 226 910 213 924 q 239 874 239 897 l 239 786 l 447 786 m 601 532 q 565 650 601 614 q 447 686 529 686 l 239 686 l 239 336 l 447 336 q 565 372 529 336 q 601 490 601 408 l 601 532 z "},"Q":{"ha":1000,"x_min":111,"x_max":889,"o":"m 875 -21 q 889 -50 889 -37 q 872 -82 889 -68 q 843 -96 856 -96 q 811 -81 829 -96 l 717 18 q 581 0 661 0 l 414 0 q 185 74 258 0 q 111 303 111 147 l 111 622 q 185 852 111 779 q 414 924 258 925 l 581 924 q 810 851 738 924 q 883 621 883 778 l 883 303 q 797 61 883 133 l 875 -21 m 581 100 q 636 103 603 100 l 592 149 q 578 179 578 165 q 593 210 578 194 q 624 224 607 224 q 656 208 638 224 l 728 133 q 770 197 757 156 q 783 303 783 238 l 783 621 q 765 742 783 699 q 702 805 746 786 q 581 824 658 824 l 414 824 q 292 806 336 825 q 230 744 249 788 q 211 622 211 700 l 211 303 q 230 181 211 225 q 292 119 249 138 q 414 100 336 100 l 581 100 z "},"R":{"ha":851,"x_min":139,"x_max":771,"o":"m 763 65 q 771 39 771 51 q 744 -3 771 15 q 717 -11 731 -11 q 676 14 693 -11 l 458 371 l 457 374 l 239 374 l 239 50 q 226 13 239 26 q 189 0 213 0 q 152 13 165 0 q 139 50 139 26 l 139 874 q 152 910 139 897 q 189 924 165 924 l 514 924 q 703 858 638 924 q 768 669 768 793 l 768 628 q 718 456 768 519 q 572 378 668 393 l 763 65 m 239 474 l 514 474 q 632 510 596 474 q 668 628 668 546 l 668 669 q 632 788 668 751 q 514 824 596 824 l 239 824 l 239 474 z "},"Ŕ":{"ha":851,"x_min":139,"x_max":771,"o":"m 763 65 q 771 39 771 51 q 744 -3 771 15 q 717 -11 731 -11 q 676 14 693 -11 l 458 371 l 457 374 l 239 374 l 239 50 q 226 13 239 26 q 189 0 213 0 q 152 13 165 0 q 139 50 139 26 l 139 874 q 152 910 139 897 q 189 924 165 924 l 514 924 q 703 858 638 924 q 768 669 768 793 l 768 628 q 718 456 768 519 q 572 378 668 393 l 763 65 m 239 474 l 514 474 q 632 510 596 474 q 668 628 668 546 l 668 669 q 632 788 668 751 q 514 824 596 824 l 239 824 l 239 474 m 393 1010 q 375 1042 375 1024 q 388 1072 375 1058 l 496 1201 q 528 1219 510 1219 q 558 1207 543 1219 q 576 1175 576 1193 q 564 1144 576 1160 l 456 1015 q 424 997 442 997 q 393 1010 407 997 z "},"Ř":{"ha":851,"x_min":139,"x_max":771,"o":"m 763 65 q 771 39 771 51 q 744 -3 771 15 q 717 -11 731 -11 q 676 14 693 -11 l 458 371 l 457 374 l 239 374 l 239 50 q 226 13 239 26 q 189 0 213 0 q 152 13 165 0 q 139 50 139 26 l 139 874 q 152 910 139 897 q 189 924 165 924 l 514 924 q 703 858 638 924 q 768 669 768 793 l 768 628 q 718 456 768 519 q 572 378 668 393 l 763 65 m 239 474 l 514 474 q 632 510 596 474 q 668 628 668 546 l 668 669 q 632 788 668 751 q 514 824 596 824 l 239 824 l 239 474 m 260 1206 q 293 1192 279 1206 l 425 1082 l 431 1082 l 563 1192 q 596 1206 576 1206 q 628 1192 614 1206 q 642 1160 642 1179 q 636 1138 642 1149 q 621 1121 631 1128 l 489 1011 q 432 990 464 990 l 424 990 q 367 1011 392 990 l 235 1121 q 219 1138 225 1128 q 214 1160 214 1149 q 227 1192 214 1179 q 260 1206 240 1206 z "},"Ŗ":{"ha":851,"x_min":139,"x_max":771,"o":"m 763 65 q 771 39 771 51 q 744 -3 771 15 q 717 -11 731 -11 q 676 14 693 -11 l 458 371 l 457 374 l 239 374 l 239 50 q 226 13 239 26 q 189 0 213 0 q 152 13 165 0 q 139 50 139 26 l 139 874 q 152 910 139 897 q 189 924 165 924 l 514 924 q 703 858 638 924 q 768 669 768 793 l 768 628 q 718 456 768 519 q 572 378 668 393 l 763 65 m 239 474 l 514 474 q 632 510 596 474 q 668 628 668 546 l 668 669 q 632 788 668 751 q 514 824 596 824 l 239 824 l 239 474 m 508 -133 q 501 -158 508 -149 l 443 -282 q 411 -304 431 -304 q 384 -295 394 -304 q 376 -269 374 -286 l 406 -106 q 446 -69 408 -69 l 469 -69 q 508 -108 508 -69 l 508 -133 z "},"Ȑ":{"ha":851,"x_min":139,"x_max":771,"o":"m 238 1154 q 226 1182 226 1165 q 242 1210 226 1199 q 269 1221 254 1221 q 299 1206 288 1221 l 396 1089 q 407 1061 407 1078 q 392 1033 407 1044 q 364 1022 379 1022 q 335 1038 346 1022 l 238 1154 m 396 1154 q 385 1182 385 1165 q 400 1210 385 1199 q 428 1221 413 1221 q 457 1206 446 1221 l 554 1089 q 565 1061 565 1078 q 550 1033 565 1044 q 522 1022 538 1022 q 493 1038 504 1022 l 396 1154 m 763 65 q 771 39 771 51 q 744 -3 771 15 q 717 -11 731 -11 q 676 14 693 -11 l 458 371 l 457 374 l 239 374 l 239 50 q 226 13 239 26 q 189 0 213 0 q 152 13 165 0 q 139 50 139 26 l 139 874 q 152 910 139 897 q 189 924 165 924 l 514 924 q 703 858 638 924 q 768 669 768 793 l 768 628 q 718 456 768 519 q 572 378 668 393 l 763 65 m 239 474 l 514 474 q 632 510 596 474 q 668 628 668 546 l 668 669 q 632 788 668 751 q 514 824 596 824 l 239 824 l 239 474 z "},"Ȓ":{"ha":851,"x_min":139,"x_max":771,"o":"m 763 65 q 771 39 771 51 q 744 -3 771 15 q 717 -11 731 -11 q 676 14 693 -11 l 458 371 l 457 374 l 239 374 l 239 50 q 226 13 239 26 q 189 0 213 0 q 152 13 165 0 q 139 50 139 26 l 139 874 q 152 910 139 897 q 189 924 165 924 l 514 924 q 703 858 638 924 q 768 669 768 793 l 768 628 q 718 456 768 519 q 572 378 668 393 l 763 65 m 239 474 l 514 474 q 632 510 596 474 q 668 628 668 546 l 668 669 q 632 788 668 751 q 514 824 596 824 l 239 824 l 239 474 m 426 1247 q 563 1210 515 1247 q 611 1104 611 1174 l 611 1082 q 567 1038 611 1038 q 522 1071 522 1038 l 522 1104 q 501 1150 522 1136 q 426 1164 481 1164 q 351 1150 372 1164 q 331 1104 331 1136 l 331 1082 q 286 1038 331 1038 q 242 1082 242 1038 l 242 1104 q 290 1210 242 1174 q 426 1247 338 1247 z "},"S":{"ha":944,"x_min":110,"x_max":833,"o":"m 371 0 q 186 51 250 0 q 111 210 122 103 q 122 248 110 235 q 160 261 135 261 q 211 211 206 261 q 256 124 219 149 q 371 100 292 100 l 571 100 q 669 115 635 100 q 719 164 704 129 q 733 261 733 199 q 718 360 733 325 q 668 410 703 394 q 571 425 633 425 l 392 425 q 203 487 265 425 q 142 675 142 549 q 203 863 142 803 q 390 924 264 924 l 567 924 q 741 876 681 924 q 813 728 801 828 q 802 690 815 703 q 764 676 789 676 q 728 688 740 676 q 713 725 717 700 q 672 801 706 779 q 567 824 639 824 l 390 824 q 274 792 306 824 q 242 675 242 761 q 274 558 242 590 q 392 525 307 525 l 571 525 q 769 460 706 525 q 833 261 833 396 q 769 63 833 126 q 571 0 706 0 l 371 0 z "},"Ś":{"ha":944,"x_min":111,"x_max":833,"o":"m 371 0 q 186 51 250 0 q 111 210 122 103 q 122 248 110 235 q 160 261 135 261 q 211 211 206 261 q 256 124 219 149 q 371 100 292 100 l 571 100 q 669 115 635 100 q 719 164 704 129 q 733 261 733 199 q 718 360 733 325 q 668 410 703 394 q 571 425 633 425 l 392 425 q 203 487 265 425 q 142 675 142 549 q 203 863 142 803 q 390 924 264 924 l 567 924 q 741 876 681 924 q 813 728 801 828 q 802 690 815 703 q 764 676 789 676 q 728 688 740 676 q 713 725 717 700 q 672 801 706 779 q 567 824 639 824 l 390 824 q 274 792 306 824 q 242 675 242 761 q 274 558 242 590 q 392 525 307 525 l 571 525 q 769 460 706 525 q 833 261 833 396 q 769 63 833 126 q 571 0 706 0 l 371 0 m 446 1010 q 428 1042 428 1024 q 440 1072 428 1058 l 549 1201 q 581 1219 563 1219 q 611 1207 596 1219 q 629 1175 629 1193 q 617 1144 629 1160 l 508 1015 q 476 997 494 997 q 446 1010 460 997 z "},"Š":{"ha":944,"x_min":111,"x_max":833,"o":"m 371 0 q 186 51 250 0 q 111 210 122 103 q 122 248 110 235 q 160 261 135 261 q 211 211 206 261 q 256 124 219 149 q 371 100 292 100 l 571 100 q 669 115 635 100 q 719 164 704 129 q 733 261 733 199 q 718 360 733 325 q 668 410 703 394 q 571 425 633 425 l 392 425 q 203 487 265 425 q 142 675 142 549 q 203 863 142 803 q 390 924 264 924 l 567 924 q 741 876 681 924 q 813 728 801 828 q 802 690 815 703 q 764 676 789 676 q 728 688 740 676 q 713 725 717 700 q 672 801 706 779 q 567 824 639 824 l 390 824 q 274 792 306 824 q 242 675 242 761 q 274 558 242 590 q 392 525 307 525 l 571 525 q 769 460 706 525 q 833 261 833 396 q 769 63 833 126 q 571 0 706 0 l 371 0 m 313 1206 q 346 1192 332 1206 l 478 1082 l 483 1082 l 615 1192 q 649 1206 629 1206 q 681 1192 667 1206 q 694 1160 694 1179 q 689 1138 694 1149 q 674 1121 683 1128 l 542 1011 q 485 990 517 990 l 476 990 q 419 1011 444 990 l 288 1121 q 272 1138 278 1128 q 267 1160 267 1149 q 280 1192 267 1179 q 313 1206 293 1206 z "},"Ş":{"ha":944,"x_min":110,"x_max":833,"o":"m 833 261 q 769 63 833 126 q 571 0 706 0 l 568 0 q 597 -25 574 -10 q 646 -69 626 -44 q 665 -135 665 -93 q 508 -292 665 -292 q 412 -259 444 -292 q 379 -162 379 -226 q 422 -119 379 -119 q 465 -162 465 -119 q 474 -198 465 -190 q 508 -206 482 -206 q 565 -192 551 -206 q 579 -135 579 -178 q 574 -117 579 -124 q 549 -96 568 -110 q 503 -56 521 -76 q 479 0 485 -36 l 371 0 q 186 51 250 0 q 111 210 122 103 q 122 248 110 235 q 160 261 135 261 q 211 211 206 261 q 256 124 219 149 q 371 100 292 100 l 571 100 q 669 115 635 100 q 719 164 704 129 q 733 261 733 199 q 718 360 733 325 q 668 410 703 394 q 571 425 633 425 l 392 425 q 203 487 265 425 q 142 675 142 549 q 203 863 142 803 q 390 924 264 924 l 567 924 q 741 876 681 924 q 813 728 801 828 q 802 690 815 703 q 764 676 789 676 q 728 688 740 676 q 713 725 717 700 q 672 801 706 779 q 567 824 639 824 l 390 824 q 274 792 306 824 q 242 675 242 761 q 274 558 242 590 q 392 525 307 525 l 571 525 q 769 460 706 525 q 833 261 833 396 z "},"Ŝ":{"ha":944,"x_min":111,"x_max":833,"o":"m 371 0 q 186 51 250 0 q 111 210 122 103 q 122 248 110 235 q 160 261 135 261 q 211 211 206 261 q 256 124 219 149 q 371 100 292 100 l 571 100 q 669 115 635 100 q 719 164 704 129 q 733 261 733 199 q 718 360 733 325 q 668 410 703 394 q 571 425 633 425 l 392 425 q 203 487 265 425 q 142 675 142 549 q 203 863 142 803 q 390 924 264 924 l 567 924 q 741 876 681 924 q 813 728 801 828 q 802 690 815 703 q 764 676 789 676 q 728 688 740 676 q 713 725 717 700 q 672 801 706 779 q 567 824 639 824 l 390 824 q 274 792 306 824 q 242 675 242 761 q 274 558 242 590 q 392 525 307 525 l 571 525 q 769 460 706 525 q 833 261 833 396 q 769 63 833 126 q 571 0 706 0 l 371 0 m 349 999 q 318 1011 331 999 q 306 1042 306 1024 q 317 1071 306 1057 l 421 1185 q 474 1208 443 1208 l 488 1208 q 540 1185 518 1208 l 644 1071 q 656 1042 656 1057 q 643 1011 656 1024 q 613 999 631 999 q 581 1013 593 999 l 488 1122 l 474 1122 l 381 1013 q 349 999 367 999 z "},"Ș":{"ha":944,"x_min":111,"x_max":833,"o":"m 371 0 q 186 51 250 0 q 111 210 122 103 q 122 248 110 235 q 160 261 135 261 q 211 211 206 261 q 256 124 219 149 q 371 100 292 100 l 571 100 q 669 115 635 100 q 719 164 704 129 q 733 261 733 199 q 718 360 733 325 q 668 410 703 394 q 571 425 633 425 l 392 425 q 203 487 265 425 q 142 675 142 549 q 203 863 142 803 q 390 924 264 924 l 567 924 q 741 876 681 924 q 813 728 801 828 q 802 690 815 703 q 764 676 789 676 q 728 688 740 676 q 713 725 717 700 q 672 801 706 779 q 567 824 639 824 l 390 824 q 274 792 306 824 q 242 675 242 761 q 274 558 242 590 q 392 525 307 525 l 571 525 q 769 460 706 525 q 833 261 833 396 q 769 63 833 126 q 571 0 706 0 l 371 0 m 561 -133 q 554 -158 561 -149 l 496 -282 q 464 -304 483 -304 q 437 -295 447 -304 q 429 -269 426 -286 l 458 -106 q 499 -69 461 -69 l 522 -69 q 561 -108 561 -69 l 561 -133 z "},"ẞ":{"ha":824,"x_min":139,"x_max":713,"o":"m 189 -19 q 153 -5 168 -19 q 139 31 139 10 l 139 667 q 200 855 139 794 q 388 915 261 915 l 399 915 q 581 859 521 915 q 646 685 642 803 q 640 651 646 665 q 622 622 635 638 l 543 535 q 672 391 632 465 q 713 224 713 317 q 653 40 713 100 q 469 -19 593 -19 l 372 -19 q 337 -5 351 -19 q 322 31 322 10 q 337 66 322 51 q 372 81 351 81 l 469 81 q 582 111 551 81 q 613 224 613 142 q 573 362 613 301 q 439 486 533 422 l 439 565 l 546 688 q 510 788 543 760 q 399 815 478 815 l 388 815 q 271 784 303 815 q 239 667 239 753 l 239 31 q 224 -5 239 10 q 189 -19 210 -19 z "},"Ə":{"ha":994,"x_min":111,"x_max":883,"o":"m 414 0 q 185 74 258 0 q 111 303 111 147 l 111 440 l 783 440 l 783 617 q 765 738 783 694 q 702 801 746 782 q 581 819 658 819 l 414 819 q 292 801 336 819 q 230 738 249 782 q 211 617 211 694 q 197 581 211 596 q 161 567 182 567 q 126 581 140 567 q 111 617 111 596 q 185 847 111 774 q 414 919 258 919 l 581 919 q 810 847 738 919 q 883 617 883 774 l 883 303 q 810 74 883 147 q 581 0 738 0 l 414 0 m 581 100 q 702 119 658 100 q 765 181 746 138 q 783 303 783 225 l 783 340 l 211 340 l 211 303 q 230 181 211 225 q 292 119 249 138 q 414 100 336 100 l 581 100 z "},"T":{"ha":828,"x_min":35,"x_max":793,"o":"m 414 0 q 377 13 390 0 q 364 50 364 26 l 364 824 l 85 824 q 48 837 61 824 q 35 874 35 850 q 48 910 35 897 q 85 924 61 924 l 743 924 q 780 910 767 924 q 793 874 793 897 q 780 837 793 850 q 743 824 767 824 l 464 824 l 464 50 q 451 13 464 26 q 414 0 438 0 z "},"Ŧ":{"ha":828,"x_min":35,"x_max":793,"o":"m 743 924 q 780 910 767 924 q 793 874 793 897 q 780 837 793 850 q 743 824 767 824 l 464 824 l 464 506 l 596 506 q 639 463 639 506 q 596 419 639 419 l 464 419 l 464 50 q 451 13 464 26 q 414 0 438 0 q 377 13 390 0 q 364 50 364 26 l 364 419 l 233 419 q 190 463 190 419 q 233 506 190 506 l 364 506 l 364 824 l 85 824 q 48 837 61 824 q 35 874 35 850 q 48 910 35 897 q 85 924 61 924 l 743 924 z "},"Ť":{"ha":828,"x_min":35,"x_max":793,"o":"m 414 0 q 377 13 390 0 q 364 50 364 26 l 364 824 l 85 824 q 48 837 61 824 q 35 874 35 850 q 48 910 35 897 q 85 924 61 924 l 743 924 q 780 910 767 924 q 793 874 793 897 q 780 837 793 850 q 743 824 767 824 l 464 824 l 464 50 q 451 13 464 26 q 414 0 438 0 m 247 1206 q 281 1192 267 1206 l 413 1082 l 418 1082 l 550 1192 q 583 1206 564 1206 q 615 1192 601 1206 q 629 1160 629 1179 q 624 1138 629 1149 q 608 1121 618 1128 l 476 1011 q 419 990 451 990 l 411 990 q 354 1011 379 990 l 222 1121 q 207 1138 213 1128 q 201 1160 201 1149 q 215 1192 201 1179 q 247 1206 228 1206 z "},"Ţ":{"ha":828,"x_min":35,"x_max":793,"o":"m 743 924 q 780 910 767 924 q 793 874 793 897 q 780 837 793 850 q 743 824 767 824 l 464 824 l 464 50 q 453 15 464 29 q 460 -3 454 4 q 486 -25 467 -11 q 535 -69 515 -44 q 554 -135 554 -93 q 397 -292 554 -292 q 301 -259 333 -292 q 268 -162 268 -226 q 311 -119 268 -119 q 354 -162 354 -119 q 363 -198 354 -190 q 397 -206 371 -206 q 454 -192 440 -206 q 468 -135 468 -178 q 463 -117 468 -124 q 438 -96 457 -110 q 387 -51 407 -76 q 367 21 367 -25 l 367 29 q 364 50 364 40 l 364 824 l 85 824 q 48 837 61 824 q 35 874 35 850 q 48 910 35 897 q 85 924 61 924 l 743 924 z "},"Ț":{"ha":828,"x_min":35,"x_max":793,"o":"m 414 0 q 377 13 390 0 q 364 50 364 26 l 364 824 l 85 824 q 48 837 61 824 q 35 874 35 850 q 48 910 35 897 q 85 924 61 924 l 743 924 q 780 910 767 924 q 793 874 793 897 q 780 837 793 850 q 743 824 767 824 l 464 824 l 464 50 q 451 13 464 26 q 414 0 438 0 m 450 -133 q 443 -158 450 -149 l 385 -282 q 353 -304 372 -304 q 326 -295 336 -304 q 318 -269 315 -286 l 347 -106 q 388 -69 350 -69 l 411 -69 q 450 -108 450 -69 l 450 -133 z "},"U":{"ha":1022,"x_min":125,"x_max":897,"o":"m 428 0 q 199 74 272 0 q 125 303 125 147 l 125 874 q 138 910 125 897 q 175 924 151 924 q 212 910 199 924 q 225 874 225 897 l 225 303 q 244 181 225 225 q 306 119 263 138 q 428 100 350 100 l 594 100 q 716 119 672 100 q 778 181 760 138 q 797 303 797 225 l 797 874 q 810 910 797 897 q 847 924 824 924 q 884 910 871 924 q 897 874 897 897 l 897 303 q 824 74 897 147 q 594 0 751 0 l 428 0 z "},"Ú":{"ha":1022,"x_min":125,"x_max":897,"o":"m 428 0 q 199 74 272 0 q 125 303 125 147 l 125 874 q 138 910 125 897 q 175 924 151 924 q 212 910 199 924 q 225 874 225 897 l 225 303 q 244 181 225 225 q 306 119 263 138 q 428 100 350 100 l 594 100 q 716 119 672 100 q 778 181 760 138 q 797 303 797 225 l 797 874 q 810 910 797 897 q 847 924 824 924 q 884 910 871 924 q 897 874 897 897 l 897 303 q 824 74 897 147 q 594 0 751 0 l 428 0 m 478 1010 q 460 1042 460 1024 q 472 1072 460 1058 l 581 1201 q 613 1219 594 1219 q 643 1207 628 1219 q 661 1175 661 1193 q 649 1144 661 1160 l 540 1015 q 508 997 526 997 q 478 1010 492 997 z "},"Ŭ":{"ha":1022,"x_min":125,"x_max":897,"o":"m 428 0 q 199 74 272 0 q 125 303 125 147 l 125 874 q 138 910 125 897 q 175 924 151 924 q 212 910 199 924 q 225 874 225 897 l 225 303 q 244 181 225 225 q 306 119 263 138 q 428 100 350 100 l 594 100 q 716 119 672 100 q 778 181 760 138 q 797 303 797 225 l 797 874 q 810 910 797 897 q 847 924 824 924 q 884 910 871 924 q 897 874 897 897 l 897 303 q 824 74 897 147 q 594 0 751 0 l 428 0 m 526 993 q 390 1030 438 993 q 342 1136 342 1067 l 342 1158 q 386 1203 342 1203 q 431 1158 431 1203 l 431 1136 q 451 1090 431 1104 q 526 1076 472 1076 q 601 1090 581 1076 q 622 1136 622 1104 l 622 1169 q 667 1203 622 1203 q 711 1158 711 1203 l 711 1136 q 663 1030 711 1067 q 526 993 615 993 z "},"Û":{"ha":1022,"x_min":125,"x_max":897,"o":"m 428 0 q 199 74 272 0 q 125 303 125 147 l 125 874 q 138 910 125 897 q 175 924 151 924 q 212 910 199 924 q 225 874 225 897 l 225 303 q 244 181 225 225 q 306 119 263 138 q 428 100 350 100 l 594 100 q 716 119 672 100 q 778 181 760 138 q 797 303 797 225 l 797 874 q 810 910 797 897 q 847 924 824 924 q 884 910 871 924 q 897 874 897 897 l 897 303 q 824 74 897 147 q 594 0 751 0 l 428 0 m 342 990 q 309 1004 322 990 q 296 1036 296 1018 q 301 1058 296 1047 q 317 1075 307 1068 l 449 1185 q 506 1206 474 1206 l 514 1206 q 571 1185 546 1206 l 703 1075 q 718 1058 713 1068 q 724 1036 724 1047 q 710 1004 724 1018 q 678 990 696 990 q 644 1004 658 990 l 513 1114 l 507 1114 l 375 1004 q 342 990 361 990 z "},"Ȕ":{"ha":1022,"x_min":125,"x_max":897,"o":"m 476 1033 q 449 1022 464 1022 q 419 1038 431 1022 l 322 1154 q 311 1182 311 1165 q 326 1210 311 1199 q 354 1221 339 1221 q 383 1206 372 1221 l 481 1089 q 492 1061 492 1078 q 476 1033 492 1044 m 635 1033 q 607 1022 622 1022 q 578 1038 589 1022 l 481 1154 q 469 1182 469 1165 q 485 1210 469 1199 q 513 1221 497 1221 q 542 1206 531 1221 l 639 1089 q 650 1061 650 1078 q 635 1033 650 1044 m 428 0 q 199 74 272 0 q 125 303 125 147 l 125 874 q 138 910 125 897 q 175 924 151 924 q 212 910 199 924 q 225 874 225 897 l 225 303 q 244 181 225 225 q 306 119 263 138 q 428 100 350 100 l 594 100 q 716 119 672 100 q 778 181 760 138 q 797 303 797 225 l 797 874 q 810 910 797 897 q 847 924 824 924 q 884 910 871 924 q 897 874 897 897 l 897 303 q 824 74 897 147 q 594 0 751 0 l 428 0 z "},"Ü":{"ha":1022,"x_min":125,"x_max":897,"o":"m 428 0 q 199 74 272 0 q 125 303 125 147 l 125 874 q 138 910 125 897 q 175 924 151 924 q 212 910 199 924 q 225 874 225 897 l 225 303 q 244 181 225 225 q 306 119 263 138 q 428 100 350 100 l 594 100 q 716 119 672 100 q 778 181 760 138 q 797 303 797 225 l 797 874 q 810 910 797 897 q 847 924 824 924 q 884 910 871 924 q 897 874 897 897 l 897 303 q 824 74 897 147 q 594 0 751 0 l 428 0 m 386 1032 q 349 1045 363 1032 q 336 1082 336 1058 l 336 1114 q 386 1163 336 1163 l 417 1163 q 464 1114 464 1163 l 464 1082 q 451 1045 464 1058 q 417 1032 439 1032 l 386 1032 m 608 1032 q 572 1045 585 1032 q 558 1082 558 1058 l 558 1114 q 608 1163 558 1163 l 639 1163 q 686 1114 686 1163 l 686 1082 q 674 1045 686 1058 q 639 1032 661 1032 l 608 1032 z "},"Ụ":{"ha":1022,"x_min":125,"x_max":897,"o":"m 428 0 q 199 74 272 0 q 125 303 125 147 l 125 874 q 138 910 125 897 q 175 924 151 924 q 212 910 199 924 q 225 874 225 897 l 225 303 q 244 181 225 225 q 306 119 263 138 q 428 100 350 100 l 594 100 q 716 119 672 100 q 778 181 760 138 q 797 303 797 225 l 797 874 q 810 910 797 897 q 847 924 824 924 q 884 910 871 924 q 897 874 897 897 l 897 303 q 824 74 897 147 q 594 0 751 0 l 428 0 m 497 -215 q 460 -202 474 -215 q 447 -165 447 -189 l 447 -133 q 497 -85 447 -85 l 528 -85 q 575 -133 575 -85 l 575 -165 q 563 -202 575 -189 q 528 -215 550 -215 l 497 -215 z "},"Ù":{"ha":1022,"x_min":125,"x_max":897,"o":"m 428 0 q 199 74 272 0 q 125 303 125 147 l 125 874 q 138 910 125 897 q 175 924 151 924 q 212 910 199 924 q 225 874 225 897 l 225 303 q 244 181 225 225 q 306 119 263 138 q 428 100 350 100 l 594 100 q 716 119 672 100 q 778 181 760 138 q 797 303 797 225 l 797 874 q 810 910 797 897 q 847 924 824 924 q 884 910 871 924 q 897 874 897 897 l 897 303 q 824 74 897 147 q 594 0 751 0 l 428 0 m 565 992 q 535 979 550 979 q 503 997 517 979 l 394 1126 q 382 1157 382 1142 q 400 1189 382 1175 q 431 1201 414 1201 q 463 1183 449 1201 l 571 1054 q 583 1024 583 1040 q 565 992 583 1006 z "},"Ủ":{"ha":1022,"x_min":125,"x_max":897,"o":"m 428 0 q 199 74 272 0 q 125 303 125 147 l 125 874 q 138 910 125 897 q 175 924 151 924 q 212 910 199 924 q 225 874 225 897 l 225 303 q 244 181 225 225 q 306 119 263 138 q 428 100 350 100 l 594 100 q 716 119 672 100 q 778 181 760 138 q 797 303 797 225 l 797 874 q 810 910 797 897 q 847 924 824 924 q 884 910 871 924 q 897 874 897 897 l 897 303 q 824 74 897 147 q 594 0 751 0 l 428 0 m 511 999 q 483 1006 492 999 q 475 1033 475 1014 q 494 1094 475 1072 q 542 1133 513 1115 q 566 1150 561 1144 q 571 1165 571 1156 q 561 1206 571 1196 q 521 1217 551 1217 q 481 1206 490 1217 q 471 1165 471 1196 q 463 1138 471 1146 q 435 1129 454 1129 q 407 1138 415 1129 q 399 1165 399 1146 q 521 1288 399 1288 q 643 1165 643 1288 q 625 1108 643 1129 q 579 1071 607 1088 q 553 1051 558 1058 q 547 1033 547 1044 q 539 1006 547 1014 q 511 999 531 999 z "},"Ư":{"ha":1022,"x_min":125,"x_max":1018,"o":"m 971 1044 q 1018 997 1018 1044 l 1018 975 q 897 850 1018 868 l 897 303 q 824 74 897 147 q 594 0 751 0 l 428 0 q 199 74 272 0 q 125 303 125 147 l 125 874 q 138 910 125 897 q 175 924 151 924 q 212 910 199 924 q 225 874 225 897 l 225 303 q 244 181 225 225 q 306 119 263 138 q 428 100 350 100 l 594 100 q 716 119 672 100 q 778 181 760 138 q 797 303 797 225 l 797 874 q 810 910 797 897 q 847 924 824 924 q 908 934 892 924 q 924 975 924 944 l 924 1010 q 971 1044 924 1044 z "},"Ứ":{"ha":1022,"x_min":125,"x_max":1018,"o":"m 971 1044 q 1018 997 1018 1044 l 1018 975 q 897 850 1018 868 l 897 303 q 824 74 897 147 q 594 0 751 0 l 428 0 q 199 74 272 0 q 125 303 125 147 l 125 874 q 138 910 125 897 q 175 924 151 924 q 212 910 199 924 q 225 874 225 897 l 225 303 q 244 181 225 225 q 306 119 263 138 q 428 100 350 100 l 594 100 q 716 119 672 100 q 778 181 760 138 q 797 303 797 225 l 797 874 q 810 910 797 897 q 847 924 824 924 q 908 934 892 924 q 924 975 924 944 l 924 1010 q 971 1044 924 1044 m 478 1010 q 460 1042 460 1024 q 472 1072 460 1058 l 581 1201 q 613 1219 594 1219 q 643 1207 628 1219 q 661 1175 661 1193 q 649 1144 661 1160 l 540 1015 q 508 997 526 997 q 478 1010 492 997 z "},"Ự":{"ha":1022,"x_min":125,"x_max":1018,"o":"m 971 1044 q 1018 997 1018 1044 l 1018 975 q 897 850 1018 868 l 897 303 q 824 74 897 147 q 594 0 751 0 l 428 0 q 199 74 272 0 q 125 303 125 147 l 125 874 q 138 910 125 897 q 175 924 151 924 q 212 910 199 924 q 225 874 225 897 l 225 303 q 244 181 225 225 q 306 119 263 138 q 428 100 350 100 l 594 100 q 716 119 672 100 q 778 181 760 138 q 797 303 797 225 l 797 874 q 810 910 797 897 q 847 924 824 924 q 908 934 892 924 q 924 975 924 944 l 924 1010 q 971 1044 924 1044 m 497 -215 q 460 -202 474 -215 q 447 -165 447 -189 l 447 -133 q 497 -85 447 -85 l 528 -85 q 575 -133 575 -85 l 575 -165 q 563 -202 575 -189 q 528 -215 550 -215 l 497 -215 z "},"Ừ":{"ha":1022,"x_min":125,"x_max":1018,"o":"m 971 1044 q 1018 997 1018 1044 l 1018 975 q 897 850 1018 868 l 897 303 q 824 74 897 147 q 594 0 751 0 l 428 0 q 199 74 272 0 q 125 303 125 147 l 125 874 q 138 910 125 897 q 175 924 151 924 q 212 910 199 924 q 225 874 225 897 l 225 303 q 244 181 225 225 q 306 119 263 138 q 428 100 350 100 l 594 100 q 716 119 672 100 q 778 181 760 138 q 797 303 797 225 l 797 874 q 810 910 797 897 q 847 924 824 924 q 908 934 892 924 q 924 975 924 944 l 924 1010 q 971 1044 924 1044 m 565 992 q 535 979 550 979 q 503 997 517 979 l 394 1126 q 382 1157 382 1142 q 400 1189 382 1175 q 431 1201 414 1201 q 463 1183 449 1201 l 571 1054 q 583 1024 583 1040 q 565 992 583 1006 z "},"Ử":{"ha":1022,"x_min":125,"x_max":1018,"o":"m 971 1044 q 1018 997 1018 1044 l 1018 975 q 897 850 1018 868 l 897 303 q 824 74 897 147 q 594 0 751 0 l 428 0 q 199 74 272 0 q 125 303 125 147 l 125 874 q 138 910 125 897 q 175 924 151 924 q 212 910 199 924 q 225 874 225 897 l 225 303 q 244 181 225 225 q 306 119 263 138 q 428 100 350 100 l 594 100 q 716 119 672 100 q 778 181 760 138 q 797 303 797 225 l 797 874 q 810 910 797 897 q 847 924 824 924 q 908 934 892 924 q 924 975 924 944 l 924 1010 q 971 1044 924 1044 m 511 999 q 483 1006 492 999 q 475 1033 475 1014 q 494 1094 475 1072 q 542 1133 513 1115 q 566 1150 561 1144 q 571 1165 571 1156 q 561 1206 571 1196 q 521 1217 551 1217 q 481 1206 490 1217 q 471 1165 471 1196 q 463 1138 471 1146 q 435 1129 454 1129 q 407 1138 415 1129 q 399 1165 399 1146 q 521 1288 399 1288 q 643 1165 643 1288 q 625 1108 643 1129 q 579 1071 607 1088 q 553 1051 558 1058 q 547 1033 547 1044 q 539 1006 547 1014 q 511 999 531 999 z "},"Ữ":{"ha":1022,"x_min":125,"x_max":1018,"o":"m 971 1044 q 1018 997 1018 1044 l 1018 975 q 897 850 1018 868 l 897 303 q 824 74 897 147 q 594 0 751 0 l 428 0 q 199 74 272 0 q 125 303 125 147 l 125 874 q 138 910 125 897 q 175 924 151 924 q 212 910 199 924 q 225 874 225 897 l 225 303 q 244 181 225 225 q 306 119 263 138 q 428 100 350 100 l 594 100 q 716 119 672 100 q 778 181 760 138 q 797 303 797 225 l 797 874 q 810 910 797 897 q 847 924 824 924 q 908 934 892 924 q 924 975 924 944 l 924 1010 q 971 1044 924 1044 m 607 1014 q 545 1028 569 1014 q 496 1068 521 1043 q 467 1094 478 1088 q 440 1100 456 1100 q 408 1090 421 1100 q 383 1051 394 1079 q 347 1019 372 1019 q 331 1022 342 1019 q 300 1056 300 1031 q 304 1075 300 1065 q 359 1158 326 1132 q 440 1183 392 1183 q 504 1168 479 1183 q 556 1126 529 1153 q 583 1103 574 1108 q 607 1097 593 1097 q 634 1107 624 1097 q 654 1140 644 1117 q 692 1174 667 1174 q 706 1172 701 1174 q 738 1138 738 1165 q 735 1121 738 1126 q 685 1040 715 1067 q 607 1014 654 1014 z "},"Ű":{"ha":1022,"x_min":125,"x_max":897,"o":"m 428 0 q 199 74 272 0 q 125 303 125 147 l 125 874 q 138 910 125 897 q 175 924 151 924 q 212 910 199 924 q 225 874 225 897 l 225 303 q 244 181 225 225 q 306 119 263 138 q 428 100 350 100 l 594 100 q 716 119 672 100 q 778 181 760 138 q 797 303 797 225 l 797 874 q 810 910 797 897 q 847 924 824 924 q 884 910 871 924 q 897 874 897 897 l 897 303 q 824 74 897 147 q 594 0 751 0 l 428 0 m 386 1010 q 368 1042 368 1024 q 381 1072 368 1058 l 489 1201 q 521 1219 503 1219 q 551 1207 536 1219 q 569 1175 569 1193 q 557 1144 569 1160 l 449 1015 q 417 997 435 997 q 386 1010 401 997 m 583 1010 q 565 1042 565 1024 q 578 1072 565 1058 l 686 1201 q 718 1219 700 1219 q 749 1207 733 1219 q 767 1175 767 1193 q 754 1144 767 1160 l 646 1015 q 614 997 632 997 q 583 1010 599 997 z "},"Ȗ":{"ha":1022,"x_min":125,"x_max":897,"o":"m 428 0 q 199 74 272 0 q 125 303 125 147 l 125 874 q 138 910 125 897 q 175 924 151 924 q 212 910 199 924 q 225 874 225 897 l 225 303 q 244 181 225 225 q 306 119 263 138 q 428 100 350 100 l 594 100 q 716 119 672 100 q 778 181 760 138 q 797 303 797 225 l 797 874 q 810 910 797 897 q 847 924 824 924 q 884 910 871 924 q 897 874 897 897 l 897 303 q 824 74 897 147 q 594 0 751 0 l 428 0 m 511 1247 q 648 1210 600 1247 q 696 1104 696 1174 l 696 1082 q 651 1038 696 1038 q 607 1071 607 1038 l 607 1104 q 586 1150 607 1136 q 511 1164 565 1164 q 436 1150 457 1164 q 415 1104 415 1136 l 415 1082 q 371 1038 415 1038 q 326 1082 326 1038 l 326 1104 q 374 1210 326 1174 q 511 1247 422 1247 z "},"Ū":{"ha":1022,"x_min":125,"x_max":897,"o":"m 428 0 q 199 74 272 0 q 125 303 125 147 l 125 874 q 138 910 125 897 q 175 924 151 924 q 212 910 199 924 q 225 874 225 897 l 225 303 q 244 181 225 225 q 306 119 263 138 q 428 100 350 100 l 594 100 q 716 119 672 100 q 778 181 760 138 q 797 303 797 225 l 797 874 q 810 910 797 897 q 847 924 824 924 q 884 910 871 924 q 897 874 897 897 l 897 303 q 824 74 897 147 q 594 0 751 0 l 428 0 m 331 1056 q 281 1106 281 1056 q 331 1156 281 1156 l 682 1156 q 732 1106 732 1156 q 682 1056 732 1056 l 331 1056 z "},"Ų":{"ha":1022,"x_min":125,"x_max":897,"o":"m 725 -61 q 708 -99 708 -82 q 722 -124 708 -114 q 757 -135 735 -135 q 788 -128 774 -135 q 808 -119 803 -122 q 828 -115 819 -115 q 863 -128 851 -115 q 874 -162 874 -142 q 854 -193 874 -182 q 757 -224 808 -224 q 659 -187 699 -224 q 619 -99 619 -151 q 653 -8 619 -53 l 663 4 q 594 0 629 0 l 428 0 q 199 74 272 0 q 125 303 125 147 l 125 874 q 138 910 125 897 q 175 924 151 924 q 212 910 199 924 q 225 874 225 897 l 225 303 q 244 181 225 225 q 306 119 263 138 q 428 100 350 100 l 594 100 q 716 119 672 100 q 778 181 760 138 q 797 303 797 225 l 797 874 q 810 910 797 897 q 847 924 824 924 q 884 910 871 924 q 897 874 897 897 l 897 303 q 839 90 897 163 q 833 82 836 85 l 725 -61 z "},"Ů":{"ha":1022,"x_min":125,"x_max":897,"o":"m 428 0 q 199 74 272 0 q 125 303 125 147 l 125 874 q 138 910 125 897 q 175 924 151 924 q 212 910 199 924 q 225 874 225 897 l 225 303 q 244 181 225 225 q 306 119 263 138 q 428 100 350 100 l 594 100 q 716 119 672 100 q 778 181 760 138 q 797 303 797 225 l 797 874 q 810 910 797 897 q 847 924 824 924 q 884 910 871 924 q 897 874 897 897 l 897 303 q 824 74 897 147 q 594 0 751 0 l 428 0 m 511 999 q 433 1027 461 999 q 404 1106 404 1056 q 433 1184 404 1156 q 511 1213 461 1213 q 590 1184 561 1213 q 618 1106 618 1156 q 590 1027 618 1056 q 511 999 561 999 m 511 1072 q 540 1078 535 1072 q 544 1106 544 1083 q 539 1134 544 1129 q 511 1139 533 1139 q 483 1133 488 1139 q 478 1106 478 1128 q 483 1077 478 1082 q 511 1072 489 1072 z "},"Ũ":{"ha":1022,"x_min":125,"x_max":897,"o":"m 428 0 q 199 74 272 0 q 125 303 125 147 l 125 874 q 138 910 125 897 q 175 924 151 924 q 212 910 199 924 q 225 874 225 897 l 225 303 q 244 181 225 225 q 306 119 263 138 q 428 100 350 100 l 594 100 q 716 119 672 100 q 778 181 760 138 q 797 303 797 225 l 797 874 q 810 910 797 897 q 847 924 824 924 q 884 910 871 924 q 897 874 897 897 l 897 303 q 824 74 897 147 q 594 0 751 0 l 428 0 m 607 1014 q 545 1028 569 1014 q 496 1068 521 1043 q 467 1094 478 1088 q 440 1100 456 1100 q 408 1090 421 1100 q 383 1051 394 1079 q 347 1019 372 1019 q 331 1022 342 1019 q 300 1056 300 1031 q 304 1075 300 1065 q 359 1158 326 1132 q 440 1183 392 1183 q 504 1168 479 1183 q 556 1126 529 1153 q 583 1103 574 1108 q 607 1097 593 1097 q 634 1107 624 1097 q 654 1140 644 1117 q 692 1174 667 1174 q 706 1172 701 1174 q 738 1138 738 1165 q 735 1121 738 1126 q 685 1040 715 1067 q 607 1014 654 1014 z "},"V":{"ha":875,"x_min":28,"x_max":847,"o":"m 432 0 q 383 38 400 0 l 33 853 q 28 878 28 864 q 60 918 28 906 q 85 924 71 924 q 125 892 113 924 l 440 158 l 750 892 q 790 924 763 924 q 815 918 803 924 q 847 876 847 906 q 842 853 847 864 l 490 38 q 438 0 472 0 l 432 0 z "},"W":{"ha":1226,"x_min":28,"x_max":1197,"o":"m 1163 919 q 1197 876 1197 910 q 1194 857 1197 864 l 933 42 q 882 0 918 0 l 878 0 q 826 42 839 0 l 610 739 l 393 42 q 374 10 385 19 q 342 0 364 0 l 339 0 q 310 10 321 0 q 293 42 299 19 l 32 857 q 28 878 28 868 q 64 919 28 907 q 85 924 76 924 q 126 888 114 924 l 347 194 l 557 882 q 614 924 569 924 l 615 924 q 669 882 657 924 l 879 194 l 1100 888 q 1140 924 1111 924 q 1163 919 1150 924 z "},"Ẃ":{"ha":1226,"x_min":28,"x_max":1197,"o":"m 1163 919 q 1197 876 1197 910 q 1194 857 1197 864 l 933 42 q 882 0 918 0 l 878 0 q 826 42 839 0 l 610 739 l 393 42 q 374 10 385 19 q 342 0 364 0 l 339 0 q 310 10 321 0 q 293 42 299 19 l 32 857 q 28 878 28 868 q 64 919 28 907 q 85 924 76 924 q 126 888 114 924 l 347 194 l 557 882 q 614 924 569 924 l 615 924 q 669 882 657 924 l 879 194 l 1100 888 q 1140 924 1111 924 q 1163 919 1150 924 m 581 1010 q 563 1042 563 1024 q 575 1072 563 1058 l 683 1201 q 715 1219 697 1219 q 746 1207 731 1219 q 764 1175 764 1193 q 751 1144 764 1160 l 643 1015 q 611 997 629 997 q 581 1010 594 997 z "},"Ŵ":{"ha":1226,"x_min":28,"x_max":1197,"o":"m 1163 919 q 1197 876 1197 910 q 1194 857 1197 864 l 933 42 q 882 0 918 0 l 878 0 q 826 42 839 0 l 610 739 l 393 42 q 374 10 385 19 q 342 0 364 0 l 339 0 q 310 10 321 0 q 293 42 299 19 l 32 857 q 28 878 28 868 q 64 919 28 907 q 85 924 76 924 q 126 888 114 924 l 347 194 l 557 882 q 614 924 569 924 l 615 924 q 669 882 657 924 l 879 194 l 1100 888 q 1140 924 1111 924 q 1163 919 1150 924 m 444 990 q 412 1004 425 990 q 399 1036 399 1018 q 404 1058 399 1047 q 419 1075 410 1068 l 551 1185 q 608 1206 576 1206 l 617 1206 q 674 1185 649 1206 l 806 1075 q 821 1058 815 1068 q 826 1036 826 1047 q 813 1004 826 1018 q 781 990 799 990 q 747 1004 761 990 l 615 1114 l 610 1114 l 478 1004 q 444 990 464 990 z "},"Ẅ":{"ha":1226,"x_min":28,"x_max":1197,"o":"m 1163 919 q 1197 876 1197 910 q 1194 857 1197 864 l 933 42 q 882 0 918 0 l 878 0 q 826 42 839 0 l 610 739 l 393 42 q 374 10 385 19 q 342 0 364 0 l 339 0 q 310 10 321 0 q 293 42 299 19 l 32 857 q 28 878 28 868 q 64 919 28 907 q 85 924 76 924 q 126 888 114 924 l 347 194 l 557 882 q 614 924 569 924 l 615 924 q 669 882 657 924 l 879 194 l 1100 888 q 1140 924 1111 924 q 1163 919 1150 924 m 489 1032 q 452 1045 465 1032 q 439 1082 439 1058 l 439 1114 q 489 1163 439 1163 l 519 1163 q 567 1114 567 1163 l 567 1082 q 554 1045 567 1058 q 519 1032 542 1032 l 489 1032 m 711 1032 q 674 1045 688 1032 q 661 1082 661 1058 l 661 1114 q 711 1163 661 1163 l 742 1163 q 789 1114 789 1163 l 789 1082 q 776 1045 789 1058 q 742 1032 764 1032 l 711 1032 z "},"Ẁ":{"ha":1226,"x_min":28,"x_max":1197,"o":"m 1163 919 q 1197 876 1197 910 q 1194 857 1197 864 l 933 42 q 882 0 918 0 l 878 0 q 826 42 839 0 l 610 739 l 393 42 q 374 10 385 19 q 342 0 364 0 l 339 0 q 310 10 321 0 q 293 42 299 19 l 32 857 q 28 878 28 868 q 64 919 28 907 q 85 924 76 924 q 126 888 114 924 l 347 194 l 557 882 q 614 924 569 924 l 615 924 q 669 882 657 924 l 879 194 l 1100 888 q 1140 924 1111 924 q 1163 919 1150 924 m 668 992 q 638 979 653 979 q 606 997 619 979 l 497 1126 q 485 1157 485 1142 q 503 1189 485 1175 q 533 1201 517 1201 q 565 1183 551 1201 l 674 1054 q 686 1024 686 1040 q 668 992 686 1006 z "},"X":{"ha":843,"x_min":76,"x_max":767,"o":"m 103 11 q 79 50 79 28 q 90 81 79 63 l 354 468 l 88 843 q 76 874 76 861 q 100 913 76 896 q 131 924 118 924 q 169 900 153 924 l 419 550 l 674 900 q 711 924 690 924 q 743 911 726 924 q 767 874 767 894 q 754 842 767 858 l 481 464 l 753 82 q 764 51 764 64 q 740 11 764 28 q 710 0 722 0 q 671 24 688 0 l 415 382 l 172 24 q 135 0 156 0 q 103 11 121 0 z "},"Y":{"ha":815,"x_min":28,"x_max":788,"o":"m 761 913 q 788 874 788 897 q 776 844 788 860 l 453 343 l 453 50 q 440 13 453 26 q 403 0 426 0 q 366 13 379 0 q 353 50 353 26 l 353 343 l 38 844 q 28 874 28 860 q 53 914 28 897 q 83 924 68 924 q 122 899 108 924 l 403 450 l 693 899 q 731 924 707 924 q 761 913 746 924 z "},"Ý":{"ha":815,"x_min":28,"x_max":788,"o":"m 761 913 q 788 874 788 897 q 776 844 788 860 l 453 343 l 453 50 q 440 13 453 26 q 403 0 426 0 q 366 13 379 0 q 353 50 353 26 l 353 343 l 38 844 q 28 874 28 860 q 53 914 28 897 q 83 924 68 924 q 122 899 108 924 l 403 450 l 693 899 q 731 924 707 924 q 761 913 746 924 m 374 1010 q 356 1042 356 1024 q 368 1072 356 1058 l 476 1201 q 508 1219 490 1219 q 539 1207 524 1219 q 557 1175 557 1193 q 544 1144 557 1160 l 436 1015 q 404 997 422 997 q 374 1010 388 997 z "},"Ŷ":{"ha":815,"x_min":28,"x_max":788,"o":"m 761 913 q 788 874 788 897 q 776 844 788 860 l 453 343 l 453 50 q 440 13 453 26 q 403 0 426 0 q 366 13 379 0 q 353 50 353 26 l 353 343 l 38 844 q 28 874 28 860 q 53 914 28 897 q 83 924 68 924 q 122 899 108 924 l 403 450 l 693 899 q 731 924 707 924 q 761 913 746 924 m 238 990 q 205 1004 218 990 q 192 1036 192 1018 q 197 1058 192 1047 q 213 1075 203 1068 l 344 1185 q 401 1206 369 1206 l 410 1206 q 467 1185 442 1206 l 599 1075 q 614 1058 608 1068 q 619 1036 619 1047 q 606 1004 619 1018 q 574 990 592 990 q 540 1004 554 990 l 408 1114 l 403 1114 l 271 1004 q 238 990 257 990 z "},"Ÿ":{"ha":815,"x_min":28,"x_max":788,"o":"m 761 913 q 788 874 788 897 q 776 844 788 860 l 453 343 l 453 50 q 440 13 453 26 q 403 0 426 0 q 366 13 379 0 q 353 50 353 26 l 353 343 l 38 844 q 28 874 28 860 q 53 914 28 897 q 83 924 68 924 q 122 899 108 924 l 403 450 l 693 899 q 731 924 707 924 q 761 913 746 924 m 282 1032 q 245 1045 258 1032 q 232 1082 232 1058 l 232 1114 q 282 1163 232 1163 l 313 1163 q 360 1114 360 1163 l 360 1082 q 347 1045 360 1058 q 313 1032 335 1032 l 282 1032 m 504 1032 q 467 1045 481 1032 q 454 1082 454 1058 l 454 1114 q 504 1163 454 1163 l 535 1163 q 582 1114 582 1163 l 582 1082 q 569 1045 582 1058 q 535 1032 557 1032 l 504 1032 z "},"Ỵ":{"ha":815,"x_min":28,"x_max":788,"o":"m 761 913 q 788 874 788 897 q 776 844 788 860 l 453 343 l 453 50 q 440 13 453 26 q 403 0 426 0 q 366 13 379 0 q 353 50 353 26 l 353 343 l 38 844 q 28 874 28 860 q 53 914 28 897 q 83 924 68 924 q 122 899 108 924 l 403 450 l 693 899 q 731 924 707 924 q 761 913 746 924 m 393 -215 q 356 -202 369 -215 q 343 -165 343 -189 l 343 -133 q 393 -85 343 -85 l 424 -85 q 471 -133 471 -85 l 471 -165 q 458 -202 471 -189 q 424 -215 446 -215 l 393 -215 z "},"Ỳ":{"ha":815,"x_min":28,"x_max":788,"o":"m 761 913 q 788 874 788 897 q 776 844 788 860 l 453 343 l 453 50 q 440 13 453 26 q 403 0 426 0 q 366 13 379 0 q 353 50 353 26 l 353 343 l 38 844 q 28 874 28 860 q 53 914 28 897 q 83 924 68 924 q 122 899 108 924 l 403 450 l 693 899 q 731 924 707 924 q 761 913 746 924 m 461 992 q 431 979 446 979 q 399 997 413 979 l 290 1126 q 278 1157 278 1142 q 296 1189 278 1175 q 326 1201 310 1201 q 358 1183 344 1201 l 467 1054 q 479 1024 479 1040 q 461 992 479 1006 z "},"Ỷ":{"ha":815,"x_min":28,"x_max":788,"o":"m 761 913 q 788 874 788 897 q 776 844 788 860 l 453 343 l 453 50 q 440 13 453 26 q 403 0 426 0 q 366 13 379 0 q 353 50 353 26 l 353 343 l 38 844 q 28 874 28 860 q 53 914 28 897 q 83 924 68 924 q 122 899 108 924 l 403 450 l 693 899 q 731 924 707 924 q 761 913 746 924 m 407 999 q 379 1006 388 999 q 371 1033 371 1014 q 390 1094 371 1072 q 438 1133 408 1115 q 462 1150 457 1144 q 467 1165 467 1156 q 457 1206 467 1196 q 417 1217 447 1217 q 376 1206 386 1217 q 367 1165 367 1196 q 358 1138 367 1146 q 331 1129 350 1129 q 303 1138 311 1129 q 294 1165 294 1146 q 417 1288 294 1288 q 539 1165 539 1288 q 521 1108 539 1129 q 475 1071 503 1088 q 449 1051 454 1058 q 443 1033 443 1044 q 435 1006 443 1014 q 407 999 426 999 z "},"Ȳ":{"ha":815,"x_min":28,"x_max":788,"o":"m 761 913 q 788 874 788 897 q 776 844 788 860 l 453 343 l 453 50 q 440 13 453 26 q 403 0 426 0 q 366 13 379 0 q 353 50 353 26 l 353 343 l 38 844 q 28 874 28 860 q 53 914 28 897 q 83 924 68 924 q 122 899 108 924 l 403 450 l 693 899 q 731 924 707 924 q 761 913 746 924 m 226 1056 q 176 1106 176 1056 q 226 1156 176 1156 l 578 1156 q 628 1106 628 1156 q 578 1056 628 1056 l 226 1056 z "},"Ỹ":{"ha":815,"x_min":28,"x_max":788,"o":"m 761 913 q 788 874 788 897 q 776 844 788 860 l 453 343 l 453 50 q 440 13 453 26 q 403 0 426 0 q 366 13 379 0 q 353 50 353 26 l 353 343 l 38 844 q 28 874 28 860 q 53 914 28 897 q 83 924 68 924 q 122 899 108 924 l 403 450 l 693 899 q 731 924 707 924 q 761 913 746 924 m 503 1014 q 441 1028 465 1014 q 392 1068 417 1043 q 363 1094 374 1088 q 336 1100 351 1100 q 303 1090 317 1100 q 279 1051 290 1079 q 243 1019 268 1019 q 226 1022 238 1019 q 196 1056 196 1031 q 200 1075 196 1065 q 255 1158 222 1132 q 336 1183 288 1183 q 400 1168 375 1183 q 451 1126 425 1153 q 479 1103 469 1108 q 503 1097 489 1097 q 530 1107 519 1097 q 550 1140 540 1117 q 588 1174 563 1174 q 601 1172 597 1174 q 633 1138 633 1165 q 631 1121 633 1126 q 581 1040 611 1067 q 503 1014 550 1014 z "},"Z":{"ha":919,"x_min":65,"x_max":853,"o":"m 801 219 q 840 206 826 219 q 850 167 853 192 q 781 42 836 85 q 633 0 726 0 l 135 0 q 98 13 111 0 q 85 50 85 26 q 106 96 85 67 l 658 824 l 285 824 q 206 807 233 824 q 171 751 179 790 q 153 716 165 728 q 118 704 142 704 q 79 718 93 704 q 69 757 65 732 q 138 881 83 839 q 285 924 192 924 l 747 924 q 797 874 797 924 q 778 825 797 853 l 226 100 l 633 100 q 713 117 686 100 q 749 172 740 133 q 766 208 754 196 q 801 219 778 219 z "},"Ź":{"ha":919,"x_min":68,"x_max":850,"o":"m 801 219 q 840 206 826 219 q 850 167 853 192 q 781 42 836 85 q 633 0 726 0 l 135 0 q 98 13 111 0 q 85 50 85 26 q 106 96 85 67 l 658 824 l 285 824 q 206 807 233 824 q 171 751 179 790 q 153 716 165 728 q 118 704 142 704 q 79 718 93 704 q 69 757 65 732 q 138 881 83 839 q 285 924 192 924 l 747 924 q 797 874 797 924 q 778 825 797 853 l 226 100 l 633 100 q 713 117 686 100 q 749 172 740 133 q 766 208 754 196 q 801 219 778 219 m 451 1010 q 433 1042 433 1024 q 446 1072 433 1058 l 554 1201 q 586 1219 568 1219 q 617 1207 601 1219 q 635 1175 635 1193 q 622 1144 635 1160 l 514 1015 q 482 997 500 997 q 451 1010 465 997 z "},"Ž":{"ha":919,"x_min":68,"x_max":850,"o":"m 801 219 q 840 206 826 219 q 850 167 853 192 q 781 42 836 85 q 633 0 726 0 l 135 0 q 98 13 111 0 q 85 50 85 26 q 106 96 85 67 l 658 824 l 285 824 q 206 807 233 824 q 171 751 179 790 q 153 716 165 728 q 118 704 142 704 q 79 718 93 704 q 69 757 65 732 q 138 881 83 839 q 285 924 192 924 l 747 924 q 797 874 797 924 q 778 825 797 853 l 226 100 l 633 100 q 713 117 686 100 q 749 172 740 133 q 766 208 754 196 q 801 219 778 219 m 318 1206 q 351 1192 338 1206 l 483 1082 l 489 1082 l 621 1192 q 654 1206 635 1206 q 686 1192 672 1206 q 700 1160 700 1179 q 694 1138 700 1149 q 679 1121 689 1128 l 547 1011 q 490 990 522 990 l 482 990 q 425 1011 450 990 l 293 1121 q 278 1138 283 1128 q 272 1160 272 1149 q 285 1192 272 1179 q 318 1206 299 1206 z "},"Ż":{"ha":919,"x_min":68,"x_max":850,"o":"m 801 219 q 840 206 826 219 q 850 167 853 192 q 781 42 836 85 q 633 0 726 0 l 135 0 q 98 13 111 0 q 85 50 85 26 q 106 96 85 67 l 658 824 l 285 824 q 206 807 233 824 q 171 751 179 790 q 153 716 165 728 q 118 704 142 704 q 79 718 93 704 q 69 757 65 732 q 138 881 83 839 q 285 924 192 924 l 747 924 q 797 874 797 924 q 778 825 797 853 l 226 100 l 633 100 q 713 117 686 100 q 749 172 740 133 q 766 208 754 196 q 801 219 778 219 m 468 1042 q 424 1058 439 1042 q 408 1101 408 1074 l 408 1140 q 468 1197 408 1197 l 504 1197 q 547 1183 532 1197 q 561 1140 561 1168 l 561 1101 q 546 1058 561 1074 q 504 1042 531 1042 l 468 1042 z "},"a":{"ha":861,"x_min":111,"x_max":736,"o":"m 472 686 q 672 622 608 686 q 736 422 736 558 l 736 50 q 723 13 736 26 q 686 0 710 0 q 649 13 663 0 q 636 50 636 26 l 636 94 q 411 0 563 0 l 333 0 q 165 54 219 0 q 111 222 111 108 q 165 390 111 336 q 333 444 219 444 l 636 444 q 596 556 632 525 q 472 586 560 586 l 392 586 q 278 573 314 586 q 229 528 242 560 q 208 493 219 503 q 175 483 197 483 q 139 494 153 483 q 125 524 125 506 q 126 535 125 531 q 208 649 143 613 q 392 686 272 686 l 472 686 m 631 213 q 636 229 633 224 l 636 344 l 333 344 q 236 319 261 344 q 211 222 211 294 q 236 125 211 150 q 333 100 261 100 l 411 100 q 631 213 601 100 z "},"á":{"ha":861,"x_min":111,"x_max":736,"o":"m 472 686 q 672 622 608 686 q 736 422 736 558 l 736 50 q 723 13 736 26 q 686 0 710 0 q 649 13 663 0 q 636 50 636 26 l 636 94 q 411 0 563 0 l 333 0 q 165 54 219 0 q 111 222 111 108 q 165 390 111 336 q 333 444 219 444 l 636 444 q 596 556 632 525 q 472 586 560 586 l 392 586 q 278 573 314 586 q 229 528 242 560 q 208 493 219 503 q 175 483 197 483 q 139 494 153 483 q 125 524 125 506 q 126 535 125 531 q 208 649 143 613 q 392 686 272 686 l 472 686 m 631 213 q 636 229 633 224 l 636 344 l 333 344 q 236 319 261 344 q 211 222 211 294 q 236 125 211 150 q 333 100 261 100 l 411 100 q 631 213 601 100 m 388 772 q 369 804 369 786 q 382 835 369 821 l 490 964 q 522 982 504 982 q 553 969 538 982 q 571 938 571 956 q 558 907 571 922 l 450 778 q 418 760 436 760 q 388 772 401 760 z "},"ă":{"ha":861,"x_min":111,"x_max":736,"o":"m 472 686 q 672 622 608 686 q 736 422 736 558 l 736 50 q 723 13 736 26 q 686 0 710 0 q 649 13 663 0 q 636 50 636 26 l 636 94 q 411 0 563 0 l 333 0 q 165 54 219 0 q 111 222 111 108 q 165 390 111 336 q 333 444 219 444 l 636 444 q 596 556 632 525 q 472 586 560 586 l 392 586 q 278 573 314 586 q 229 528 242 560 q 208 493 219 503 q 175 483 197 483 q 139 494 153 483 q 125 524 125 506 q 126 535 125 531 q 208 649 143 613 q 392 686 272 686 l 472 686 m 631 213 q 636 229 633 224 l 636 344 l 333 344 q 236 319 261 344 q 211 222 211 294 q 236 125 211 150 q 333 100 261 100 l 411 100 q 631 213 601 100 m 436 756 q 299 792 347 756 q 251 899 251 829 l 251 921 q 296 965 251 965 q 340 921 340 965 l 340 899 q 361 853 340 867 q 436 839 382 839 q 511 853 490 839 q 532 899 532 867 l 532 932 q 576 965 532 965 q 621 921 621 965 l 621 899 q 573 792 621 829 q 436 756 525 756 z "},"ắ":{"ha":861,"x_min":111,"x_max":736,"o":"m 472 686 q 672 622 608 686 q 736 422 736 558 l 736 50 q 723 13 736 26 q 686 0 710 0 q 649 13 663 0 q 636 50 636 26 l 636 94 q 411 0 563 0 l 333 0 q 165 54 219 0 q 111 222 111 108 q 165 390 111 336 q 333 444 219 444 l 636 444 q 596 556 632 525 q 472 586 560 586 l 392 586 q 278 573 314 586 q 229 528 242 560 q 208 493 219 503 q 175 483 197 483 q 139 494 153 483 q 125 524 125 506 q 126 535 125 531 q 208 649 143 613 q 392 686 272 686 l 472 686 m 631 213 q 636 229 633 224 l 636 344 l 333 344 q 236 319 261 344 q 211 222 211 294 q 236 125 211 150 q 333 100 261 100 l 411 100 q 631 213 601 100 m 421 756 q 284 792 332 756 q 236 899 236 829 l 236 921 q 281 965 236 965 q 325 921 325 965 l 325 899 q 346 853 325 867 q 421 839 367 839 q 496 853 475 839 q 517 899 517 867 l 517 932 q 561 965 517 965 q 606 921 606 965 l 606 899 q 558 792 606 829 q 421 756 510 756 m 368 964 q 350 996 350 978 q 363 1026 350 1013 l 471 1156 q 503 1174 485 1174 q 533 1161 518 1174 q 551 1129 551 1147 q 539 1099 551 1114 l 431 969 q 399 951 417 951 q 368 964 382 951 z "},"ặ":{"ha":861,"x_min":111,"x_max":736,"o":"m 472 686 q 672 622 608 686 q 736 422 736 558 l 736 50 q 723 13 736 26 q 686 0 710 0 q 649 13 663 0 q 636 50 636 26 l 636 94 q 411 0 563 0 l 333 0 q 165 54 219 0 q 111 222 111 108 q 165 390 111 336 q 333 444 219 444 l 636 444 q 596 556 632 525 q 472 586 560 586 l 392 586 q 278 573 314 586 q 229 528 242 560 q 208 493 219 503 q 175 483 197 483 q 139 494 153 483 q 125 524 125 506 q 126 535 125 531 q 208 649 143 613 q 392 686 272 686 l 472 686 m 631 213 q 636 229 633 224 l 636 344 l 333 344 q 236 319 261 344 q 211 222 211 294 q 236 125 211 150 q 333 100 261 100 l 411 100 q 631 213 601 100 m 407 -215 q 370 -202 383 -215 q 357 -165 357 -189 l 357 -133 q 407 -85 357 -85 l 438 -85 q 485 -133 485 -85 l 485 -165 q 472 -202 485 -189 q 438 -215 460 -215 l 407 -215 m 436 756 q 299 792 347 756 q 251 899 251 829 l 251 921 q 296 965 251 965 q 340 921 340 965 l 340 899 q 361 853 340 867 q 436 839 382 839 q 511 853 490 839 q 532 899 532 867 l 532 932 q 576 965 532 965 q 621 921 621 965 l 621 899 q 573 792 621 829 q 436 756 525 756 z "},"ằ":{"ha":861,"x_min":111,"x_max":736,"o":"m 472 686 q 672 622 608 686 q 736 422 736 558 l 736 50 q 723 13 736 26 q 686 0 710 0 q 649 13 663 0 q 636 50 636 26 l 636 94 q 411 0 563 0 l 333 0 q 165 54 219 0 q 111 222 111 108 q 165 390 111 336 q 333 444 219 444 l 636 444 q 596 556 632 525 q 472 586 560 586 l 392 586 q 278 573 314 586 q 229 528 242 560 q 208 493 219 503 q 175 483 197 483 q 139 494 153 483 q 125 524 125 506 q 126 535 125 531 q 208 649 143 613 q 392 686 272 686 l 472 686 m 631 213 q 636 229 633 224 l 636 344 l 333 344 q 236 319 261 344 q 211 222 211 294 q 236 125 211 150 q 333 100 261 100 l 411 100 q 631 213 601 100 m 421 756 q 284 792 332 756 q 236 899 236 829 l 236 921 q 281 965 236 965 q 325 921 325 965 l 325 899 q 346 853 325 867 q 421 839 367 839 q 496 853 475 839 q 517 899 517 867 l 517 932 q 561 965 517 965 q 606 921 606 965 l 606 899 q 558 792 606 829 q 421 756 510 756 m 429 964 q 399 951 414 951 q 367 969 381 951 l 258 1099 q 246 1129 246 1114 q 264 1161 246 1147 q 294 1174 278 1174 q 326 1156 313 1174 l 435 1026 q 447 996 447 1013 q 429 964 447 978 z "},"ẳ":{"ha":861,"x_min":111,"x_max":736,"o":"m 472 686 q 672 622 608 686 q 736 422 736 558 l 736 50 q 723 13 736 26 q 686 0 710 0 q 649 13 663 0 q 636 50 636 26 l 636 94 q 411 0 563 0 l 333 0 q 165 54 219 0 q 111 222 111 108 q 165 390 111 336 q 333 444 219 444 l 636 444 q 596 556 632 525 q 472 586 560 586 l 392 586 q 278 573 314 586 q 229 528 242 560 q 208 493 219 503 q 175 483 197 483 q 139 494 153 483 q 125 524 125 506 q 126 535 125 531 q 208 649 143 613 q 392 686 272 686 l 472 686 m 631 213 q 636 229 633 224 l 636 344 l 333 344 q 236 319 261 344 q 211 222 211 294 q 236 125 211 150 q 333 100 261 100 l 411 100 q 631 213 601 100 m 421 756 q 284 792 332 756 q 236 899 236 829 l 236 921 q 281 965 236 965 q 325 921 325 965 l 325 899 q 346 853 325 867 q 421 839 367 839 q 496 853 475 839 q 517 899 517 867 l 517 932 q 561 965 517 965 q 606 921 606 965 l 606 899 q 558 792 606 829 q 421 756 510 756 m 421 924 q 393 931 401 924 q 385 958 385 939 q 403 1019 385 997 q 451 1058 422 1040 q 476 1075 471 1069 q 481 1090 481 1081 q 471 1131 481 1121 q 431 1142 461 1142 q 390 1131 400 1142 q 381 1090 381 1121 q 372 1063 381 1071 q 344 1054 364 1054 q 317 1063 325 1054 q 308 1090 308 1071 q 431 1213 308 1213 q 553 1090 553 1213 q 535 1033 553 1054 q 489 996 517 1013 q 463 976 468 983 q 457 958 457 969 q 449 931 457 939 q 421 924 440 924 z "},"ẵ":{"ha":861,"x_min":111,"x_max":736,"o":"m 472 686 q 672 622 608 686 q 736 422 736 558 l 736 50 q 723 13 736 26 q 686 0 710 0 q 649 13 663 0 q 636 50 636 26 l 636 94 q 411 0 563 0 l 333 0 q 165 54 219 0 q 111 222 111 108 q 165 390 111 336 q 333 444 219 444 l 636 444 q 596 556 632 525 q 472 586 560 586 l 392 586 q 278 573 314 586 q 229 528 242 560 q 208 493 219 503 q 175 483 197 483 q 139 494 153 483 q 125 524 125 506 q 126 535 125 531 q 208 649 143 613 q 392 686 272 686 l 472 686 m 631 213 q 636 229 633 224 l 636 344 l 333 344 q 236 319 261 344 q 211 222 211 294 q 236 125 211 150 q 333 100 261 100 l 411 100 q 631 213 601 100 m 421 756 q 284 792 332 756 q 236 899 236 829 l 236 921 q 281 965 236 965 q 325 921 325 965 l 325 899 q 346 853 325 867 q 421 839 367 839 q 496 853 475 839 q 517 899 517 867 l 517 932 q 561 965 517 965 q 606 921 606 965 l 606 899 q 558 792 606 829 q 421 756 510 756 m 490 1001 q 451 1013 468 1001 q 408 1047 433 1025 q 363 1078 378 1078 q 339 1069 349 1078 q 319 1035 329 1060 q 282 1004 307 1004 q 267 1007 278 1004 q 236 1040 236 1015 q 240 1060 236 1050 q 288 1135 261 1113 q 357 1158 315 1158 q 397 1147 378 1158 q 444 1110 415 1135 q 469 1090 457 1099 q 489 1081 482 1081 q 504 1088 499 1081 q 519 1114 510 1094 q 557 1146 532 1146 q 571 1144 565 1146 q 603 1111 603 1136 q 600 1093 603 1100 q 490 1001 564 1001 z "},"â":{"ha":861,"x_min":111,"x_max":736,"o":"m 472 686 q 672 622 608 686 q 736 422 736 558 l 736 50 q 723 13 736 26 q 686 0 710 0 q 649 13 663 0 q 636 50 636 26 l 636 94 q 411 0 563 0 l 333 0 q 165 54 219 0 q 111 222 111 108 q 165 390 111 336 q 333 444 219 444 l 636 444 q 596 556 632 525 q 472 586 560 586 l 392 586 q 278 573 314 586 q 229 528 242 560 q 208 493 219 503 q 175 483 197 483 q 139 494 153 483 q 125 524 125 506 q 126 535 125 531 q 208 649 143 613 q 392 686 272 686 l 472 686 m 631 213 q 636 229 633 224 l 636 344 l 333 344 q 236 319 261 344 q 211 222 211 294 q 236 125 211 150 q 333 100 261 100 l 411 100 q 631 213 601 100 m 290 761 q 260 774 272 761 q 247 804 247 786 q 258 833 247 819 l 363 947 q 415 971 385 971 l 429 971 q 482 947 460 971 l 586 833 q 597 804 597 819 q 585 774 597 786 q 554 761 572 761 q 522 775 535 761 l 429 885 l 415 885 l 322 775 q 290 761 308 761 z "},"ấ":{"ha":861,"x_min":111,"x_max":736,"o":"m 472 686 q 672 622 608 686 q 736 422 736 558 l 736 50 q 723 13 736 26 q 686 0 710 0 q 649 13 663 0 q 636 50 636 26 l 636 94 q 411 0 563 0 l 333 0 q 165 54 219 0 q 111 222 111 108 q 165 390 111 336 q 333 444 219 444 l 636 444 q 596 556 632 525 q 472 586 560 586 l 392 586 q 278 573 314 586 q 229 528 242 560 q 208 493 219 503 q 175 483 197 483 q 139 494 153 483 q 125 524 125 506 q 126 535 125 531 q 208 649 143 613 q 392 686 272 686 l 472 686 m 631 213 q 636 229 633 224 l 636 344 l 333 344 q 236 319 261 344 q 211 222 211 294 q 236 125 211 150 q 333 100 261 100 l 411 100 q 631 213 601 100 m 576 875 q 557 908 557 890 q 571 938 557 924 l 650 1022 q 683 1040 668 1040 q 713 1028 697 1040 q 731 994 731 1014 q 718 965 731 981 l 639 881 q 606 863 622 863 q 576 875 590 863 m 289 761 q 258 774 271 761 q 246 804 246 786 q 257 833 246 819 l 361 947 q 414 971 383 971 l 428 971 q 481 947 458 971 l 585 833 q 596 804 596 819 q 583 774 596 786 q 553 761 571 761 q 521 775 533 761 l 428 885 l 414 885 l 321 775 q 289 761 307 761 z "},"ậ":{"ha":861,"x_min":111,"x_max":736,"o":"m 472 686 q 672 622 608 686 q 736 422 736 558 l 736 50 q 723 13 736 26 q 686 0 710 0 q 649 13 663 0 q 636 50 636 26 l 636 94 q 411 0 563 0 l 333 0 q 165 54 219 0 q 111 222 111 108 q 165 390 111 336 q 333 444 219 444 l 636 444 q 596 556 632 525 q 472 586 560 586 l 392 586 q 278 573 314 586 q 229 528 242 560 q 208 493 219 503 q 175 483 197 483 q 139 494 153 483 q 125 524 125 506 q 126 535 125 531 q 208 649 143 613 q 392 686 272 686 l 472 686 m 631 213 q 636 229 633 224 l 636 344 l 333 344 q 236 319 261 344 q 211 222 211 294 q 236 125 211 150 q 333 100 261 100 l 411 100 q 631 213 601 100 m 407 -215 q 370 -202 383 -215 q 357 -165 357 -189 l 357 -133 q 407 -85 357 -85 l 438 -85 q 485 -133 485 -85 l 485 -165 q 472 -202 485 -189 q 438 -215 460 -215 l 407 -215 m 290 761 q 260 774 272 761 q 247 804 247 786 q 258 833 247 819 l 363 947 q 415 971 385 971 l 429 971 q 482 947 460 971 l 586 833 q 597 804 597 819 q 585 774 597 786 q 554 761 572 761 q 522 775 535 761 l 429 885 l 415 885 l 322 775 q 290 761 308 761 z "},"ầ":{"ha":861,"x_min":104,"x_max":736,"o":"m 472 686 q 672 622 608 686 q 736 422 736 558 l 736 50 q 723 13 736 26 q 686 0 710 0 q 649 13 663 0 q 636 50 636 26 l 636 94 q 411 0 563 0 l 333 0 q 165 54 219 0 q 111 222 111 108 q 165 390 111 336 q 333 444 219 444 l 636 444 q 596 556 632 525 q 472 586 560 586 l 392 586 q 278 573 314 586 q 229 528 242 560 q 208 493 219 503 q 175 483 197 483 q 139 494 153 483 q 125 524 125 506 q 126 535 125 531 q 208 649 143 613 q 392 686 272 686 l 472 686 m 631 213 q 636 229 633 224 l 636 344 l 333 344 q 236 319 261 344 q 211 222 211 294 q 236 125 211 150 q 333 100 261 100 l 411 100 q 631 213 601 100 m 258 875 q 229 863 244 863 q 196 881 213 863 l 117 965 q 104 994 104 981 q 122 1028 104 1014 q 151 1040 138 1040 q 185 1022 167 1040 l 264 938 q 278 908 278 924 q 258 875 278 890 m 288 761 q 257 774 269 761 q 244 804 244 786 q 256 833 244 819 l 360 947 q 413 971 382 971 l 426 971 q 479 947 457 971 l 583 833 q 594 804 594 819 q 582 774 594 786 q 551 761 569 761 q 519 775 532 761 l 426 885 l 413 885 l 319 775 q 288 761 306 761 z "},"ẩ":{"ha":861,"x_min":111,"x_max":736,"o":"m 472 686 q 672 622 608 686 q 736 422 736 558 l 736 50 q 723 13 736 26 q 686 0 710 0 q 649 13 663 0 q 636 50 636 26 l 636 94 q 411 0 563 0 l 333 0 q 165 54 219 0 q 111 222 111 108 q 165 390 111 336 q 333 444 219 444 l 636 444 q 596 556 632 525 q 472 586 560 586 l 392 586 q 278 573 314 586 q 229 528 242 560 q 208 493 219 503 q 175 483 197 483 q 139 494 153 483 q 125 524 125 506 q 126 535 125 531 q 208 649 143 613 q 392 686 272 686 l 472 686 m 631 213 q 636 229 633 224 l 636 344 l 333 344 q 236 319 261 344 q 211 222 211 294 q 236 125 211 150 q 333 100 261 100 l 411 100 q 631 213 601 100 m 289 761 q 258 774 271 761 q 246 804 246 786 q 257 833 246 819 l 361 947 q 414 971 383 971 l 428 971 q 481 947 458 971 l 585 833 q 596 804 596 819 q 583 774 596 786 q 553 761 571 761 q 521 775 533 761 l 428 885 l 414 885 l 321 775 q 289 761 307 761 m 565 900 q 538 908 546 900 q 529 935 529 915 q 548 995 529 974 q 596 1035 567 1017 q 620 1051 615 1046 q 625 1067 625 1057 q 615 1108 625 1097 q 575 1118 606 1118 q 535 1108 544 1118 q 525 1067 525 1097 q 517 1039 525 1047 q 489 1031 508 1031 q 461 1039 469 1031 q 453 1067 453 1047 q 575 1189 453 1189 q 697 1067 697 1189 q 679 1010 697 1031 q 633 972 661 989 q 607 953 613 960 q 601 935 601 946 q 593 908 601 915 q 565 900 585 900 z "},"ẫ":{"ha":861,"x_min":111,"x_max":736,"o":"m 472 686 q 672 622 608 686 q 736 422 736 558 l 736 50 q 723 13 736 26 q 686 0 710 0 q 649 13 663 0 q 636 50 636 26 l 636 94 q 411 0 563 0 l 333 0 q 165 54 219 0 q 111 222 111 108 q 165 390 111 336 q 333 444 219 444 l 636 444 q 596 556 632 525 q 472 586 560 586 l 392 586 q 278 573 314 586 q 229 528 242 560 q 208 493 219 503 q 175 483 197 483 q 139 494 153 483 q 125 524 125 506 q 126 535 125 531 q 208 649 143 613 q 392 686 272 686 l 472 686 m 631 213 q 636 229 633 224 l 636 344 l 333 344 q 236 319 261 344 q 211 222 211 294 q 236 125 211 150 q 333 100 261 100 l 411 100 q 631 213 601 100 m 289 761 q 258 774 271 761 q 246 804 246 786 q 257 833 246 819 l 361 947 q 414 971 383 971 l 428 971 q 481 947 458 971 l 585 833 q 596 804 596 819 q 583 774 596 786 q 553 761 571 761 q 521 775 533 761 l 428 885 l 414 885 l 321 775 q 289 761 307 761 m 490 1000 q 451 1012 468 1000 q 408 1046 433 1024 q 363 1076 378 1076 q 339 1067 349 1076 q 319 1033 329 1058 q 282 1003 307 1003 q 267 1006 278 1003 q 236 1039 236 1014 q 240 1058 236 1049 q 288 1134 261 1111 q 357 1157 315 1157 q 397 1145 378 1157 q 444 1108 415 1133 q 469 1088 457 1097 q 489 1079 482 1079 q 504 1086 499 1079 q 519 1113 510 1093 q 557 1144 532 1144 q 571 1143 565 1144 q 603 1110 603 1135 q 600 1092 603 1099 q 490 1000 564 1000 z "},"ȁ":{"ha":861,"x_min":111,"x_max":736,"o":"m 232 917 q 221 944 221 928 q 236 972 221 961 q 264 983 249 983 q 293 968 282 983 l 390 851 q 401 824 401 840 q 386 796 401 807 q 358 785 374 785 q 329 800 340 785 l 232 917 m 390 917 q 379 944 379 928 q 394 972 379 961 q 422 983 407 983 q 451 968 440 983 l 549 851 q 560 824 560 840 q 544 796 560 807 q 517 785 532 785 q 488 800 499 785 l 390 917 m 472 686 q 672 622 608 686 q 736 422 736 558 l 736 50 q 723 13 736 26 q 686 0 710 0 q 649 13 663 0 q 636 50 636 26 l 636 94 q 411 0 563 0 l 333 0 q 165 54 219 0 q 111 222 111 108 q 165 390 111 336 q 333 444 219 444 l 636 444 q 596 556 632 525 q 472 586 560 586 l 392 586 q 278 573 314 586 q 229 528 242 560 q 208 493 219 503 q 175 483 197 483 q 139 494 153 483 q 125 524 125 506 q 126 535 125 531 q 208 649 143 613 q 392 686 272 686 l 472 686 m 631 213 q 636 229 633 224 l 636 344 l 333 344 q 236 319 261 344 q 211 222 211 294 q 236 125 211 150 q 333 100 261 100 l 411 100 q 631 213 601 100 z "},"ä":{"ha":861,"x_min":111,"x_max":736,"o":"m 472 686 q 672 622 608 686 q 736 422 736 558 l 736 50 q 723 13 736 26 q 686 0 710 0 q 649 13 663 0 q 636 50 636 26 l 636 94 q 411 0 563 0 l 333 0 q 165 54 219 0 q 111 222 111 108 q 165 390 111 336 q 333 444 219 444 l 636 444 q 596 556 632 525 q 472 586 560 586 l 392 586 q 278 573 314 586 q 229 528 242 560 q 208 493 219 503 q 175 483 197 483 q 139 494 153 483 q 125 524 125 506 q 126 535 125 531 q 208 649 143 613 q 392 686 272 686 l 472 686 m 631 213 q 636 229 633 224 l 636 344 l 333 344 q 236 319 261 344 q 211 222 211 294 q 236 125 211 150 q 333 100 261 100 l 411 100 q 631 213 601 100 m 296 794 q 259 808 272 794 q 246 844 246 821 l 246 876 q 296 925 246 925 l 326 925 q 374 876 374 925 l 374 844 q 361 808 374 821 q 326 794 349 794 l 296 794 m 518 794 q 481 808 494 794 q 468 844 468 821 l 468 876 q 518 925 468 925 l 549 925 q 596 876 596 925 l 596 844 q 583 808 596 821 q 549 794 571 794 l 518 794 z "},"ạ":{"ha":861,"x_min":111,"x_max":736,"o":"m 472 686 q 672 622 608 686 q 736 422 736 558 l 736 50 q 723 13 736 26 q 686 0 710 0 q 649 13 663 0 q 636 50 636 26 l 636 94 q 411 0 563 0 l 333 0 q 165 54 219 0 q 111 222 111 108 q 165 390 111 336 q 333 444 219 444 l 636 444 q 596 556 632 525 q 472 586 560 586 l 392 586 q 278 573 314 586 q 229 528 242 560 q 208 493 219 503 q 175 483 197 483 q 139 494 153 483 q 125 524 125 506 q 126 535 125 531 q 208 649 143 613 q 392 686 272 686 l 472 686 m 631 213 q 636 229 633 224 l 636 344 l 333 344 q 236 319 261 344 q 211 222 211 294 q 236 125 211 150 q 333 100 261 100 l 411 100 q 631 213 601 100 m 407 -215 q 370 -202 383 -215 q 357 -165 357 -189 l 357 -133 q 407 -85 357 -85 l 438 -85 q 485 -133 485 -85 l 485 -165 q 472 -202 485 -189 q 438 -215 460 -215 l 407 -215 z "},"à":{"ha":861,"x_min":111,"x_max":736,"o":"m 472 686 q 672 622 608 686 q 736 422 736 558 l 736 50 q 723 13 736 26 q 686 0 710 0 q 649 13 663 0 q 636 50 636 26 l 636 94 q 411 0 563 0 l 333 0 q 165 54 219 0 q 111 222 111 108 q 165 390 111 336 q 333 444 219 444 l 636 444 q 596 556 632 525 q 472 586 560 586 l 392 586 q 278 573 314 586 q 229 528 242 560 q 208 493 219 503 q 175 483 197 483 q 139 494 153 483 q 125 524 125 506 q 126 535 125 531 q 208 649 143 613 q 392 686 272 686 l 472 686 m 631 213 q 636 229 633 224 l 636 344 l 333 344 q 236 319 261 344 q 211 222 211 294 q 236 125 211 150 q 333 100 261 100 l 411 100 q 631 213 601 100 m 475 754 q 444 742 460 742 q 413 760 426 742 l 304 889 q 292 919 292 904 q 310 951 292 938 q 340 964 324 964 q 372 946 358 964 l 481 817 q 493 786 493 803 q 475 754 493 768 z "},"ả":{"ha":861,"x_min":111,"x_max":736,"o":"m 472 686 q 672 622 608 686 q 736 422 736 558 l 736 50 q 723 13 736 26 q 686 0 710 0 q 649 13 663 0 q 636 50 636 26 l 636 94 q 411 0 563 0 l 333 0 q 165 54 219 0 q 111 222 111 108 q 165 390 111 336 q 333 444 219 444 l 636 444 q 596 556 632 525 q 472 586 560 586 l 392 586 q 278 573 314 586 q 229 528 242 560 q 208 493 219 503 q 175 483 197 483 q 139 494 153 483 q 125 524 125 506 q 126 535 125 531 q 208 649 143 613 q 392 686 272 686 l 472 686 m 631 213 q 636 229 633 224 l 636 344 l 333 344 q 236 319 261 344 q 211 222 211 294 q 236 125 211 150 q 333 100 261 100 l 411 100 q 631 213 601 100 m 421 761 q 393 769 401 761 q 385 796 385 776 q 403 856 385 835 q 451 896 422 878 q 476 913 471 907 q 481 928 481 918 q 471 969 481 958 q 431 979 461 979 q 390 969 400 979 q 381 928 381 958 q 372 900 381 908 q 344 892 364 892 q 317 900 325 892 q 308 928 308 908 q 431 1050 308 1050 q 553 928 553 1050 q 535 871 553 892 q 489 833 517 850 q 463 814 468 821 q 457 796 457 807 q 449 769 457 776 q 421 761 440 761 z "},"ȃ":{"ha":861,"x_min":111,"x_max":736,"o":"m 472 686 q 672 622 608 686 q 736 422 736 558 l 736 50 q 723 13 736 26 q 686 0 710 0 q 649 13 663 0 q 636 50 636 26 l 636 94 q 411 0 563 0 l 333 0 q 165 54 219 0 q 111 222 111 108 q 165 390 111 336 q 333 444 219 444 l 636 444 q 596 556 632 525 q 472 586 560 586 l 392 586 q 278 573 314 586 q 229 528 242 560 q 208 493 219 503 q 175 483 197 483 q 139 494 153 483 q 125 524 125 506 q 126 535 125 531 q 208 649 143 613 q 392 686 272 686 l 472 686 m 631 213 q 636 229 633 224 l 636 344 l 333 344 q 236 319 261 344 q 211 222 211 294 q 236 125 211 150 q 333 100 261 100 l 411 100 q 631 213 601 100 m 421 1010 q 558 973 510 1010 q 606 867 606 936 l 606 844 q 561 800 606 800 q 517 833 517 800 l 517 867 q 496 913 517 899 q 421 926 475 926 q 346 913 367 926 q 325 867 325 899 l 325 844 q 281 800 325 800 q 236 844 236 800 l 236 867 q 284 973 236 936 q 421 1010 332 1010 z "},"ā":{"ha":861,"x_min":111,"x_max":736,"o":"m 472 686 q 672 622 608 686 q 736 422 736 558 l 736 50 q 723 13 736 26 q 686 0 710 0 q 649 13 663 0 q 636 50 636 26 l 636 94 q 411 0 563 0 l 333 0 q 165 54 219 0 q 111 222 111 108 q 165 390 111 336 q 333 444 219 444 l 636 444 q 596 556 632 525 q 472 586 560 586 l 392 586 q 278 573 314 586 q 229 528 242 560 q 208 493 219 503 q 175 483 197 483 q 139 494 153 483 q 125 524 125 506 q 126 535 125 531 q 208 649 143 613 q 392 686 272 686 l 472 686 m 631 213 q 636 229 633 224 l 636 344 l 333 344 q 236 319 261 344 q 211 222 211 294 q 236 125 211 150 q 333 100 261 100 l 411 100 q 631 213 601 100 m 240 818 q 190 868 190 818 q 240 918 190 918 l 592 918 q 642 868 642 918 q 592 818 642 818 l 240 818 z "},"ą":{"ha":861,"x_min":111,"x_max":829,"o":"m 785 -117 q 817 -130 804 -117 q 829 -161 829 -143 q 817 -193 829 -181 q 752 -237 788 -221 q 682 -253 717 -253 q 584 -217 624 -253 q 544 -128 544 -181 q 578 -37 544 -82 l 636 44 l 636 50 l 636 94 q 411 0 563 0 l 333 0 q 165 54 219 0 q 111 222 111 108 q 165 390 111 336 q 333 444 219 444 l 636 444 q 596 556 632 525 q 472 586 560 586 l 392 586 q 278 573 314 586 q 229 528 242 560 q 208 493 219 503 q 175 483 197 483 q 139 494 153 483 q 125 524 125 506 q 126 535 125 531 q 208 649 143 613 q 392 686 272 686 l 472 686 q 672 622 608 686 q 736 422 736 558 l 736 50 q 725 15 736 29 l 722 11 l 650 -90 q 633 -128 633 -111 q 647 -153 633 -143 q 682 -164 660 -164 q 753 -129 719 -164 q 785 -117 768 -117 m 631 213 q 636 229 633 224 l 636 344 l 333 344 q 236 319 261 344 q 211 222 211 294 q 236 125 211 150 q 333 100 261 100 l 411 100 q 631 213 601 100 z "},"å":{"ha":861,"x_min":111,"x_max":736,"o":"m 472 686 q 672 622 608 686 q 736 422 736 558 l 736 50 q 723 13 736 26 q 686 0 710 0 q 649 13 663 0 q 636 50 636 26 l 636 94 q 411 0 563 0 l 333 0 q 165 54 219 0 q 111 222 111 108 q 165 390 111 336 q 333 444 219 444 l 636 444 q 596 556 632 525 q 472 586 560 586 l 392 586 q 278 573 314 586 q 229 528 242 560 q 208 493 219 503 q 175 483 197 483 q 139 494 153 483 q 125 524 125 506 q 126 535 125 531 q 208 649 143 613 q 392 686 272 686 l 472 686 m 631 213 q 636 229 633 224 l 636 344 l 333 344 q 236 319 261 344 q 211 222 211 294 q 236 125 211 150 q 333 100 261 100 l 411 100 q 631 213 601 100 m 421 761 q 342 790 371 761 q 314 868 314 818 q 342 947 314 918 q 421 975 371 975 q 499 947 471 975 q 528 868 528 918 q 499 790 528 818 q 421 761 471 761 m 421 835 q 449 840 444 835 q 454 868 454 846 q 449 897 454 892 q 421 901 443 901 q 392 896 397 901 q 388 868 388 890 q 393 840 388 844 q 421 835 399 835 z "},"ǻ":{"ha":861,"x_min":111,"x_max":736,"o":"m 472 686 q 672 622 608 686 q 736 422 736 558 l 736 50 q 723 13 736 26 q 686 0 710 0 q 649 13 663 0 q 636 50 636 26 l 636 94 q 411 0 563 0 l 333 0 q 165 54 219 0 q 111 222 111 108 q 165 390 111 336 q 333 444 219 444 l 636 444 q 596 556 632 525 q 472 586 560 586 l 392 586 q 278 573 314 586 q 229 528 242 560 q 208 493 219 503 q 175 483 197 483 q 139 494 153 483 q 125 524 125 506 q 126 535 125 531 q 208 649 143 613 q 392 686 272 686 l 472 686 m 631 213 q 636 229 633 224 l 636 344 l 333 344 q 236 319 261 344 q 211 222 211 294 q 236 125 211 150 q 333 100 261 100 l 411 100 q 631 213 601 100 m 421 761 q 342 790 371 761 q 314 868 314 818 q 342 947 314 918 q 421 975 371 975 q 499 947 471 975 q 528 868 528 918 q 499 790 528 818 q 421 761 471 761 m 421 835 q 449 840 444 835 q 454 868 454 846 q 449 897 454 892 q 421 901 443 901 q 392 896 397 901 q 388 868 388 890 q 393 840 388 844 q 421 835 399 835 m 389 1053 q 371 1085 371 1067 q 383 1115 371 1101 l 492 1244 q 524 1263 506 1263 q 554 1250 539 1263 q 572 1218 572 1236 q 560 1188 572 1203 l 451 1058 q 419 1040 438 1040 q 389 1053 403 1040 z "},"ã":{"ha":861,"x_min":111,"x_max":736,"o":"m 472 686 q 672 622 608 686 q 736 422 736 558 l 736 50 q 723 13 736 26 q 686 0 710 0 q 649 13 663 0 q 636 50 636 26 l 636 94 q 411 0 563 0 l 333 0 q 165 54 219 0 q 111 222 111 108 q 165 390 111 336 q 333 444 219 444 l 636 444 q 596 556 632 525 q 472 586 560 586 l 392 586 q 278 573 314 586 q 229 528 242 560 q 208 493 219 503 q 175 483 197 483 q 139 494 153 483 q 125 524 125 506 q 126 535 125 531 q 208 649 143 613 q 392 686 272 686 l 472 686 m 631 213 q 636 229 633 224 l 636 344 l 333 344 q 236 319 261 344 q 211 222 211 294 q 236 125 211 150 q 333 100 261 100 l 411 100 q 631 213 601 100 m 517 776 q 455 791 479 776 q 406 831 431 806 q 376 856 388 850 q 350 863 365 863 q 317 852 331 863 q 293 814 304 842 q 257 782 282 782 q 240 785 251 782 q 210 818 210 793 q 214 838 210 828 q 269 920 236 894 q 350 946 301 946 q 414 931 389 946 q 465 889 439 915 q 493 865 483 871 q 517 860 503 860 q 544 869 533 860 q 564 903 554 879 q 601 936 576 936 q 615 935 611 936 q 647 900 647 928 q 644 883 647 889 q 594 803 625 829 q 517 776 564 776 z "},"æ":{"ha":1319,"x_min":111,"x_max":1208,"o":"m 865 -22 q 649 99 710 -22 q 383 -19 567 -19 l 333 -19 q 165 35 219 -19 q 111 203 111 89 q 165 371 111 317 q 333 425 219 425 l 608 425 q 567 533 603 503 q 444 563 532 563 l 392 563 q 288 553 325 563 q 237 521 251 543 q 222 460 222 499 q 208 424 222 439 q 172 410 193 410 q 137 424 151 410 q 122 460 122 439 q 188 613 122 564 q 392 663 254 663 l 444 663 q 658 554 594 663 q 867 661 719 663 l 950 661 q 1145 591 1082 661 q 1208 375 1208 521 q 1195 338 1208 351 q 1157 325 1182 325 l 708 325 l 708 244 q 723 144 708 179 q 772 93 738 108 q 865 78 806 78 l 950 78 q 1047 88 1013 78 q 1094 122 1081 99 q 1108 188 1108 146 q 1123 223 1108 208 q 1158 238 1138 238 q 1194 223 1179 238 q 1208 188 1208 208 q 1145 28 1208 79 q 950 -22 1082 -22 l 865 -22 m 1106 425 q 1063 531 1099 500 q 950 561 1028 561 l 867 561 q 749 533 783 563 q 710 425 714 503 l 1106 425 m 383 81 q 554 119 500 81 q 608 239 608 158 l 608 325 l 333 325 q 236 300 261 325 q 211 203 211 275 q 236 106 211 131 q 333 81 261 81 l 383 81 z "},"ǽ":{"ha":1319,"x_min":111,"x_max":1208,"o":"m 865 -22 q 649 99 710 -22 q 383 -19 567 -19 l 333 -19 q 165 35 219 -19 q 111 203 111 89 q 165 371 111 317 q 333 425 219 425 l 608 425 q 567 533 603 503 q 444 563 532 563 l 392 563 q 288 553 325 563 q 237 521 251 543 q 222 460 222 499 q 208 424 222 439 q 172 410 193 410 q 137 424 151 410 q 122 460 122 439 q 188 613 122 564 q 392 663 254 663 l 444 663 q 658 554 594 663 q 867 661 719 663 l 950 661 q 1145 591 1082 661 q 1208 375 1208 521 q 1195 338 1208 351 q 1157 325 1182 325 l 708 325 l 708 244 q 723 144 708 179 q 772 93 738 108 q 865 78 806 78 l 950 78 q 1047 88 1013 78 q 1094 122 1081 99 q 1108 188 1108 146 q 1123 223 1108 208 q 1158 238 1138 238 q 1194 223 1179 238 q 1208 188 1208 208 q 1145 28 1208 79 q 950 -22 1082 -22 l 865 -22 m 1106 425 q 1063 531 1099 500 q 950 561 1028 561 l 867 561 q 749 533 783 563 q 710 425 714 503 l 1106 425 m 383 81 q 554 119 500 81 q 608 239 608 158 l 608 325 l 333 325 q 236 300 261 325 q 211 203 211 275 q 236 106 211 131 q 333 81 261 81 l 383 81 m 625 772 q 607 804 607 786 q 619 835 607 821 l 728 964 q 760 982 742 982 q 790 969 775 982 q 808 938 808 956 q 796 907 808 922 l 688 778 q 656 760 674 760 q 625 772 639 760 z "},"b":{"ha":892,"x_min":139,"x_max":781,"o":"m 517 686 q 717 622 653 686 q 781 422 781 558 l 781 264 q 717 65 781 129 q 517 0 653 0 l 464 0 q 239 81 308 0 l 239 50 q 226 13 239 26 q 189 0 213 0 q 152 13 165 0 q 139 50 139 26 l 139 922 q 152 959 139 946 q 189 972 165 972 q 226 959 213 972 q 239 922 239 946 l 239 606 q 464 686 308 686 l 517 686 m 681 422 q 665 521 681 486 q 615 571 650 556 q 517 586 581 586 l 464 586 q 300 558 361 586 q 239 474 239 529 l 239 213 q 300 128 239 157 q 464 100 361 100 l 517 100 q 615 115 581 100 q 665 165 650 131 q 681 264 681 200 l 681 422 z "},"c":{"ha":806,"x_min":111,"x_max":725,"o":"m 375 0 q 176 65 240 0 q 111 264 111 129 l 111 424 q 176 624 111 560 q 375 686 240 688 l 489 686 q 649 651 592 686 q 721 544 707 617 q 711 506 725 519 q 671 492 697 492 q 639 503 650 492 q 619 538 628 514 q 580 575 610 564 q 489 586 550 586 l 375 586 q 276 572 311 588 q 226 522 242 557 q 211 424 211 488 l 211 264 q 226 165 211 200 q 276 115 242 131 q 375 100 311 100 l 489 100 q 580 111 550 100 q 619 149 610 122 q 639 183 628 172 q 672 194 650 194 q 711 181 697 194 q 721 142 725 167 q 649 35 707 69 q 489 0 592 0 l 375 0 z "},"ć":{"ha":806,"x_min":111,"x_max":722,"o":"m 375 0 q 176 65 240 0 q 111 264 111 129 l 111 424 q 176 624 111 560 q 375 686 240 688 l 489 686 q 649 651 592 686 q 721 544 707 617 q 711 506 725 519 q 671 492 697 492 q 639 503 650 492 q 619 538 628 514 q 580 575 610 564 q 489 586 550 586 l 375 586 q 276 572 311 588 q 226 522 242 557 q 211 424 211 488 l 211 264 q 226 165 211 200 q 276 115 242 131 q 375 100 311 100 l 489 100 q 580 111 550 100 q 619 149 610 122 q 639 183 628 172 q 672 194 650 194 q 711 181 697 194 q 721 142 725 167 q 649 35 707 69 q 489 0 592 0 l 375 0 m 399 772 q 381 804 381 786 q 393 835 381 821 l 501 964 q 533 982 515 982 q 564 969 549 982 q 582 938 582 956 q 569 907 582 922 l 461 778 q 429 760 447 760 q 399 772 413 760 z "},"č":{"ha":806,"x_min":111,"x_max":722,"o":"m 375 0 q 176 65 240 0 q 111 264 111 129 l 111 424 q 176 624 111 560 q 375 686 240 688 l 489 686 q 649 651 592 686 q 721 544 707 617 q 711 506 725 519 q 671 492 697 492 q 639 503 650 492 q 619 538 628 514 q 580 575 610 564 q 489 586 550 586 l 375 586 q 276 572 311 588 q 226 522 242 557 q 211 424 211 488 l 211 264 q 226 165 211 200 q 276 115 242 131 q 375 100 311 100 l 489 100 q 580 111 550 100 q 619 149 610 122 q 639 183 628 172 q 672 194 650 194 q 711 181 697 194 q 721 142 725 167 q 649 35 707 69 q 489 0 592 0 l 375 0 m 299 971 q 331 957 317 971 l 424 847 l 438 847 l 531 957 q 563 971 543 971 q 593 958 581 971 q 606 928 606 946 q 594 899 606 913 l 490 785 q 438 761 468 761 l 424 761 q 371 785 393 761 l 267 899 q 256 928 256 913 q 268 958 256 946 q 299 971 281 971 z "},"ç":{"ha":806,"x_min":111,"x_max":725,"o":"m 672 194 q 711 181 697 194 q 721 142 725 167 q 522 1 694 11 q 551 -25 528 -10 q 600 -69 581 -44 q 619 -135 619 -93 q 463 -292 619 -292 q 366 -259 399 -292 q 333 -162 333 -226 q 376 -119 333 -119 q 419 -162 419 -119 q 428 -198 419 -190 q 463 -206 436 -206 q 519 -192 506 -206 q 533 -135 533 -178 q 528 -117 533 -124 q 503 -96 522 -110 q 457 -56 475 -76 q 433 0 439 -36 l 375 0 q 176 65 240 0 q 111 264 111 129 l 111 424 q 176 624 111 560 q 375 686 240 688 l 489 686 q 649 651 592 686 q 721 544 707 617 q 711 506 725 519 q 671 492 697 492 q 639 503 650 492 q 619 538 628 514 q 580 575 610 564 q 489 586 550 586 l 375 586 q 276 572 311 588 q 226 522 242 557 q 211 424 211 488 l 211 264 q 226 165 211 200 q 276 115 242 131 q 375 100 311 100 l 489 100 q 580 111 550 100 q 619 149 610 122 q 639 183 628 172 q 672 194 650 194 z "},"ĉ":{"ha":806,"x_min":111,"x_max":722,"o":"m 375 0 q 176 65 240 0 q 111 264 111 129 l 111 424 q 176 624 111 560 q 375 686 240 688 l 489 686 q 649 651 592 686 q 721 544 707 617 q 711 506 725 519 q 671 492 697 492 q 639 503 650 492 q 619 538 628 514 q 580 575 610 564 q 489 586 550 586 l 375 586 q 276 572 311 588 q 226 522 242 557 q 211 424 211 488 l 211 264 q 226 165 211 200 q 276 115 242 131 q 375 100 311 100 l 489 100 q 580 111 550 100 q 619 149 610 122 q 639 183 628 172 q 672 194 650 194 q 711 181 697 194 q 721 142 725 167 q 649 35 707 69 q 489 0 592 0 l 375 0 m 301 761 q 271 774 283 761 q 258 804 258 786 q 269 833 258 819 l 374 947 q 426 971 396 971 l 440 971 q 493 947 471 971 l 597 833 q 608 804 608 819 q 596 774 608 786 q 565 761 583 761 q 533 775 546 761 l 440 885 l 426 885 l 333 775 q 301 761 319 761 z "},"ċ":{"ha":806,"x_min":111,"x_max":722,"o":"m 375 0 q 176 65 240 0 q 111 264 111 129 l 111 424 q 176 624 111 560 q 375 686 240 688 l 489 686 q 649 651 592 686 q 721 544 707 617 q 711 506 725 519 q 671 492 697 492 q 639 503 650 492 q 619 538 628 514 q 580 575 610 564 q 489 586 550 586 l 375 586 q 276 572 311 588 q 226 522 242 557 q 211 424 211 488 l 211 264 q 226 165 211 200 q 276 115 242 131 q 375 100 311 100 l 489 100 q 580 111 550 100 q 619 149 610 122 q 639 183 628 172 q 672 194 650 194 q 711 181 697 194 q 721 142 725 167 q 649 35 707 69 q 489 0 592 0 l 375 0 m 415 804 q 371 820 386 804 q 356 864 356 836 l 356 903 q 415 960 356 960 l 451 960 q 494 945 479 960 q 508 903 508 931 l 508 864 q 493 820 508 836 q 451 804 478 804 l 415 804 z "},"d":{"ha":878,"x_min":111,"x_max":753,"o":"m 703 972 q 740 959 726 972 q 753 922 753 946 l 753 50 q 740 13 753 26 q 703 0 726 0 q 666 13 679 0 q 653 50 653 26 l 653 76 q 428 0 588 0 l 375 0 q 176 65 240 0 q 111 264 111 129 l 111 422 q 176 622 111 558 q 375 686 240 686 l 653 686 l 653 922 q 666 959 653 946 q 703 972 679 972 m 428 100 q 592 128 531 100 q 653 213 653 157 l 653 586 l 375 586 q 276 571 311 586 q 226 521 242 556 q 211 422 211 486 l 211 264 q 226 165 211 200 q 276 115 242 131 q 375 100 311 100 l 428 100 z "},"ð":{"ha":864,"x_min":111,"x_max":753,"o":"m 558 928 q 703 794 658 904 q 753 460 749 685 l 753 264 q 689 65 753 129 q 489 0 625 0 l 375 0 q 176 64 240 0 q 111 263 111 128 l 111 422 q 175 622 111 558 q 375 686 239 686 l 489 686 q 643 624 582 686 q 606 774 632 729 q 533 831 581 819 l 425 858 l 340 779 q 310 764 325 764 q 278 781 293 764 q 264 811 264 794 q 279 843 264 829 l 322 883 l 210 913 q 171 956 171 924 q 174 974 171 960 q 217 1013 185 1013 q 235 1010 221 1013 l 410 965 l 486 1038 q 517 1053 501 1053 q 549 1036 533 1053 q 563 1006 563 1022 q 547 974 563 988 l 511 940 l 558 928 m 653 422 q 638 521 653 486 q 588 571 622 556 q 489 586 553 586 l 375 586 q 276 572 311 586 q 226 522 242 557 q 211 422 211 486 l 211 263 q 226 165 211 200 q 276 115 242 131 q 375 100 311 100 l 489 100 q 588 115 553 100 q 638 165 622 131 q 653 264 653 200 l 653 422 z "},"ď":{"ha":933,"x_min":111,"x_max":1001,"o":"m 703 972 q 740 959 726 972 q 753 922 753 946 l 753 50 q 740 13 753 26 q 703 0 726 0 q 666 13 679 0 q 653 50 653 26 l 653 76 q 428 0 588 0 l 375 0 q 176 65 240 0 q 111 264 111 129 l 111 422 q 176 622 111 558 q 375 686 240 686 l 653 686 l 653 922 q 666 959 653 946 q 703 972 679 972 m 428 100 q 592 128 531 100 q 653 213 653 157 l 653 586 l 375 586 q 276 571 311 586 q 226 521 242 556 q 211 422 211 486 l 211 264 q 226 165 211 200 q 276 115 242 131 q 375 100 311 100 l 428 100 m 1001 918 q 997 899 1001 907 l 999 899 l 939 774 q 907 751 926 751 q 881 760 890 751 q 874 786 871 769 l 901 944 q 940 982 903 982 l 964 982 q 992 972 982 982 q 1001 943 1001 961 l 1001 918 z "},"đ":{"ha":878,"x_min":111,"x_max":869,"o":"m 826 860 q 869 817 869 860 q 826 774 869 774 l 753 774 l 753 50 q 740 13 753 26 q 703 0 726 0 q 666 13 679 0 q 653 50 653 26 l 653 76 q 428 0 588 0 l 375 0 q 176 65 240 0 q 111 264 111 129 l 111 422 q 176 622 111 558 q 375 686 240 686 l 653 686 l 653 774 l 464 774 q 421 817 421 774 q 464 860 421 860 l 653 860 l 653 922 q 666 959 653 946 q 703 972 679 972 q 740 959 726 972 q 753 922 753 946 l 753 860 l 826 860 m 428 100 q 592 128 531 100 q 653 213 653 157 l 653 586 l 375 586 q 276 571 311 586 q 226 521 242 556 q 211 422 211 486 l 211 264 q 226 165 211 200 q 276 115 242 131 q 375 100 311 100 l 428 100 z "},"ǳ":{"ha":1550,"x_min":111,"x_max":1501,"o":"m 703 972 q 740 959 726 972 q 753 922 753 946 l 753 50 q 740 13 753 26 q 703 0 726 0 q 666 13 679 0 q 653 50 653 26 l 653 76 q 428 0 588 0 l 375 0 q 176 65 240 0 q 111 264 111 129 l 111 422 q 176 622 111 558 q 375 686 240 686 l 653 686 l 653 922 q 666 959 653 946 q 703 972 679 972 m 428 100 q 592 128 531 100 q 653 213 653 157 l 653 586 l 375 586 q 276 571 311 586 q 226 521 242 556 q 211 422 211 486 l 211 264 q 226 165 211 200 q 276 115 242 131 q 375 100 311 100 l 428 100 m 1451 192 q 1490 178 1476 192 q 1500 139 1504 164 q 1439 35 1486 71 q 1313 0 1392 0 l 949 0 q 912 13 925 0 q 899 50 899 26 q 919 100 899 74 l 1310 586 l 1060 586 q 999 577 1018 586 q 972 543 979 568 q 954 506 965 518 q 921 494 943 494 q 881 508 894 494 q 872 547 868 522 q 930 652 883 618 q 1060 686 976 686 l 1400 686 q 1450 636 1450 686 q 1428 585 1450 613 l 1040 101 l 1313 100 q 1371 110 1351 100 q 1399 144 1390 119 q 1418 181 1407 169 q 1451 192 1429 192 z "},"ǆ":{"ha":1550,"x_min":111,"x_max":1501,"o":"m 703 972 q 740 959 726 972 q 753 922 753 946 l 753 50 q 740 13 753 26 q 703 0 726 0 q 666 13 679 0 q 653 50 653 26 l 653 76 q 428 0 588 0 l 375 0 q 176 65 240 0 q 111 264 111 129 l 111 422 q 176 622 111 558 q 375 686 240 686 l 653 686 l 653 922 q 666 959 653 946 q 703 972 679 972 m 428 100 q 592 128 531 100 q 653 213 653 157 l 653 586 l 375 586 q 276 571 311 586 q 226 521 242 556 q 211 422 211 486 l 211 264 q 226 165 211 200 q 276 115 242 131 q 375 100 311 100 l 428 100 m 1451 192 q 1490 178 1476 192 q 1500 139 1504 164 q 1439 35 1486 71 q 1313 0 1392 0 l 949 0 q 912 13 925 0 q 899 50 899 26 q 919 100 899 74 l 1310 586 l 1060 586 q 999 577 1018 586 q 972 543 979 568 q 954 506 965 518 q 921 494 943 494 q 881 508 894 494 q 872 547 868 522 q 930 652 883 618 q 1060 686 976 686 l 1400 686 q 1450 636 1450 686 q 1428 585 1450 613 l 1040 101 l 1313 100 q 1371 110 1351 100 q 1399 144 1390 119 q 1418 181 1407 169 q 1451 192 1429 192 m 1060 971 q 1092 957 1078 971 l 1185 847 l 1199 847 l 1292 957 q 1324 971 1304 971 q 1354 958 1342 971 q 1367 928 1367 946 q 1356 899 1367 913 l 1251 785 q 1199 761 1229 761 l 1185 761 q 1132 785 1154 761 l 1028 899 q 1017 928 1017 913 q 1029 958 1017 946 q 1060 971 1042 971 z "},"e":{"ha":864,"x_min":111,"x_max":753,"o":"m 211 303 l 211 263 q 226 165 211 200 q 276 115 242 131 q 375 100 311 100 l 489 100 q 603 117 567 100 q 649 175 639 133 q 666 210 654 199 q 701 222 678 222 q 740 209 726 222 q 749 171 753 196 q 671 42 735 83 q 489 0 607 0 l 375 0 q 176 64 240 0 q 111 263 111 128 l 111 422 q 176 623 111 558 q 375 686 240 688 l 489 686 q 689 622 625 686 q 753 422 753 558 l 753 353 q 740 316 753 329 q 703 303 726 303 l 211 303 m 211 403 l 653 403 l 653 422 q 638 521 653 486 q 588 571 622 556 q 489 586 553 586 l 375 586 q 276 572 311 588 q 226 522 242 557 q 211 422 211 486 l 211 403 z "},"é":{"ha":864,"x_min":111,"x_max":753,"o":"m 211 303 l 211 263 q 226 165 211 200 q 276 115 242 131 q 375 100 311 100 l 489 100 q 603 117 567 100 q 649 175 639 133 q 666 210 654 199 q 701 222 678 222 q 740 209 726 222 q 749 171 753 196 q 671 42 735 83 q 489 0 607 0 l 375 0 q 176 64 240 0 q 111 263 111 128 l 111 422 q 176 623 111 558 q 375 686 240 688 l 489 686 q 689 622 625 686 q 753 422 753 558 l 753 353 q 740 316 753 329 q 703 303 726 303 l 211 303 m 211 403 l 653 403 l 653 422 q 638 521 653 486 q 588 571 622 556 q 489 586 553 586 l 375 586 q 276 572 311 588 q 226 522 242 557 q 211 422 211 486 l 211 403 m 403 772 q 385 804 385 786 q 397 835 385 821 l 506 964 q 538 982 519 982 q 568 969 553 982 q 586 938 586 956 q 574 907 586 922 l 465 778 q 433 760 451 760 q 403 772 417 760 z "},"ĕ":{"ha":864,"x_min":111,"x_max":753,"o":"m 211 303 l 211 263 q 226 165 211 200 q 276 115 242 131 q 375 100 311 100 l 489 100 q 603 117 567 100 q 649 175 639 133 q 666 210 654 199 q 701 222 678 222 q 740 209 726 222 q 749 171 753 196 q 671 42 735 83 q 489 0 607 0 l 375 0 q 176 64 240 0 q 111 263 111 128 l 111 422 q 176 623 111 558 q 375 686 240 688 l 489 686 q 689 622 625 686 q 753 422 753 558 l 753 353 q 740 316 753 329 q 703 303 726 303 l 211 303 m 211 403 l 653 403 l 653 422 q 638 521 653 486 q 588 571 622 556 q 489 586 553 586 l 375 586 q 276 572 311 588 q 226 522 242 557 q 211 422 211 486 l 211 403 m 451 756 q 315 792 363 756 q 267 899 267 829 l 267 921 q 311 965 267 965 q 356 921 356 965 l 356 899 q 376 853 356 867 q 451 839 397 839 q 526 853 506 839 q 547 899 547 867 l 547 932 q 592 965 547 965 q 636 921 636 965 l 636 899 q 588 792 636 829 q 451 756 540 756 z "},"ě":{"ha":864,"x_min":111,"x_max":753,"o":"m 211 303 l 211 263 q 226 165 211 200 q 276 115 242 131 q 375 100 311 100 l 489 100 q 603 117 567 100 q 649 175 639 133 q 666 210 654 199 q 701 222 678 222 q 740 209 726 222 q 749 171 753 196 q 671 42 735 83 q 489 0 607 0 l 375 0 q 176 64 240 0 q 111 263 111 128 l 111 422 q 176 623 111 558 q 375 686 240 688 l 489 686 q 689 622 625 686 q 753 422 753 558 l 753 353 q 740 316 753 329 q 703 303 726 303 l 211 303 m 211 403 l 653 403 l 653 422 q 638 521 653 486 q 588 571 622 556 q 489 586 553 586 l 375 586 q 276 572 311 588 q 226 522 242 557 q 211 422 211 486 l 211 403 m 303 971 q 335 957 321 971 l 428 847 l 442 847 l 535 957 q 567 971 547 971 q 597 958 585 971 q 610 928 610 946 q 599 899 610 913 l 494 785 q 442 761 472 761 l 428 761 q 375 785 397 761 l 271 899 q 260 928 260 913 q 272 958 260 946 q 303 971 285 971 z "},"ê":{"ha":864,"x_min":111,"x_max":753,"o":"m 211 303 l 211 263 q 226 165 211 200 q 276 115 242 131 q 375 100 311 100 l 489 100 q 603 117 567 100 q 649 175 639 133 q 666 210 654 199 q 701 222 678 222 q 740 209 726 222 q 749 171 753 196 q 671 42 735 83 q 489 0 607 0 l 375 0 q 176 64 240 0 q 111 263 111 128 l 111 422 q 176 623 111 558 q 375 686 240 688 l 489 686 q 689 622 625 686 q 753 422 753 558 l 753 353 q 740 316 753 329 q 703 303 726 303 l 211 303 m 211 403 l 653 403 l 653 422 q 638 521 653 486 q 588 571 622 556 q 489 586 553 586 l 375 586 q 276 572 311 588 q 226 522 242 557 q 211 422 211 486 l 211 403 m 306 761 q 275 774 288 761 q 263 804 263 786 q 274 833 263 819 l 378 947 q 431 971 400 971 l 444 971 q 497 947 475 971 l 601 833 q 613 804 613 819 q 600 774 613 786 q 569 761 588 761 q 538 775 550 761 l 444 885 l 431 885 l 338 775 q 306 761 324 761 z "},"ế":{"ha":864,"x_min":111,"x_max":753,"o":"m 211 303 l 211 263 q 226 165 211 200 q 276 115 242 131 q 375 100 311 100 l 489 100 q 603 117 567 100 q 649 175 639 133 q 666 210 654 199 q 701 222 678 222 q 740 209 726 222 q 749 171 753 196 q 671 42 735 83 q 489 0 607 0 l 375 0 q 176 64 240 0 q 111 263 111 128 l 111 422 q 176 623 111 558 q 375 686 240 688 l 489 686 q 689 622 625 686 q 753 422 753 558 l 753 353 q 740 316 753 329 q 703 303 726 303 l 211 303 m 211 403 l 653 403 l 653 422 q 638 521 653 486 q 588 571 622 556 q 489 586 553 586 l 375 586 q 276 572 311 588 q 226 522 242 557 q 211 422 211 486 l 211 403 m 592 875 q 572 908 572 890 q 586 938 572 924 l 665 1022 q 699 1040 683 1040 q 728 1028 713 1040 q 746 994 746 1014 q 733 965 746 981 l 654 881 q 621 863 638 863 q 592 875 606 863 m 304 761 q 274 774 286 761 q 261 804 261 786 q 272 833 261 819 l 376 947 q 429 971 399 971 l 443 971 q 496 947 474 971 l 600 833 q 611 804 611 819 q 599 774 611 786 q 568 761 586 761 q 536 775 549 761 l 443 885 l 429 885 l 336 775 q 304 761 322 761 z "},"ệ":{"ha":864,"x_min":111,"x_max":753,"o":"m 211 303 l 211 263 q 226 165 211 200 q 276 115 242 131 q 375 100 311 100 l 489 100 q 603 117 567 100 q 649 175 639 133 q 666 210 654 199 q 701 222 678 222 q 740 209 726 222 q 749 171 753 196 q 671 42 735 83 q 489 0 607 0 l 375 0 q 176 64 240 0 q 111 263 111 128 l 111 422 q 176 623 111 558 q 375 686 240 688 l 489 686 q 689 622 625 686 q 753 422 753 558 l 753 353 q 740 316 753 329 q 703 303 726 303 l 211 303 m 211 403 l 653 403 l 653 422 q 638 521 653 486 q 588 571 622 556 q 489 586 553 586 l 375 586 q 276 572 311 588 q 226 522 242 557 q 211 422 211 486 l 211 403 m 422 -215 q 385 -202 399 -215 q 372 -165 372 -189 l 372 -133 q 422 -85 372 -85 l 453 -85 q 500 -133 500 -85 l 500 -165 q 488 -202 500 -189 q 453 -215 475 -215 l 422 -215 m 306 761 q 275 774 288 761 q 263 804 263 786 q 274 833 263 819 l 378 947 q 431 971 400 971 l 444 971 q 497 947 475 971 l 601 833 q 613 804 613 819 q 600 774 613 786 q 569 761 588 761 q 538 775 550 761 l 444 885 l 431 885 l 338 775 q 306 761 324 761 z "},"ề":{"ha":864,"x_min":111,"x_max":753,"o":"m 211 303 l 211 263 q 226 165 211 200 q 276 115 242 131 q 375 100 311 100 l 489 100 q 603 117 567 100 q 649 175 639 133 q 666 210 654 199 q 701 222 678 222 q 740 209 726 222 q 749 171 753 196 q 671 42 735 83 q 489 0 607 0 l 375 0 q 176 64 240 0 q 111 263 111 128 l 111 422 q 176 623 111 558 q 375 686 240 688 l 489 686 q 689 622 625 686 q 753 422 753 558 l 753 353 q 740 316 753 329 q 703 303 726 303 l 211 303 m 211 403 l 653 403 l 653 422 q 638 521 653 486 q 588 571 622 556 q 489 586 553 586 l 375 586 q 276 572 311 588 q 226 522 242 557 q 211 422 211 486 l 211 403 m 274 875 q 244 863 260 863 q 211 881 228 863 l 132 965 q 119 994 119 981 q 138 1028 119 1014 q 167 1040 153 1040 q 200 1022 182 1040 l 279 938 q 293 908 293 924 q 274 875 293 890 m 303 761 q 272 774 285 761 q 260 804 260 786 q 271 833 260 819 l 375 947 q 428 971 397 971 l 442 971 q 494 947 472 971 l 599 833 q 610 804 610 819 q 597 774 610 786 q 567 761 585 761 q 535 775 547 761 l 442 885 l 428 885 l 335 775 q 303 761 321 761 z "},"ể":{"ha":864,"x_min":111,"x_max":753,"o":"m 211 303 l 211 263 q 226 165 211 200 q 276 115 242 131 q 375 100 311 100 l 489 100 q 603 117 567 100 q 649 175 639 133 q 666 210 654 199 q 701 222 678 222 q 740 209 726 222 q 749 171 753 196 q 671 42 735 83 q 489 0 607 0 l 375 0 q 176 64 240 0 q 111 263 111 128 l 111 422 q 176 623 111 558 q 375 686 240 688 l 489 686 q 689 622 625 686 q 753 422 753 558 l 753 353 q 740 316 753 329 q 703 303 726 303 l 211 303 m 211 403 l 653 403 l 653 422 q 638 521 653 486 q 588 571 622 556 q 489 586 553 586 l 375 586 q 276 572 311 588 q 226 522 242 557 q 211 422 211 486 l 211 403 m 304 761 q 274 774 286 761 q 261 804 261 786 q 272 833 261 819 l 376 947 q 429 971 399 971 l 443 971 q 496 947 474 971 l 600 833 q 611 804 611 819 q 599 774 611 786 q 568 761 586 761 q 536 775 549 761 l 443 885 l 429 885 l 336 775 q 304 761 322 761 m 581 900 q 553 908 561 900 q 544 935 544 915 q 563 995 544 974 q 611 1035 582 1017 q 635 1051 631 1046 q 640 1067 640 1057 q 631 1108 640 1097 q 590 1118 621 1118 q 550 1108 560 1118 q 540 1067 540 1097 q 532 1039 540 1047 q 504 1031 524 1031 q 476 1039 485 1031 q 468 1067 468 1047 q 590 1189 468 1189 q 713 1067 713 1189 q 694 1010 713 1031 q 649 972 676 989 q 622 953 628 960 q 617 935 617 946 q 608 908 617 915 q 581 900 600 900 z "},"ễ":{"ha":864,"x_min":111,"x_max":753,"o":"m 211 303 l 211 263 q 226 165 211 200 q 276 115 242 131 q 375 100 311 100 l 489 100 q 603 117 567 100 q 649 175 639 133 q 666 210 654 199 q 701 222 678 222 q 740 209 726 222 q 749 171 753 196 q 671 42 735 83 q 489 0 607 0 l 375 0 q 176 64 240 0 q 111 263 111 128 l 111 422 q 176 623 111 558 q 375 686 240 688 l 489 686 q 689 622 625 686 q 753 422 753 558 l 753 353 q 740 316 753 329 q 703 303 726 303 l 211 303 m 211 403 l 653 403 l 653 422 q 638 521 653 486 q 588 571 622 556 q 489 586 553 586 l 375 586 q 276 572 311 588 q 226 522 242 557 q 211 422 211 486 l 211 403 m 304 761 q 274 774 286 761 q 261 804 261 786 q 272 833 261 819 l 376 947 q 429 971 399 971 l 443 971 q 496 947 474 971 l 600 833 q 611 804 611 819 q 599 774 611 786 q 568 761 586 761 q 536 775 549 761 l 443 885 l 429 885 l 336 775 q 304 761 322 761 m 506 1000 q 466 1012 483 1000 q 424 1046 449 1024 q 378 1076 393 1076 q 354 1067 364 1076 q 335 1033 344 1058 q 297 1003 322 1003 q 282 1006 293 1003 q 251 1039 251 1014 q 256 1058 251 1049 q 303 1134 276 1111 q 372 1157 331 1157 q 412 1145 393 1157 q 460 1108 431 1133 q 485 1088 472 1097 q 504 1079 497 1079 q 519 1086 514 1079 q 535 1113 525 1093 q 572 1144 547 1144 q 586 1143 581 1144 q 618 1110 618 1135 q 615 1092 618 1099 q 506 1000 579 1000 z "},"ȅ":{"ha":864,"x_min":111,"x_max":753,"o":"m 247 917 q 236 944 236 928 q 251 972 236 961 q 279 983 264 983 q 308 968 297 983 l 406 851 q 417 824 417 840 q 401 796 417 807 q 374 785 389 785 q 344 800 356 785 l 247 917 m 406 917 q 394 944 394 928 q 410 972 394 961 q 438 983 422 983 q 467 968 456 983 l 564 851 q 575 824 575 840 q 560 796 575 807 q 532 785 547 785 q 503 800 514 785 l 406 917 m 211 303 l 211 263 q 226 165 211 200 q 276 115 242 131 q 375 100 311 100 l 489 100 q 603 117 567 100 q 649 175 639 133 q 666 210 654 199 q 701 222 678 222 q 740 209 726 222 q 749 171 753 196 q 671 42 735 83 q 489 0 607 0 l 375 0 q 176 64 240 0 q 111 263 111 128 l 111 422 q 176 623 111 558 q 375 686 240 688 l 489 686 q 689 622 625 686 q 753 422 753 558 l 753 353 q 740 316 753 329 q 703 303 726 303 l 211 303 m 211 403 l 653 403 l 653 422 q 638 521 653 486 q 588 571 622 556 q 489 586 553 586 l 375 586 q 276 572 311 588 q 226 522 242 557 q 211 422 211 486 l 211 403 z "},"ë":{"ha":864,"x_min":111,"x_max":753,"o":"m 211 303 l 211 263 q 226 165 211 200 q 276 115 242 131 q 375 100 311 100 l 489 100 q 603 117 567 100 q 649 175 639 133 q 666 210 654 199 q 701 222 678 222 q 740 209 726 222 q 749 171 753 196 q 671 42 735 83 q 489 0 607 0 l 375 0 q 176 64 240 0 q 111 263 111 128 l 111 422 q 176 623 111 558 q 375 686 240 688 l 489 686 q 689 622 625 686 q 753 422 753 558 l 753 353 q 740 316 753 329 q 703 303 726 303 l 211 303 m 211 403 l 653 403 l 653 422 q 638 521 653 486 q 588 571 622 556 q 489 586 553 586 l 375 586 q 276 572 311 588 q 226 522 242 557 q 211 422 211 486 l 211 403 m 311 794 q 274 808 288 794 q 261 844 261 821 l 261 876 q 311 925 261 925 l 342 925 q 389 876 389 925 l 389 844 q 376 808 389 821 q 342 794 364 794 l 311 794 m 533 794 q 497 808 510 794 q 483 844 483 821 l 483 876 q 533 925 483 925 l 564 925 q 611 876 611 925 l 611 844 q 599 808 611 821 q 564 794 586 794 l 533 794 z "},"ė":{"ha":864,"x_min":111,"x_max":753,"o":"m 211 303 l 211 263 q 226 165 211 200 q 276 115 242 131 q 375 100 311 100 l 489 100 q 603 117 567 100 q 649 175 639 133 q 666 210 654 199 q 701 222 678 222 q 740 209 726 222 q 749 171 753 196 q 671 42 735 83 q 489 0 607 0 l 375 0 q 176 64 240 0 q 111 263 111 128 l 111 422 q 176 623 111 558 q 375 686 240 688 l 489 686 q 689 622 625 686 q 753 422 753 558 l 753 353 q 740 316 753 329 q 703 303 726 303 l 211 303 m 211 403 l 653 403 l 653 422 q 638 521 653 486 q 588 571 622 556 q 489 586 553 586 l 375 586 q 276 572 311 588 q 226 522 242 557 q 211 422 211 486 l 211 403 m 419 804 q 375 820 390 804 q 360 864 360 836 l 360 903 q 419 960 360 960 l 456 960 q 498 945 483 960 q 513 903 513 931 l 513 864 q 497 820 513 836 q 456 804 482 804 l 419 804 z "},"ẹ":{"ha":864,"x_min":111,"x_max":753,"o":"m 211 303 l 211 263 q 226 165 211 200 q 276 115 242 131 q 375 100 311 100 l 489 100 q 603 117 567 100 q 649 175 639 133 q 666 210 654 199 q 701 222 678 222 q 740 209 726 222 q 749 171 753 196 q 671 42 735 83 q 489 0 607 0 l 375 0 q 176 64 240 0 q 111 263 111 128 l 111 422 q 176 623 111 558 q 375 686 240 688 l 489 686 q 689 622 625 686 q 753 422 753 558 l 753 353 q 740 316 753 329 q 703 303 726 303 l 211 303 m 211 403 l 653 403 l 653 422 q 638 521 653 486 q 588 571 622 556 q 489 586 553 586 l 375 586 q 276 572 311 588 q 226 522 242 557 q 211 422 211 486 l 211 403 m 422 -215 q 385 -202 399 -215 q 372 -165 372 -189 l 372 -133 q 422 -85 372 -85 l 453 -85 q 500 -133 500 -85 l 500 -165 q 488 -202 500 -189 q 453 -215 475 -215 l 422 -215 z "},"è":{"ha":864,"x_min":111,"x_max":753,"o":"m 211 303 l 211 263 q 226 165 211 200 q 276 115 242 131 q 375 100 311 100 l 489 100 q 603 117 567 100 q 649 175 639 133 q 666 210 654 199 q 701 222 678 222 q 740 209 726 222 q 749 171 753 196 q 671 42 735 83 q 489 0 607 0 l 375 0 q 176 64 240 0 q 111 263 111 128 l 111 422 q 176 623 111 558 q 375 686 240 688 l 489 686 q 689 622 625 686 q 753 422 753 558 l 753 353 q 740 316 753 329 q 703 303 726 303 l 211 303 m 211 403 l 653 403 l 653 422 q 638 521 653 486 q 588 571 622 556 q 489 586 553 586 l 375 586 q 276 572 311 588 q 226 522 242 557 q 211 422 211 486 l 211 403 m 490 754 q 460 742 475 742 q 428 760 442 742 l 319 889 q 307 919 307 904 q 325 951 307 938 q 356 964 339 964 q 388 946 374 964 l 496 817 q 508 786 508 803 q 490 754 508 768 z "},"ẻ":{"ha":864,"x_min":111,"x_max":753,"o":"m 211 303 l 211 263 q 226 165 211 200 q 276 115 242 131 q 375 100 311 100 l 489 100 q 603 117 567 100 q 649 175 639 133 q 666 210 654 199 q 701 222 678 222 q 740 209 726 222 q 749 171 753 196 q 671 42 735 83 q 489 0 607 0 l 375 0 q 176 64 240 0 q 111 263 111 128 l 111 422 q 176 623 111 558 q 375 686 240 688 l 489 686 q 689 622 625 686 q 753 422 753 558 l 753 353 q 740 316 753 329 q 703 303 726 303 l 211 303 m 211 403 l 653 403 l 653 422 q 638 521 653 486 q 588 571 622 556 q 489 586 553 586 l 375 586 q 276 572 311 588 q 226 522 242 557 q 211 422 211 486 l 211 403 m 436 761 q 408 769 417 761 q 400 796 400 776 q 419 856 400 835 q 467 896 438 878 q 491 913 486 907 q 496 928 496 918 q 486 969 496 958 q 446 979 476 979 q 406 969 415 979 q 396 928 396 958 q 388 900 396 908 q 360 892 379 892 q 332 900 340 892 q 324 928 324 908 q 446 1050 324 1050 q 568 928 568 1050 q 550 871 568 892 q 504 833 532 850 q 478 814 483 821 q 472 796 472 807 q 464 769 472 776 q 436 761 456 761 z "},"ȇ":{"ha":864,"x_min":111,"x_max":753,"o":"m 211 303 l 211 263 q 226 165 211 200 q 276 115 242 131 q 375 100 311 100 l 489 100 q 603 117 567 100 q 649 175 639 133 q 666 210 654 199 q 701 222 678 222 q 740 209 726 222 q 749 171 753 196 q 671 42 735 83 q 489 0 607 0 l 375 0 q 176 64 240 0 q 111 263 111 128 l 111 422 q 176 623 111 558 q 375 686 240 688 l 489 686 q 689 622 625 686 q 753 422 753 558 l 753 353 q 740 316 753 329 q 703 303 726 303 l 211 303 m 211 403 l 653 403 l 653 422 q 638 521 653 486 q 588 571 622 556 q 489 586 553 586 l 375 586 q 276 572 311 588 q 226 522 242 557 q 211 422 211 486 l 211 403 m 436 1010 q 573 973 525 1010 q 621 867 621 936 l 621 844 q 576 800 621 800 q 532 833 532 800 l 532 867 q 511 913 532 899 q 436 926 490 926 q 361 913 382 926 q 340 867 340 899 l 340 844 q 296 800 340 800 q 251 844 251 800 l 251 867 q 299 973 251 936 q 436 1010 347 1010 z "},"ē":{"ha":864,"x_min":111,"x_max":753,"o":"m 211 303 l 211 263 q 226 165 211 200 q 276 115 242 131 q 375 100 311 100 l 489 100 q 603 117 567 100 q 649 175 639 133 q 666 210 654 199 q 701 222 678 222 q 740 209 726 222 q 749 171 753 196 q 671 42 735 83 q 489 0 607 0 l 375 0 q 176 64 240 0 q 111 263 111 128 l 111 422 q 176 623 111 558 q 375 686 240 688 l 489 686 q 689 622 625 686 q 753 422 753 558 l 753 353 q 740 316 753 329 q 703 303 726 303 l 211 303 m 211 403 l 653 403 l 653 422 q 638 521 653 486 q 588 571 622 556 q 489 586 553 586 l 375 586 q 276 572 311 588 q 226 522 242 557 q 211 422 211 486 l 211 403 m 256 818 q 206 868 206 818 q 256 918 206 918 l 607 918 q 657 868 657 918 q 607 818 657 818 l 256 818 z "},"ę":{"ha":864,"x_min":111,"x_max":757,"o":"m 711 -112 q 746 -126 735 -112 q 757 -160 757 -139 q 738 -190 757 -179 q 640 -221 692 -221 q 542 -185 582 -221 q 503 -96 503 -149 q 536 -6 503 -50 l 542 3 q 489 0 508 0 l 375 0 q 176 64 240 0 q 111 263 111 128 l 111 422 q 176 623 111 558 q 375 686 240 688 l 489 686 q 689 622 625 686 q 753 422 753 558 l 753 353 q 740 316 753 329 q 703 303 726 303 l 211 303 l 211 263 q 226 165 211 200 q 276 115 242 131 q 375 100 311 100 l 489 100 q 603 117 567 100 q 649 175 639 133 q 666 210 654 199 q 701 222 678 222 q 740 209 726 222 q 749 171 753 196 q 726 101 742 129 q 717 85 721 90 l 608 -58 q 592 -96 592 -79 q 605 -122 592 -111 q 640 -132 618 -132 q 672 -126 657 -132 q 692 -117 686 -119 q 711 -112 703 -112 m 211 403 l 653 403 l 653 422 q 638 521 653 486 q 588 571 622 556 q 489 586 553 586 l 375 586 q 276 572 311 588 q 226 522 242 557 q 211 422 211 486 l 211 403 z "},"ẽ":{"ha":864,"x_min":111,"x_max":753,"o":"m 211 303 l 211 263 q 226 165 211 200 q 276 115 242 131 q 375 100 311 100 l 489 100 q 603 117 567 100 q 649 175 639 133 q 666 210 654 199 q 701 222 678 222 q 740 209 726 222 q 749 171 753 196 q 671 42 735 83 q 489 0 607 0 l 375 0 q 176 64 240 0 q 111 263 111 128 l 111 422 q 176 623 111 558 q 375 686 240 688 l 489 686 q 689 622 625 686 q 753 422 753 558 l 753 353 q 740 316 753 329 q 703 303 726 303 l 211 303 m 211 403 l 653 403 l 653 422 q 638 521 653 486 q 588 571 622 556 q 489 586 553 586 l 375 586 q 276 572 311 588 q 226 522 242 557 q 211 422 211 486 l 211 403 m 532 776 q 470 791 494 776 q 421 831 446 806 q 392 856 403 850 q 365 863 381 863 q 333 852 346 863 q 308 814 319 842 q 272 782 297 782 q 256 785 267 782 q 225 818 225 793 q 229 838 225 828 q 284 920 251 894 q 365 946 317 946 q 429 931 404 946 q 481 889 454 915 q 508 865 499 871 q 532 860 518 860 q 559 869 549 860 q 579 903 569 879 q 617 936 592 936 q 631 935 626 936 q 663 900 663 928 q 660 883 663 889 q 610 803 640 829 q 532 776 579 776 z "},"ə":{"ha":864,"x_min":111,"x_max":753,"o":"m 489 686 q 688 622 624 686 q 753 424 753 558 l 753 264 q 689 63 753 128 q 489 0 625 -1 l 375 0 q 176 65 240 0 q 111 264 111 129 l 111 333 q 124 370 111 357 q 161 383 138 383 l 653 383 l 653 424 q 638 521 653 486 q 588 571 622 556 q 489 586 553 586 l 375 586 q 261 569 297 586 q 215 511 225 553 q 198 476 210 488 q 163 464 186 464 q 124 477 138 464 q 115 515 111 490 q 193 644 129 603 q 375 686 257 686 l 489 686 m 653 283 l 211 283 l 211 264 q 226 165 211 200 q 276 115 242 131 q 375 100 311 100 l 489 100 q 588 114 553 99 q 638 165 622 129 q 653 264 653 200 l 653 283 z "}}}
